%TF.GenerationSoftware,KiCad,Pcbnew,9.0.3*%
%TF.CreationDate,2025-09-19T13:58:25-05:00*%
%TF.ProjectId,galaxsea_26_pdb,67616c61-7873-4656-915f-32365f706462,rev?*%
%TF.SameCoordinates,Original*%
%TF.FileFunction,Copper,L1,Top*%
%TF.FilePolarity,Positive*%
%FSLAX46Y46*%
G04 Gerber Fmt 4.6, Leading zero omitted, Abs format (unit mm)*
G04 Created by KiCad (PCBNEW 9.0.3) date 2025-09-19 13:58:25*
%MOMM*%
%LPD*%
G01*
G04 APERTURE LIST*
G04 Aperture macros list*
%AMRoundRect*
0 Rectangle with rounded corners*
0 $1 Rounding radius*
0 $2 $3 $4 $5 $6 $7 $8 $9 X,Y pos of 4 corners*
0 Add a 4 corners polygon primitive as box body*
4,1,4,$2,$3,$4,$5,$6,$7,$8,$9,$2,$3,0*
0 Add four circle primitives for the rounded corners*
1,1,$1+$1,$2,$3*
1,1,$1+$1,$4,$5*
1,1,$1+$1,$6,$7*
1,1,$1+$1,$8,$9*
0 Add four rect primitives between the rounded corners*
20,1,$1+$1,$2,$3,$4,$5,0*
20,1,$1+$1,$4,$5,$6,$7,0*
20,1,$1+$1,$6,$7,$8,$9,0*
20,1,$1+$1,$8,$9,$2,$3,0*%
G04 Aperture macros list end*
%TA.AperFunction,ComponentPad*%
%ADD10C,6.000000*%
%TD*%
%TA.AperFunction,ComponentPad*%
%ADD11RoundRect,1.500000X-1.500000X1.500000X-1.500000X-1.500000X1.500000X-1.500000X1.500000X1.500000X0*%
%TD*%
%TA.AperFunction,SMDPad,CuDef*%
%ADD12RoundRect,0.200000X0.275000X-0.200000X0.275000X0.200000X-0.275000X0.200000X-0.275000X-0.200000X0*%
%TD*%
%TA.AperFunction,SMDPad,CuDef*%
%ADD13RoundRect,0.250000X1.600000X-0.300000X1.600000X0.300000X-1.600000X0.300000X-1.600000X-0.300000X0*%
%TD*%
%TA.AperFunction,SMDPad,CuDef*%
%ADD14RoundRect,0.015000X-0.760000X-0.285000X0.760000X-0.285000X0.760000X0.285000X-0.760000X0.285000X0*%
%TD*%
%TA.AperFunction,ComponentPad*%
%ADD15C,0.400000*%
%TD*%
%TA.AperFunction,SMDPad,CuDef*%
%ADD16R,2.950000X4.900000*%
%TD*%
%TA.AperFunction,SMDPad,CuDef*%
%ADD17RoundRect,0.250000X-0.450000X0.262500X-0.450000X-0.262500X0.450000X-0.262500X0.450000X0.262500X0*%
%TD*%
%TA.AperFunction,SMDPad,CuDef*%
%ADD18RoundRect,0.250000X-0.250000X-0.475000X0.250000X-0.475000X0.250000X0.475000X-0.250000X0.475000X0*%
%TD*%
%TA.AperFunction,SMDPad,CuDef*%
%ADD19RoundRect,0.250000X0.475000X-0.250000X0.475000X0.250000X-0.475000X0.250000X-0.475000X-0.250000X0*%
%TD*%
%TA.AperFunction,ComponentPad*%
%ADD20C,2.800000*%
%TD*%
%TA.AperFunction,SMDPad,CuDef*%
%ADD21RoundRect,0.250000X-0.475000X0.250000X-0.475000X-0.250000X0.475000X-0.250000X0.475000X0.250000X0*%
%TD*%
%TA.AperFunction,SMDPad,CuDef*%
%ADD22RoundRect,0.250000X0.262500X0.450000X-0.262500X0.450000X-0.262500X-0.450000X0.262500X-0.450000X0*%
%TD*%
%TA.AperFunction,SMDPad,CuDef*%
%ADD23RoundRect,0.250000X-0.625000X0.375000X-0.625000X-0.375000X0.625000X-0.375000X0.625000X0.375000X0*%
%TD*%
%TA.AperFunction,SMDPad,CuDef*%
%ADD24RoundRect,0.250000X-0.375000X-0.625000X0.375000X-0.625000X0.375000X0.625000X-0.375000X0.625000X0*%
%TD*%
%TA.AperFunction,SMDPad,CuDef*%
%ADD25RoundRect,0.243750X0.243750X0.456250X-0.243750X0.456250X-0.243750X-0.456250X0.243750X-0.456250X0*%
%TD*%
%TA.AperFunction,ViaPad*%
%ADD26C,0.600000*%
%TD*%
%TA.AperFunction,Conductor*%
%ADD27C,0.600000*%
%TD*%
%TA.AperFunction,Conductor*%
%ADD28C,0.200000*%
%TD*%
G04 APERTURE END LIST*
D10*
%TO.P,J2,2,Pin_2*%
%TO.N,/BDC Module/BDC_VOUT*%
X170000000Y-86400000D03*
D11*
%TO.P,J2,1,Pin_1*%
%TO.N,GND*%
X170000000Y-79200000D03*
%TD*%
D10*
%TO.P,J1,2,Pin_2*%
%TO.N,/BDC Module/BDC_VIN*%
X130000000Y-86400000D03*
D11*
%TO.P,J1,1,Pin_1*%
%TO.N,GND*%
X130000000Y-79200000D03*
%TD*%
D12*
%TO.P,R4,1*%
%TO.N,/BDC Module/BDC_VIN_Fuse*%
X137945000Y-72437500D03*
%TO.P,R4,2*%
%TO.N,Net-(D2-A)*%
X137945000Y-70787500D03*
%TD*%
D13*
%TO.P,L1,1*%
%TO.N,/BDC Module/_BDC_PH*%
X157340000Y-82250000D03*
%TO.P,L1,2*%
%TO.N,/BDC Module/BDC_VOUT*%
X157340000Y-79250000D03*
%TD*%
D14*
%TO.P,U1,1,BOOT*%
%TO.N,/BDC Module/_BDC_BOOT*%
X148290000Y-89445000D03*
%TO.P,U1,2,VIN*%
%TO.N,/BDC Module/BDC_VIN_Fuse*%
X148290000Y-90715000D03*
%TO.P,U1,3,EN*%
%TO.N,/BDC Module/_BDC_EN*%
X148290000Y-91985000D03*
%TO.P,U1,4,SS*%
%TO.N,/BDC Module/_BDC_SS*%
X148290000Y-93255000D03*
%TO.P,U1,5,VSENSE*%
%TO.N,/BDC Module/_BDC_VSENSE*%
X153690000Y-93255000D03*
%TO.P,U1,6,COMP*%
%TO.N,/BDC Module/_BDC_COMP*%
X153690000Y-91985000D03*
D15*
%TO.P,U1,7,GND*%
%TO.N,GND*%
X150340000Y-89400000D03*
X150340000Y-90700000D03*
X150340000Y-92000000D03*
X150340000Y-93300000D03*
D16*
X150990000Y-91350000D03*
D15*
X151640000Y-89400000D03*
X151640000Y-90700000D03*
X151640000Y-92000000D03*
X151640000Y-93300000D03*
D14*
X153690000Y-90715000D03*
%TO.P,U1,8,PH*%
%TO.N,/BDC Module/_BDC_PH*%
X153690000Y-89445000D03*
%TD*%
D17*
%TO.P,R1,1*%
%TO.N,/BDC Module/BDC_VOUT*%
X162085000Y-84875000D03*
%TO.P,R1,2*%
%TO.N,/BDC Module/_BDC_VSENSE*%
X162085000Y-86700000D03*
%TD*%
D18*
%TO.P,C1,1*%
%TO.N,/BDC Module/_BDC_BOOT*%
X153780000Y-86690000D03*
%TO.P,C1,2*%
%TO.N,/BDC Module/_BDC_PH*%
X155680000Y-86690000D03*
%TD*%
D19*
%TO.P,C3,1*%
%TO.N,/BDC Module/BDC_VIN_Fuse*%
X145065000Y-89380000D03*
%TO.P,C3,2*%
%TO.N,GND*%
X145065000Y-87480000D03*
%TD*%
D17*
%TO.P,R3,1*%
%TO.N,/BDC Module/_BDC_VSENSE*%
X162085000Y-88925000D03*
%TO.P,R3,2*%
%TO.N,GND*%
X162085000Y-90750000D03*
%TD*%
D19*
%TO.P,C4,1*%
%TO.N,/BDC Module/_BDC_COMP*%
X156915000Y-92645000D03*
%TO.P,C4,2*%
%TO.N,GND*%
X156915000Y-90745000D03*
%TD*%
D20*
%TO.P,TP2,1,1*%
%TO.N,/BDC Module/BDC_VOUT*%
X170000000Y-72000000D03*
%TD*%
D21*
%TO.P,C8,1*%
%TO.N,/BDC Module/BDC_VOUT*%
X151490000Y-79200000D03*
%TO.P,C8,2*%
%TO.N,GND*%
X151490000Y-81100000D03*
%TD*%
D12*
%TO.P,R5,1*%
%TO.N,/BDC Module/BDC_VOUT*%
X143295000Y-72362500D03*
%TO.P,R5,2*%
%TO.N,Net-(D3-A)*%
X143295000Y-70712500D03*
%TD*%
D21*
%TO.P,C6,1*%
%TO.N,/BDC Module/_BDC_SS*%
X145065000Y-93580000D03*
%TO.P,C6,2*%
%TO.N,GND*%
X145065000Y-95480000D03*
%TD*%
D22*
%TO.P,R2,1*%
%TO.N,Net-(C5-Pad1)*%
X159100000Y-94800000D03*
%TO.P,R2,2*%
%TO.N,/BDC Module/_BDC_COMP*%
X157275000Y-94800000D03*
%TD*%
D20*
%TO.P,TP3,1,1*%
%TO.N,GND*%
X153700000Y-62000000D03*
%TD*%
%TO.P,TP1,1,1*%
%TO.N,/BDC Module/BDC_VIN_Fuse*%
X130000000Y-72000000D03*
%TD*%
D21*
%TO.P,C7,1*%
%TO.N,/BDC Module/BDC_VOUT*%
X149350000Y-79200000D03*
%TO.P,C7,2*%
%TO.N,GND*%
X149350000Y-81100000D03*
%TD*%
D23*
%TO.P,D3,1,K*%
%TO.N,GND*%
X143300000Y-65862500D03*
%TO.P,D3,2,A*%
%TO.N,Net-(D3-A)*%
X143300000Y-68662500D03*
%TD*%
%TO.P,D2,1,K*%
%TO.N,GND*%
X137945000Y-65862500D03*
%TO.P,D2,2,A*%
%TO.N,Net-(D2-A)*%
X137945000Y-68662500D03*
%TD*%
D24*
%TO.P,F1,1*%
%TO.N,/BDC Module/BDC_VIN*%
X133300000Y-92500000D03*
%TO.P,F1,2*%
%TO.N,/BDC Module/BDC_VIN_Fuse*%
X136100000Y-92500000D03*
%TD*%
D19*
%TO.P,C5,1*%
%TO.N,Net-(C5-Pad1)*%
X159500000Y-92645000D03*
%TO.P,C5,2*%
%TO.N,GND*%
X159500000Y-90745000D03*
%TD*%
D21*
%TO.P,C9,1*%
%TO.N,/BDC Module/BDC_VOUT*%
X153650000Y-79200000D03*
%TO.P,C9,2*%
%TO.N,GND*%
X153650000Y-81100000D03*
%TD*%
D25*
%TO.P,D1,1,K*%
%TO.N,/BDC Module/_BDC_PH*%
X155687500Y-84300000D03*
%TO.P,D1,2,A*%
%TO.N,GND*%
X153812500Y-84300000D03*
%TD*%
D19*
%TO.P,C2,1*%
%TO.N,/BDC Module/BDC_VIN_Fuse*%
X142665000Y-89400000D03*
%TO.P,C2,2*%
%TO.N,GND*%
X142665000Y-87500000D03*
%TD*%
D26*
%TO.N,GND*%
X147500000Y-96500000D03*
X148500000Y-96500000D03*
X146500000Y-95500000D03*
X137920000Y-67287500D03*
X147500000Y-98500000D03*
X146500000Y-98500000D03*
X150500000Y-96500000D03*
X151500000Y-98500000D03*
X150500000Y-83000000D03*
X146500000Y-97500000D03*
X143325000Y-67162500D03*
X149500000Y-96500000D03*
X146500000Y-96500000D03*
X151500000Y-95500000D03*
X152500000Y-83000000D03*
X150500000Y-85000000D03*
X150500000Y-98500000D03*
X150500000Y-84000000D03*
X148500000Y-95500000D03*
X151500000Y-97500000D03*
X149500000Y-97500000D03*
X149500000Y-98500000D03*
X152500000Y-84000000D03*
X152500000Y-95500000D03*
X151500000Y-84000000D03*
X151500000Y-96500000D03*
X152500000Y-85000000D03*
X149500000Y-95500000D03*
X152500000Y-96500000D03*
X152500000Y-97500000D03*
X151500000Y-83000000D03*
X150500000Y-97500000D03*
X150500000Y-95500000D03*
X152500000Y-98500000D03*
X151500000Y-85000000D03*
X148500000Y-98500000D03*
X148500000Y-97500000D03*
X147500000Y-97500000D03*
X147500000Y-95500000D03*
%TO.N,/BDC Module/_BDC_BOOT*%
X147200000Y-88900000D03*
X153400000Y-87800000D03*
%TD*%
D27*
%TO.N,/BDC Module/BDC_VIN_Fuse*%
X136100000Y-72537500D02*
X136200000Y-72437500D01*
X136100000Y-92500000D02*
X136100000Y-72537500D01*
X137945000Y-72437500D02*
X136200000Y-72437500D01*
X142665000Y-90235000D02*
X142665000Y-89400000D01*
X140400000Y-92500000D02*
X142665000Y-90235000D01*
X136100000Y-92500000D02*
X140400000Y-92500000D01*
%TO.N,/BDC Module/BDC_VIN*%
X133300000Y-89700000D02*
X130000000Y-86400000D01*
X133300000Y-92500000D02*
X133300000Y-89700000D01*
%TO.N,/BDC Module/BDC_VIN_Fuse*%
X130437500Y-72437500D02*
X130000000Y-72000000D01*
X136200000Y-72437500D02*
X130437500Y-72437500D01*
%TO.N,/BDC Module/BDC_VOUT*%
X155200000Y-72000000D02*
X170000000Y-72000000D01*
X154837500Y-72362500D02*
X155200000Y-72000000D01*
X143295000Y-72362500D02*
X154837500Y-72362500D01*
X168475000Y-84875000D02*
X170000000Y-86400000D01*
X162085000Y-84875000D02*
X168475000Y-84875000D01*
D28*
%TO.N,GND*%
X137895000Y-65987500D02*
X137895000Y-67262500D01*
X143300000Y-67137500D02*
X143325000Y-67162500D01*
X143300000Y-65862500D02*
X143300000Y-67137500D01*
%TO.N,/BDC Module/_BDC_BOOT*%
X147745000Y-89445000D02*
X147200000Y-88900000D01*
X153400000Y-87800000D02*
X153400000Y-87070000D01*
D27*
%TO.N,/BDC Module/_BDC_COMP*%
X155470000Y-92645000D02*
X154810000Y-91985000D01*
X157275000Y-94800000D02*
X157275000Y-93005000D01*
X156915000Y-92645000D02*
X155470000Y-92645000D01*
X157275000Y-93005000D02*
X156915000Y-92645000D01*
X154810000Y-91985000D02*
X153690000Y-91985000D01*
%TO.N,Net-(C5-Pad1)*%
X159100000Y-94800000D02*
X159100000Y-93045000D01*
X159100000Y-93045000D02*
X159500000Y-92645000D01*
%TO.N,/BDC Module/_BDC_SS*%
X145465000Y-93255000D02*
X145140000Y-93580000D01*
X148290000Y-93255000D02*
X145465000Y-93255000D01*
%TO.N,/BDC Module/BDC_VOUT*%
X159500000Y-79250000D02*
X157340000Y-79250000D01*
X162085000Y-81835000D02*
X159500000Y-79250000D01*
X162085000Y-84875000D02*
X162085000Y-81835000D01*
X151550000Y-79140000D02*
X151490000Y-79200000D01*
%TO.N,/BDC Module/_BDC_VSENSE*%
X153690000Y-93255000D02*
X156436000Y-96001000D01*
X156436000Y-96001000D02*
X159680502Y-96001000D01*
X162085000Y-88925000D02*
X162085000Y-86700000D01*
X163286000Y-92395502D02*
X163286000Y-90126000D01*
X159680502Y-96001000D02*
X163286000Y-92395502D01*
X163286000Y-90126000D02*
X162085000Y-88925000D01*
%TO.N,Net-(D2-A)*%
X137945000Y-70787500D02*
X137945000Y-68662500D01*
%TO.N,Net-(D3-A)*%
X143295000Y-70712500D02*
X143295000Y-68667500D01*
%TO.N,/BDC Module/BDC_VOUT*%
X157900000Y-78690000D02*
X157340000Y-79250000D01*
%TD*%
%TA.AperFunction,Conductor*%
%TO.N,GND*%
G36*
X161643039Y-90254685D02*
G01*
X161688794Y-90307489D01*
X161700000Y-90359000D01*
X161700000Y-91131000D01*
X161680315Y-91198039D01*
X161627511Y-91243794D01*
X161576000Y-91255000D01*
X156044000Y-91255000D01*
X155976961Y-91235315D01*
X155931206Y-91182511D01*
X155920000Y-91131000D01*
X155920000Y-91005000D01*
X155920000Y-90359000D01*
X155939685Y-90291961D01*
X155992489Y-90246206D01*
X156044000Y-90235000D01*
X161576000Y-90235000D01*
X161643039Y-90254685D01*
G37*
%TD.AperFunction*%
%TD*%
%TA.AperFunction,Conductor*%
%TO.N,GND*%
G36*
X155920000Y-91005000D02*
G01*
X151325000Y-91005000D01*
X151325000Y-90411437D01*
X155920000Y-90392833D01*
X155920000Y-91005000D01*
G37*
%TD.AperFunction*%
%TD*%
%TA.AperFunction,Conductor*%
%TO.N,/BDC Module/BDC_VOUT*%
G36*
X159133039Y-71019685D02*
G01*
X159178794Y-71072489D01*
X159190000Y-71124000D01*
X159190000Y-79726000D01*
X159170315Y-79793039D01*
X159117511Y-79838794D01*
X159066000Y-79850000D01*
X148714000Y-79850000D01*
X148646961Y-79830315D01*
X148601206Y-79777511D01*
X148590000Y-79726000D01*
X148590000Y-71124000D01*
X148609685Y-71056961D01*
X148662489Y-71011206D01*
X148714000Y-71000000D01*
X159066000Y-71000000D01*
X159133039Y-71019685D01*
G37*
%TD.AperFunction*%
%TD*%
%TA.AperFunction,Conductor*%
%TO.N,/BDC Module/BDC_VIN_Fuse*%
G36*
X145758039Y-88774685D02*
G01*
X145803794Y-88827489D01*
X145815000Y-88879000D01*
X145815000Y-90405000D01*
X148890500Y-90405000D01*
X148957539Y-90424685D01*
X149003294Y-90477489D01*
X149014500Y-90529000D01*
X149014500Y-90906000D01*
X148994815Y-90973039D01*
X148942011Y-91018794D01*
X148890500Y-91030000D01*
X142014000Y-91030000D01*
X141946961Y-91010315D01*
X141901206Y-90957511D01*
X141890000Y-90906000D01*
X141890000Y-88879000D01*
X141909685Y-88811961D01*
X141962489Y-88766206D01*
X142014000Y-88755000D01*
X145691000Y-88755000D01*
X145758039Y-88774685D01*
G37*
%TD.AperFunction*%
%TD*%
%TA.AperFunction,Conductor*%
%TO.N,GND*%
G36*
X153191396Y-94948323D02*
G01*
X153258371Y-94968220D01*
X153303958Y-95021170D01*
X153315000Y-95072322D01*
X153315000Y-103636461D01*
X153295315Y-103703500D01*
X153242511Y-103749255D01*
X153191323Y-103760461D01*
X138124323Y-103799676D01*
X138057232Y-103780166D01*
X138011340Y-103727481D01*
X138000000Y-103675676D01*
X138000000Y-95024394D01*
X138019685Y-94957355D01*
X138072489Y-94911600D01*
X138124390Y-94900395D01*
X153191396Y-94948323D01*
G37*
%TD.AperFunction*%
%TD*%
%TA.AperFunction,Conductor*%
%TO.N,GND*%
G36*
X154390576Y-80534685D02*
G01*
X154436331Y-80587489D01*
X154447535Y-80638249D01*
X154475384Y-85233538D01*
X154456106Y-85300695D01*
X154403580Y-85346769D01*
X154350568Y-85358286D01*
X153425000Y-85352176D01*
X153425000Y-85352177D01*
X151300000Y-85338152D01*
X151300000Y-80516499D01*
X151352963Y-80515047D01*
X151353820Y-80515273D01*
X151356362Y-80515000D01*
X154323537Y-80515000D01*
X154390576Y-80534685D01*
G37*
%TD.AperFunction*%
%TD*%
%TA.AperFunction,Conductor*%
%TO.N,/BDC Module/_BDC_PH*%
G36*
X159363039Y-81414685D02*
G01*
X159408794Y-81467489D01*
X159420000Y-81519000D01*
X159420000Y-89605500D01*
X159400315Y-89672539D01*
X159347511Y-89718294D01*
X159296000Y-89729500D01*
X156044000Y-89729500D01*
X156043991Y-89729500D01*
X156043990Y-89729501D01*
X155936549Y-89741052D01*
X155936532Y-89741055D01*
X155931426Y-89742166D01*
X155905068Y-89745000D01*
X153089499Y-89745000D01*
X153022460Y-89725315D01*
X152976705Y-89672511D01*
X152965499Y-89621000D01*
X152965499Y-88849000D01*
X152985184Y-88781961D01*
X153037988Y-88736206D01*
X153089499Y-88725000D01*
X155098219Y-88725000D01*
X155098220Y-88725000D01*
X155131895Y-81518420D01*
X155151893Y-81451474D01*
X155204910Y-81405966D01*
X155255894Y-81395000D01*
X159296000Y-81395000D01*
X159363039Y-81414685D01*
G37*
%TD.AperFunction*%
%TD*%
%TA.AperFunction,Conductor*%
%TO.N,GND*%
G36*
X152460000Y-88844586D02*
G01*
X152459999Y-88848993D01*
X152459999Y-88849000D01*
X152459999Y-88904973D01*
X152459999Y-88922721D01*
X152459999Y-88923081D01*
X152451354Y-88968570D01*
X152424448Y-89036799D01*
X152424447Y-89036800D01*
X152414500Y-89119637D01*
X152414500Y-89770362D01*
X152424447Y-89853199D01*
X152424448Y-89853201D01*
X152434408Y-89878458D01*
X152451354Y-89921430D01*
X152460000Y-89966918D01*
X152460000Y-90406841D01*
X151325000Y-90411437D01*
X151325000Y-91005000D01*
X152460000Y-91005000D01*
X152460000Y-91463078D01*
X152451355Y-91508567D01*
X152424448Y-91576799D01*
X152424447Y-91576800D01*
X152414500Y-91659637D01*
X152414500Y-92310362D01*
X152424447Y-92393199D01*
X152424448Y-92393200D01*
X152451354Y-92461430D01*
X152452681Y-92468410D01*
X152454977Y-92471983D01*
X152460000Y-92506918D01*
X152460000Y-92733078D01*
X152451355Y-92778567D01*
X152424448Y-92846799D01*
X152424447Y-92846800D01*
X152414500Y-92929637D01*
X152414500Y-93580362D01*
X152424447Y-93663199D01*
X152424448Y-93663200D01*
X152451354Y-93731430D01*
X152460000Y-93776918D01*
X152460000Y-94945997D01*
X149510207Y-94936613D01*
X149512051Y-93796867D01*
X149520695Y-93751588D01*
X149555552Y-93663200D01*
X149565500Y-93580362D01*
X149565500Y-92929638D01*
X149555552Y-92846800D01*
X149522444Y-92762844D01*
X149521100Y-92755742D01*
X149518765Y-92752096D01*
X149513799Y-92717161D01*
X149514115Y-92521635D01*
X149522758Y-92476357D01*
X149555552Y-92393200D01*
X149565500Y-92310362D01*
X149565500Y-91659638D01*
X149555552Y-91576800D01*
X149524489Y-91498031D01*
X149523146Y-91490931D01*
X149520811Y-91487285D01*
X149515845Y-91452353D01*
X149516178Y-91246399D01*
X149524821Y-91201127D01*
X149555552Y-91123200D01*
X149565500Y-91040362D01*
X149565500Y-90389638D01*
X149555552Y-90306800D01*
X149530430Y-90243095D01*
X149526536Y-90233220D01*
X149525192Y-90226118D01*
X149522858Y-90222473D01*
X149517892Y-90187538D01*
X149518242Y-89971171D01*
X149526887Y-89925888D01*
X149528647Y-89921427D01*
X149555552Y-89853200D01*
X149565500Y-89770362D01*
X149565500Y-89119638D01*
X149555552Y-89036800D01*
X149528582Y-88968410D01*
X149519938Y-88922730D01*
X149521365Y-88040892D01*
X152460000Y-88034229D01*
X152460000Y-88844586D01*
G37*
%TD.AperFunction*%
%TD*%
%TA.AperFunction,Conductor*%
%TO.N,GND*%
G36*
X151300000Y-85338152D02*
G01*
X153425000Y-85352177D01*
X153425000Y-85369621D01*
X153405315Y-85436660D01*
X153352511Y-85482415D01*
X153340005Y-85487327D01*
X153210666Y-85530186D01*
X153210663Y-85530187D01*
X153061342Y-85622289D01*
X152937289Y-85746342D01*
X152845187Y-85895663D01*
X152845186Y-85895666D01*
X152790001Y-86062203D01*
X152790001Y-86062204D01*
X152790000Y-86062204D01*
X152779500Y-86164983D01*
X152779500Y-87215001D01*
X152779502Y-87215021D01*
X152781414Y-87233740D01*
X152768644Y-87302432D01*
X152761158Y-87315231D01*
X152690609Y-87420814D01*
X152690602Y-87420827D01*
X152630264Y-87566498D01*
X152630261Y-87566510D01*
X152599500Y-87721153D01*
X152599500Y-87878843D01*
X152600923Y-87885999D01*
X152594691Y-87955591D01*
X152551825Y-88010766D01*
X152485934Y-88034007D01*
X152479587Y-88034184D01*
X152460000Y-88034228D01*
X152460000Y-88034229D01*
X149521364Y-88040892D01*
X137824281Y-88067417D01*
X137757197Y-88047884D01*
X137711323Y-87995184D01*
X137700000Y-87943417D01*
X137700000Y-80644000D01*
X137719685Y-80576961D01*
X137772489Y-80531206D01*
X137824000Y-80520000D01*
X151300000Y-80520000D01*
X151300000Y-85338152D01*
G37*
%TD.AperFunction*%
%TD*%
M02*
