%TF.GenerationSoftware,KiCad,Pcbnew,9.0.3*%
%TF.CreationDate,2025-09-19T13:58:25-05:00*%
%TF.ProjectId,galaxsea_26_pdb,67616c61-7873-4656-915f-32365f706462,rev?*%
%TF.SameCoordinates,Original*%
%TF.FileFunction,Legend,Top*%
%TF.FilePolarity,Positive*%
%FSLAX46Y46*%
G04 Gerber Fmt 4.6, Leading zero omitted, Abs format (unit mm)*
G04 Created by KiCad (PCBNEW 9.0.3) date 2025-09-19 13:58:25*
%MOMM*%
%LPD*%
G01*
G04 APERTURE LIST*
%ADD10C,0.187500*%
%ADD11C,0.100000*%
%ADD12C,0.150000*%
%ADD13C,0.120000*%
%ADD14C,0.127000*%
%ADD15C,0.200000*%
%ADD16C,0.000000*%
G04 APERTURE END LIST*
D10*
X168238095Y-91352869D02*
X168571428Y-92352869D01*
X168571428Y-92352869D02*
X168904761Y-91352869D01*
X169428571Y-91352869D02*
X169619047Y-91352869D01*
X169619047Y-91352869D02*
X169714285Y-91400488D01*
X169714285Y-91400488D02*
X169809523Y-91495726D01*
X169809523Y-91495726D02*
X169857142Y-91686202D01*
X169857142Y-91686202D02*
X169857142Y-92019535D01*
X169857142Y-92019535D02*
X169809523Y-92210011D01*
X169809523Y-92210011D02*
X169714285Y-92305250D01*
X169714285Y-92305250D02*
X169619047Y-92352869D01*
X169619047Y-92352869D02*
X169428571Y-92352869D01*
X169428571Y-92352869D02*
X169333333Y-92305250D01*
X169333333Y-92305250D02*
X169238095Y-92210011D01*
X169238095Y-92210011D02*
X169190476Y-92019535D01*
X169190476Y-92019535D02*
X169190476Y-91686202D01*
X169190476Y-91686202D02*
X169238095Y-91495726D01*
X169238095Y-91495726D02*
X169333333Y-91400488D01*
X169333333Y-91400488D02*
X169428571Y-91352869D01*
X170285714Y-91352869D02*
X170285714Y-92162392D01*
X170285714Y-92162392D02*
X170333333Y-92257630D01*
X170333333Y-92257630D02*
X170380952Y-92305250D01*
X170380952Y-92305250D02*
X170476190Y-92352869D01*
X170476190Y-92352869D02*
X170666666Y-92352869D01*
X170666666Y-92352869D02*
X170761904Y-92305250D01*
X170761904Y-92305250D02*
X170809523Y-92257630D01*
X170809523Y-92257630D02*
X170857142Y-92162392D01*
X170857142Y-92162392D02*
X170857142Y-91352869D01*
X171190476Y-91352869D02*
X171761904Y-91352869D01*
X171476190Y-92352869D02*
X171476190Y-91352869D01*
X128904762Y-91252869D02*
X129238095Y-92252869D01*
X129238095Y-92252869D02*
X129571428Y-91252869D01*
X129904762Y-92252869D02*
X129904762Y-91252869D01*
X130380952Y-92252869D02*
X130380952Y-91252869D01*
X130380952Y-91252869D02*
X130952380Y-92252869D01*
X130952380Y-92252869D02*
X130952380Y-91252869D01*
X141738095Y-63652869D02*
X142071428Y-64652869D01*
X142071428Y-64652869D02*
X142404761Y-63652869D01*
X142928571Y-63652869D02*
X143119047Y-63652869D01*
X143119047Y-63652869D02*
X143214285Y-63700488D01*
X143214285Y-63700488D02*
X143309523Y-63795726D01*
X143309523Y-63795726D02*
X143357142Y-63986202D01*
X143357142Y-63986202D02*
X143357142Y-64319535D01*
X143357142Y-64319535D02*
X143309523Y-64510011D01*
X143309523Y-64510011D02*
X143214285Y-64605250D01*
X143214285Y-64605250D02*
X143119047Y-64652869D01*
X143119047Y-64652869D02*
X142928571Y-64652869D01*
X142928571Y-64652869D02*
X142833333Y-64605250D01*
X142833333Y-64605250D02*
X142738095Y-64510011D01*
X142738095Y-64510011D02*
X142690476Y-64319535D01*
X142690476Y-64319535D02*
X142690476Y-63986202D01*
X142690476Y-63986202D02*
X142738095Y-63795726D01*
X142738095Y-63795726D02*
X142833333Y-63700488D01*
X142833333Y-63700488D02*
X142928571Y-63652869D01*
X143785714Y-63652869D02*
X143785714Y-64462392D01*
X143785714Y-64462392D02*
X143833333Y-64557630D01*
X143833333Y-64557630D02*
X143880952Y-64605250D01*
X143880952Y-64605250D02*
X143976190Y-64652869D01*
X143976190Y-64652869D02*
X144166666Y-64652869D01*
X144166666Y-64652869D02*
X144261904Y-64605250D01*
X144261904Y-64605250D02*
X144309523Y-64557630D01*
X144309523Y-64557630D02*
X144357142Y-64462392D01*
X144357142Y-64462392D02*
X144357142Y-63652869D01*
X144690476Y-63652869D02*
X145261904Y-63652869D01*
X144976190Y-64652869D02*
X144976190Y-63652869D01*
X136904762Y-63715369D02*
X137238095Y-64715369D01*
X137238095Y-64715369D02*
X137571428Y-63715369D01*
X137904762Y-64715369D02*
X137904762Y-63715369D01*
X138380952Y-64715369D02*
X138380952Y-63715369D01*
X138380952Y-63715369D02*
X138952380Y-64715369D01*
X138952380Y-64715369D02*
X138952380Y-63715369D01*
D11*
X143641979Y-102520985D02*
X144099122Y-102520985D01*
X143870550Y-103320985D02*
X143870550Y-102520985D01*
X144365789Y-103320985D02*
X144365789Y-102520985D01*
X144365789Y-102520985D02*
X144670551Y-102520985D01*
X144670551Y-102520985D02*
X144746741Y-102559080D01*
X144746741Y-102559080D02*
X144784836Y-102597175D01*
X144784836Y-102597175D02*
X144822932Y-102673366D01*
X144822932Y-102673366D02*
X144822932Y-102787651D01*
X144822932Y-102787651D02*
X144784836Y-102863842D01*
X144784836Y-102863842D02*
X144746741Y-102901937D01*
X144746741Y-102901937D02*
X144670551Y-102940032D01*
X144670551Y-102940032D02*
X144365789Y-102940032D01*
X145127693Y-103282890D02*
X145241979Y-103320985D01*
X145241979Y-103320985D02*
X145432455Y-103320985D01*
X145432455Y-103320985D02*
X145508646Y-103282890D01*
X145508646Y-103282890D02*
X145546741Y-103244794D01*
X145546741Y-103244794D02*
X145584836Y-103168604D01*
X145584836Y-103168604D02*
X145584836Y-103092413D01*
X145584836Y-103092413D02*
X145546741Y-103016223D01*
X145546741Y-103016223D02*
X145508646Y-102978128D01*
X145508646Y-102978128D02*
X145432455Y-102940032D01*
X145432455Y-102940032D02*
X145280074Y-102901937D01*
X145280074Y-102901937D02*
X145203884Y-102863842D01*
X145203884Y-102863842D02*
X145165789Y-102825747D01*
X145165789Y-102825747D02*
X145127693Y-102749556D01*
X145127693Y-102749556D02*
X145127693Y-102673366D01*
X145127693Y-102673366D02*
X145165789Y-102597175D01*
X145165789Y-102597175D02*
X145203884Y-102559080D01*
X145203884Y-102559080D02*
X145280074Y-102520985D01*
X145280074Y-102520985D02*
X145470551Y-102520985D01*
X145470551Y-102520985D02*
X145584836Y-102559080D01*
X146308646Y-102520985D02*
X145927694Y-102520985D01*
X145927694Y-102520985D02*
X145889598Y-102901937D01*
X145889598Y-102901937D02*
X145927694Y-102863842D01*
X145927694Y-102863842D02*
X146003884Y-102825747D01*
X146003884Y-102825747D02*
X146194360Y-102825747D01*
X146194360Y-102825747D02*
X146270551Y-102863842D01*
X146270551Y-102863842D02*
X146308646Y-102901937D01*
X146308646Y-102901937D02*
X146346741Y-102978128D01*
X146346741Y-102978128D02*
X146346741Y-103168604D01*
X146346741Y-103168604D02*
X146308646Y-103244794D01*
X146308646Y-103244794D02*
X146270551Y-103282890D01*
X146270551Y-103282890D02*
X146194360Y-103320985D01*
X146194360Y-103320985D02*
X146003884Y-103320985D01*
X146003884Y-103320985D02*
X145927694Y-103282890D01*
X145927694Y-103282890D02*
X145889598Y-103244794D01*
X147032456Y-102787651D02*
X147032456Y-103320985D01*
X146841980Y-102482890D02*
X146651503Y-103054318D01*
X146651503Y-103054318D02*
X147146742Y-103054318D01*
X147832456Y-102520985D02*
X147451504Y-102520985D01*
X147451504Y-102520985D02*
X147413408Y-102901937D01*
X147413408Y-102901937D02*
X147451504Y-102863842D01*
X147451504Y-102863842D02*
X147527694Y-102825747D01*
X147527694Y-102825747D02*
X147718170Y-102825747D01*
X147718170Y-102825747D02*
X147794361Y-102863842D01*
X147794361Y-102863842D02*
X147832456Y-102901937D01*
X147832456Y-102901937D02*
X147870551Y-102978128D01*
X147870551Y-102978128D02*
X147870551Y-103168604D01*
X147870551Y-103168604D02*
X147832456Y-103244794D01*
X147832456Y-103244794D02*
X147794361Y-103282890D01*
X147794361Y-103282890D02*
X147718170Y-103320985D01*
X147718170Y-103320985D02*
X147527694Y-103320985D01*
X147527694Y-103320985D02*
X147451504Y-103282890D01*
X147451504Y-103282890D02*
X147413408Y-103244794D01*
X148137218Y-102520985D02*
X148632456Y-102520985D01*
X148632456Y-102520985D02*
X148365790Y-102825747D01*
X148365790Y-102825747D02*
X148480075Y-102825747D01*
X148480075Y-102825747D02*
X148556266Y-102863842D01*
X148556266Y-102863842D02*
X148594361Y-102901937D01*
X148594361Y-102901937D02*
X148632456Y-102978128D01*
X148632456Y-102978128D02*
X148632456Y-103168604D01*
X148632456Y-103168604D02*
X148594361Y-103244794D01*
X148594361Y-103244794D02*
X148556266Y-103282890D01*
X148556266Y-103282890D02*
X148480075Y-103320985D01*
X148480075Y-103320985D02*
X148251504Y-103320985D01*
X148251504Y-103320985D02*
X148175313Y-103282890D01*
X148175313Y-103282890D02*
X148137218Y-103244794D01*
X149394361Y-103320985D02*
X148937218Y-103320985D01*
X149165790Y-103320985D02*
X149165790Y-102520985D01*
X149165790Y-102520985D02*
X149089599Y-102635270D01*
X149089599Y-102635270D02*
X149013409Y-102711461D01*
X149013409Y-102711461D02*
X148937218Y-102749556D01*
X149737219Y-103320985D02*
X149737219Y-102520985D01*
X149737219Y-102520985D02*
X149927695Y-102520985D01*
X149927695Y-102520985D02*
X150041981Y-102559080D01*
X150041981Y-102559080D02*
X150118171Y-102635270D01*
X150118171Y-102635270D02*
X150156266Y-102711461D01*
X150156266Y-102711461D02*
X150194362Y-102863842D01*
X150194362Y-102863842D02*
X150194362Y-102978128D01*
X150194362Y-102978128D02*
X150156266Y-103130509D01*
X150156266Y-103130509D02*
X150118171Y-103206699D01*
X150118171Y-103206699D02*
X150041981Y-103282890D01*
X150041981Y-103282890D02*
X149927695Y-103320985D01*
X149927695Y-103320985D02*
X149737219Y-103320985D01*
X150537219Y-103320985D02*
X150537219Y-102520985D01*
X150537219Y-102520985D02*
X150727695Y-102520985D01*
X150727695Y-102520985D02*
X150841981Y-102559080D01*
X150841981Y-102559080D02*
X150918171Y-102635270D01*
X150918171Y-102635270D02*
X150956266Y-102711461D01*
X150956266Y-102711461D02*
X150994362Y-102863842D01*
X150994362Y-102863842D02*
X150994362Y-102978128D01*
X150994362Y-102978128D02*
X150956266Y-103130509D01*
X150956266Y-103130509D02*
X150918171Y-103206699D01*
X150918171Y-103206699D02*
X150841981Y-103282890D01*
X150841981Y-103282890D02*
X150727695Y-103320985D01*
X150727695Y-103320985D02*
X150537219Y-103320985D01*
X151299123Y-103092413D02*
X151680076Y-103092413D01*
X151222933Y-103320985D02*
X151489600Y-102520985D01*
X151489600Y-102520985D02*
X151756266Y-103320985D01*
X152518171Y-102520985D02*
X152975314Y-102520985D01*
X152746742Y-103320985D02*
X152746742Y-102520985D01*
X153546743Y-103282890D02*
X153470552Y-103320985D01*
X153470552Y-103320985D02*
X153318171Y-103320985D01*
X153318171Y-103320985D02*
X153241981Y-103282890D01*
X153241981Y-103282890D02*
X153203885Y-103206699D01*
X153203885Y-103206699D02*
X153203885Y-102901937D01*
X153203885Y-102901937D02*
X153241981Y-102825747D01*
X153241981Y-102825747D02*
X153318171Y-102787651D01*
X153318171Y-102787651D02*
X153470552Y-102787651D01*
X153470552Y-102787651D02*
X153546743Y-102825747D01*
X153546743Y-102825747D02*
X153584838Y-102901937D01*
X153584838Y-102901937D02*
X153584838Y-102978128D01*
X153584838Y-102978128D02*
X153203885Y-103054318D01*
X153889599Y-103282890D02*
X153965790Y-103320985D01*
X153965790Y-103320985D02*
X154118171Y-103320985D01*
X154118171Y-103320985D02*
X154194361Y-103282890D01*
X154194361Y-103282890D02*
X154232457Y-103206699D01*
X154232457Y-103206699D02*
X154232457Y-103168604D01*
X154232457Y-103168604D02*
X154194361Y-103092413D01*
X154194361Y-103092413D02*
X154118171Y-103054318D01*
X154118171Y-103054318D02*
X154003885Y-103054318D01*
X154003885Y-103054318D02*
X153927695Y-103016223D01*
X153927695Y-103016223D02*
X153889599Y-102940032D01*
X153889599Y-102940032D02*
X153889599Y-102901937D01*
X153889599Y-102901937D02*
X153927695Y-102825747D01*
X153927695Y-102825747D02*
X154003885Y-102787651D01*
X154003885Y-102787651D02*
X154118171Y-102787651D01*
X154118171Y-102787651D02*
X154194361Y-102825747D01*
X154461028Y-102787651D02*
X154765790Y-102787651D01*
X154575314Y-102520985D02*
X154575314Y-103206699D01*
X154575314Y-103206699D02*
X154613409Y-103282890D01*
X154613409Y-103282890D02*
X154689599Y-103320985D01*
X154689599Y-103320985D02*
X154765790Y-103320985D01*
X155641981Y-103320985D02*
X155641981Y-102520985D01*
X155641981Y-102520985D02*
X155908647Y-103092413D01*
X155908647Y-103092413D02*
X156175314Y-102520985D01*
X156175314Y-102520985D02*
X156175314Y-103320985D01*
X156670552Y-103320985D02*
X156594362Y-103282890D01*
X156594362Y-103282890D02*
X156556267Y-103244794D01*
X156556267Y-103244794D02*
X156518171Y-103168604D01*
X156518171Y-103168604D02*
X156518171Y-102940032D01*
X156518171Y-102940032D02*
X156556267Y-102863842D01*
X156556267Y-102863842D02*
X156594362Y-102825747D01*
X156594362Y-102825747D02*
X156670552Y-102787651D01*
X156670552Y-102787651D02*
X156784838Y-102787651D01*
X156784838Y-102787651D02*
X156861029Y-102825747D01*
X156861029Y-102825747D02*
X156899124Y-102863842D01*
X156899124Y-102863842D02*
X156937219Y-102940032D01*
X156937219Y-102940032D02*
X156937219Y-103168604D01*
X156937219Y-103168604D02*
X156899124Y-103244794D01*
X156899124Y-103244794D02*
X156861029Y-103282890D01*
X156861029Y-103282890D02*
X156784838Y-103320985D01*
X156784838Y-103320985D02*
X156670552Y-103320985D01*
X157622934Y-103320985D02*
X157622934Y-102520985D01*
X157622934Y-103282890D02*
X157546743Y-103320985D01*
X157546743Y-103320985D02*
X157394362Y-103320985D01*
X157394362Y-103320985D02*
X157318172Y-103282890D01*
X157318172Y-103282890D02*
X157280077Y-103244794D01*
X157280077Y-103244794D02*
X157241981Y-103168604D01*
X157241981Y-103168604D02*
X157241981Y-102940032D01*
X157241981Y-102940032D02*
X157280077Y-102863842D01*
X157280077Y-102863842D02*
X157318172Y-102825747D01*
X157318172Y-102825747D02*
X157394362Y-102787651D01*
X157394362Y-102787651D02*
X157546743Y-102787651D01*
X157546743Y-102787651D02*
X157622934Y-102825747D01*
X158346744Y-102787651D02*
X158346744Y-103320985D01*
X158003887Y-102787651D02*
X158003887Y-103206699D01*
X158003887Y-103206699D02*
X158041982Y-103282890D01*
X158041982Y-103282890D02*
X158118172Y-103320985D01*
X158118172Y-103320985D02*
X158232458Y-103320985D01*
X158232458Y-103320985D02*
X158308649Y-103282890D01*
X158308649Y-103282890D02*
X158346744Y-103244794D01*
X158841982Y-103320985D02*
X158765792Y-103282890D01*
X158765792Y-103282890D02*
X158727697Y-103206699D01*
X158727697Y-103206699D02*
X158727697Y-102520985D01*
X159451507Y-103282890D02*
X159375316Y-103320985D01*
X159375316Y-103320985D02*
X159222935Y-103320985D01*
X159222935Y-103320985D02*
X159146745Y-103282890D01*
X159146745Y-103282890D02*
X159108649Y-103206699D01*
X159108649Y-103206699D02*
X159108649Y-102901937D01*
X159108649Y-102901937D02*
X159146745Y-102825747D01*
X159146745Y-102825747D02*
X159222935Y-102787651D01*
X159222935Y-102787651D02*
X159375316Y-102787651D01*
X159375316Y-102787651D02*
X159451507Y-102825747D01*
X159451507Y-102825747D02*
X159489602Y-102901937D01*
X159489602Y-102901937D02*
X159489602Y-102978128D01*
X159489602Y-102978128D02*
X159108649Y-103054318D01*
X160403887Y-102520985D02*
X160403887Y-102673366D01*
X160708649Y-102520985D02*
X160708649Y-102673366D01*
X161013411Y-103282890D02*
X161127697Y-103320985D01*
X161127697Y-103320985D02*
X161318173Y-103320985D01*
X161318173Y-103320985D02*
X161394364Y-103282890D01*
X161394364Y-103282890D02*
X161432459Y-103244794D01*
X161432459Y-103244794D02*
X161470554Y-103168604D01*
X161470554Y-103168604D02*
X161470554Y-103092413D01*
X161470554Y-103092413D02*
X161432459Y-103016223D01*
X161432459Y-103016223D02*
X161394364Y-102978128D01*
X161394364Y-102978128D02*
X161318173Y-102940032D01*
X161318173Y-102940032D02*
X161165792Y-102901937D01*
X161165792Y-102901937D02*
X161089602Y-102863842D01*
X161089602Y-102863842D02*
X161051507Y-102825747D01*
X161051507Y-102825747D02*
X161013411Y-102749556D01*
X161013411Y-102749556D02*
X161013411Y-102673366D01*
X161013411Y-102673366D02*
X161051507Y-102597175D01*
X161051507Y-102597175D02*
X161089602Y-102559080D01*
X161089602Y-102559080D02*
X161165792Y-102520985D01*
X161165792Y-102520985D02*
X161356269Y-102520985D01*
X161356269Y-102520985D02*
X161470554Y-102559080D01*
X161699126Y-102787651D02*
X162003888Y-102787651D01*
X161813412Y-102520985D02*
X161813412Y-103206699D01*
X161813412Y-103206699D02*
X161851507Y-103282890D01*
X161851507Y-103282890D02*
X161927697Y-103320985D01*
X161927697Y-103320985D02*
X162003888Y-103320985D01*
X162613412Y-103320985D02*
X162613412Y-102901937D01*
X162613412Y-102901937D02*
X162575317Y-102825747D01*
X162575317Y-102825747D02*
X162499126Y-102787651D01*
X162499126Y-102787651D02*
X162346745Y-102787651D01*
X162346745Y-102787651D02*
X162270555Y-102825747D01*
X162613412Y-103282890D02*
X162537221Y-103320985D01*
X162537221Y-103320985D02*
X162346745Y-103320985D01*
X162346745Y-103320985D02*
X162270555Y-103282890D01*
X162270555Y-103282890D02*
X162232459Y-103206699D01*
X162232459Y-103206699D02*
X162232459Y-103130509D01*
X162232459Y-103130509D02*
X162270555Y-103054318D01*
X162270555Y-103054318D02*
X162346745Y-103016223D01*
X162346745Y-103016223D02*
X162537221Y-103016223D01*
X162537221Y-103016223D02*
X162613412Y-102978128D01*
X162994365Y-103320985D02*
X162994365Y-102787651D01*
X162994365Y-102940032D02*
X163032460Y-102863842D01*
X163032460Y-102863842D02*
X163070555Y-102825747D01*
X163070555Y-102825747D02*
X163146746Y-102787651D01*
X163146746Y-102787651D02*
X163222936Y-102787651D01*
X163489603Y-103320985D02*
X163489603Y-102520985D01*
X163565793Y-103016223D02*
X163794365Y-103320985D01*
X163794365Y-102787651D02*
X163489603Y-103092413D01*
X164099126Y-102520985D02*
X164099126Y-102673366D01*
X164403888Y-102520985D02*
X164403888Y-102673366D01*
X143756265Y-104608940D02*
X143756265Y-103808940D01*
X143756265Y-103808940D02*
X144213408Y-104608940D01*
X144213408Y-104608940D02*
X144213408Y-103808940D01*
X144937217Y-104608940D02*
X144937217Y-104189892D01*
X144937217Y-104189892D02*
X144899122Y-104113702D01*
X144899122Y-104113702D02*
X144822931Y-104075606D01*
X144822931Y-104075606D02*
X144670550Y-104075606D01*
X144670550Y-104075606D02*
X144594360Y-104113702D01*
X144937217Y-104570845D02*
X144861026Y-104608940D01*
X144861026Y-104608940D02*
X144670550Y-104608940D01*
X144670550Y-104608940D02*
X144594360Y-104570845D01*
X144594360Y-104570845D02*
X144556264Y-104494654D01*
X144556264Y-104494654D02*
X144556264Y-104418464D01*
X144556264Y-104418464D02*
X144594360Y-104342273D01*
X144594360Y-104342273D02*
X144670550Y-104304178D01*
X144670550Y-104304178D02*
X144861026Y-104304178D01*
X144861026Y-104304178D02*
X144937217Y-104266083D01*
X145203884Y-104075606D02*
X145508646Y-104075606D01*
X145318170Y-103808940D02*
X145318170Y-104494654D01*
X145318170Y-104494654D02*
X145356265Y-104570845D01*
X145356265Y-104570845D02*
X145432455Y-104608940D01*
X145432455Y-104608940D02*
X145508646Y-104608940D01*
X145775313Y-104608940D02*
X145775313Y-103808940D01*
X146118170Y-104608940D02*
X146118170Y-104189892D01*
X146118170Y-104189892D02*
X146080075Y-104113702D01*
X146080075Y-104113702D02*
X146003884Y-104075606D01*
X146003884Y-104075606D02*
X145889598Y-104075606D01*
X145889598Y-104075606D02*
X145813408Y-104113702D01*
X145813408Y-104113702D02*
X145775313Y-104151797D01*
X146841980Y-104608940D02*
X146841980Y-104189892D01*
X146841980Y-104189892D02*
X146803885Y-104113702D01*
X146803885Y-104113702D02*
X146727694Y-104075606D01*
X146727694Y-104075606D02*
X146575313Y-104075606D01*
X146575313Y-104075606D02*
X146499123Y-104113702D01*
X146841980Y-104570845D02*
X146765789Y-104608940D01*
X146765789Y-104608940D02*
X146575313Y-104608940D01*
X146575313Y-104608940D02*
X146499123Y-104570845D01*
X146499123Y-104570845D02*
X146461027Y-104494654D01*
X146461027Y-104494654D02*
X146461027Y-104418464D01*
X146461027Y-104418464D02*
X146499123Y-104342273D01*
X146499123Y-104342273D02*
X146575313Y-104304178D01*
X146575313Y-104304178D02*
X146765789Y-104304178D01*
X146765789Y-104304178D02*
X146841980Y-104266083D01*
X147222933Y-104075606D02*
X147222933Y-104608940D01*
X147222933Y-104151797D02*
X147261028Y-104113702D01*
X147261028Y-104113702D02*
X147337218Y-104075606D01*
X147337218Y-104075606D02*
X147451504Y-104075606D01*
X147451504Y-104075606D02*
X147527695Y-104113702D01*
X147527695Y-104113702D02*
X147565790Y-104189892D01*
X147565790Y-104189892D02*
X147565790Y-104608940D01*
X148480076Y-103808940D02*
X148670552Y-104608940D01*
X148670552Y-104608940D02*
X148822933Y-104037511D01*
X148822933Y-104037511D02*
X148975314Y-104608940D01*
X148975314Y-104608940D02*
X149165791Y-103808940D01*
X149470553Y-104608940D02*
X149470553Y-104075606D01*
X149470553Y-103808940D02*
X149432457Y-103847035D01*
X149432457Y-103847035D02*
X149470553Y-103885130D01*
X149470553Y-103885130D02*
X149508648Y-103847035D01*
X149508648Y-103847035D02*
X149470553Y-103808940D01*
X149470553Y-103808940D02*
X149470553Y-103885130D01*
X150194362Y-104075606D02*
X150194362Y-104723225D01*
X150194362Y-104723225D02*
X150156267Y-104799416D01*
X150156267Y-104799416D02*
X150118171Y-104837511D01*
X150118171Y-104837511D02*
X150041981Y-104875606D01*
X150041981Y-104875606D02*
X149927695Y-104875606D01*
X149927695Y-104875606D02*
X149851505Y-104837511D01*
X150194362Y-104570845D02*
X150118171Y-104608940D01*
X150118171Y-104608940D02*
X149965790Y-104608940D01*
X149965790Y-104608940D02*
X149889600Y-104570845D01*
X149889600Y-104570845D02*
X149851505Y-104532749D01*
X149851505Y-104532749D02*
X149813409Y-104456559D01*
X149813409Y-104456559D02*
X149813409Y-104227987D01*
X149813409Y-104227987D02*
X149851505Y-104151797D01*
X149851505Y-104151797D02*
X149889600Y-104113702D01*
X149889600Y-104113702D02*
X149965790Y-104075606D01*
X149965790Y-104075606D02*
X150118171Y-104075606D01*
X150118171Y-104075606D02*
X150194362Y-104113702D01*
X150575315Y-104075606D02*
X150575315Y-104608940D01*
X150575315Y-104151797D02*
X150613410Y-104113702D01*
X150613410Y-104113702D02*
X150689600Y-104075606D01*
X150689600Y-104075606D02*
X150803886Y-104075606D01*
X150803886Y-104075606D02*
X150880077Y-104113702D01*
X150880077Y-104113702D02*
X150918172Y-104189892D01*
X150918172Y-104189892D02*
X150918172Y-104608940D01*
X151641982Y-104608940D02*
X151641982Y-104189892D01*
X151641982Y-104189892D02*
X151603887Y-104113702D01*
X151603887Y-104113702D02*
X151527696Y-104075606D01*
X151527696Y-104075606D02*
X151375315Y-104075606D01*
X151375315Y-104075606D02*
X151299125Y-104113702D01*
X151641982Y-104570845D02*
X151565791Y-104608940D01*
X151565791Y-104608940D02*
X151375315Y-104608940D01*
X151375315Y-104608940D02*
X151299125Y-104570845D01*
X151299125Y-104570845D02*
X151261029Y-104494654D01*
X151261029Y-104494654D02*
X151261029Y-104418464D01*
X151261029Y-104418464D02*
X151299125Y-104342273D01*
X151299125Y-104342273D02*
X151375315Y-104304178D01*
X151375315Y-104304178D02*
X151565791Y-104304178D01*
X151565791Y-104304178D02*
X151641982Y-104266083D01*
X152137220Y-104608940D02*
X152061030Y-104570845D01*
X152061030Y-104570845D02*
X152022935Y-104494654D01*
X152022935Y-104494654D02*
X152022935Y-103808940D01*
X152556268Y-104608940D02*
X152480078Y-104570845D01*
X152480078Y-104570845D02*
X152441983Y-104494654D01*
X152441983Y-104494654D02*
X152441983Y-103808940D01*
X143718169Y-105173085D02*
X143756265Y-105134990D01*
X143756265Y-105134990D02*
X143832455Y-105096895D01*
X143832455Y-105096895D02*
X144022931Y-105096895D01*
X144022931Y-105096895D02*
X144099122Y-105134990D01*
X144099122Y-105134990D02*
X144137217Y-105173085D01*
X144137217Y-105173085D02*
X144175312Y-105249276D01*
X144175312Y-105249276D02*
X144175312Y-105325466D01*
X144175312Y-105325466D02*
X144137217Y-105439752D01*
X144137217Y-105439752D02*
X143680074Y-105896895D01*
X143680074Y-105896895D02*
X144175312Y-105896895D01*
X144670551Y-105096895D02*
X144746741Y-105096895D01*
X144746741Y-105096895D02*
X144822932Y-105134990D01*
X144822932Y-105134990D02*
X144861027Y-105173085D01*
X144861027Y-105173085D02*
X144899122Y-105249276D01*
X144899122Y-105249276D02*
X144937217Y-105401657D01*
X144937217Y-105401657D02*
X144937217Y-105592133D01*
X144937217Y-105592133D02*
X144899122Y-105744514D01*
X144899122Y-105744514D02*
X144861027Y-105820704D01*
X144861027Y-105820704D02*
X144822932Y-105858800D01*
X144822932Y-105858800D02*
X144746741Y-105896895D01*
X144746741Y-105896895D02*
X144670551Y-105896895D01*
X144670551Y-105896895D02*
X144594360Y-105858800D01*
X144594360Y-105858800D02*
X144556265Y-105820704D01*
X144556265Y-105820704D02*
X144518170Y-105744514D01*
X144518170Y-105744514D02*
X144480074Y-105592133D01*
X144480074Y-105592133D02*
X144480074Y-105401657D01*
X144480074Y-105401657D02*
X144518170Y-105249276D01*
X144518170Y-105249276D02*
X144556265Y-105173085D01*
X144556265Y-105173085D02*
X144594360Y-105134990D01*
X144594360Y-105134990D02*
X144670551Y-105096895D01*
X145241979Y-105173085D02*
X145280075Y-105134990D01*
X145280075Y-105134990D02*
X145356265Y-105096895D01*
X145356265Y-105096895D02*
X145546741Y-105096895D01*
X145546741Y-105096895D02*
X145622932Y-105134990D01*
X145622932Y-105134990D02*
X145661027Y-105173085D01*
X145661027Y-105173085D02*
X145699122Y-105249276D01*
X145699122Y-105249276D02*
X145699122Y-105325466D01*
X145699122Y-105325466D02*
X145661027Y-105439752D01*
X145661027Y-105439752D02*
X145203884Y-105896895D01*
X145203884Y-105896895D02*
X145699122Y-105896895D01*
X146422932Y-105096895D02*
X146041980Y-105096895D01*
X146041980Y-105096895D02*
X146003884Y-105477847D01*
X146003884Y-105477847D02*
X146041980Y-105439752D01*
X146041980Y-105439752D02*
X146118170Y-105401657D01*
X146118170Y-105401657D02*
X146308646Y-105401657D01*
X146308646Y-105401657D02*
X146384837Y-105439752D01*
X146384837Y-105439752D02*
X146422932Y-105477847D01*
X146422932Y-105477847D02*
X146461027Y-105554038D01*
X146461027Y-105554038D02*
X146461027Y-105744514D01*
X146461027Y-105744514D02*
X146422932Y-105820704D01*
X146422932Y-105820704D02*
X146384837Y-105858800D01*
X146384837Y-105858800D02*
X146308646Y-105896895D01*
X146308646Y-105896895D02*
X146118170Y-105896895D01*
X146118170Y-105896895D02*
X146041980Y-105858800D01*
X146041980Y-105858800D02*
X146003884Y-105820704D01*
X146803885Y-105592133D02*
X147413409Y-105592133D01*
X147946742Y-105096895D02*
X148022932Y-105096895D01*
X148022932Y-105096895D02*
X148099123Y-105134990D01*
X148099123Y-105134990D02*
X148137218Y-105173085D01*
X148137218Y-105173085D02*
X148175313Y-105249276D01*
X148175313Y-105249276D02*
X148213408Y-105401657D01*
X148213408Y-105401657D02*
X148213408Y-105592133D01*
X148213408Y-105592133D02*
X148175313Y-105744514D01*
X148175313Y-105744514D02*
X148137218Y-105820704D01*
X148137218Y-105820704D02*
X148099123Y-105858800D01*
X148099123Y-105858800D02*
X148022932Y-105896895D01*
X148022932Y-105896895D02*
X147946742Y-105896895D01*
X147946742Y-105896895D02*
X147870551Y-105858800D01*
X147870551Y-105858800D02*
X147832456Y-105820704D01*
X147832456Y-105820704D02*
X147794361Y-105744514D01*
X147794361Y-105744514D02*
X147756265Y-105592133D01*
X147756265Y-105592133D02*
X147756265Y-105401657D01*
X147756265Y-105401657D02*
X147794361Y-105249276D01*
X147794361Y-105249276D02*
X147832456Y-105173085D01*
X147832456Y-105173085D02*
X147870551Y-105134990D01*
X147870551Y-105134990D02*
X147946742Y-105096895D01*
X148594361Y-105896895D02*
X148746742Y-105896895D01*
X148746742Y-105896895D02*
X148822932Y-105858800D01*
X148822932Y-105858800D02*
X148861028Y-105820704D01*
X148861028Y-105820704D02*
X148937218Y-105706419D01*
X148937218Y-105706419D02*
X148975313Y-105554038D01*
X148975313Y-105554038D02*
X148975313Y-105249276D01*
X148975313Y-105249276D02*
X148937218Y-105173085D01*
X148937218Y-105173085D02*
X148899123Y-105134990D01*
X148899123Y-105134990D02*
X148822932Y-105096895D01*
X148822932Y-105096895D02*
X148670551Y-105096895D01*
X148670551Y-105096895D02*
X148594361Y-105134990D01*
X148594361Y-105134990D02*
X148556266Y-105173085D01*
X148556266Y-105173085D02*
X148518170Y-105249276D01*
X148518170Y-105249276D02*
X148518170Y-105439752D01*
X148518170Y-105439752D02*
X148556266Y-105515942D01*
X148556266Y-105515942D02*
X148594361Y-105554038D01*
X148594361Y-105554038D02*
X148670551Y-105592133D01*
X148670551Y-105592133D02*
X148822932Y-105592133D01*
X148822932Y-105592133D02*
X148899123Y-105554038D01*
X148899123Y-105554038D02*
X148937218Y-105515942D01*
X148937218Y-105515942D02*
X148975313Y-105439752D01*
X149318171Y-105592133D02*
X149927695Y-105592133D01*
X150727694Y-105896895D02*
X150270551Y-105896895D01*
X150499123Y-105896895D02*
X150499123Y-105096895D01*
X150499123Y-105096895D02*
X150422932Y-105211180D01*
X150422932Y-105211180D02*
X150346742Y-105287371D01*
X150346742Y-105287371D02*
X150270551Y-105325466D01*
X151108647Y-105896895D02*
X151261028Y-105896895D01*
X151261028Y-105896895D02*
X151337218Y-105858800D01*
X151337218Y-105858800D02*
X151375314Y-105820704D01*
X151375314Y-105820704D02*
X151451504Y-105706419D01*
X151451504Y-105706419D02*
X151489599Y-105554038D01*
X151489599Y-105554038D02*
X151489599Y-105249276D01*
X151489599Y-105249276D02*
X151451504Y-105173085D01*
X151451504Y-105173085D02*
X151413409Y-105134990D01*
X151413409Y-105134990D02*
X151337218Y-105096895D01*
X151337218Y-105096895D02*
X151184837Y-105096895D01*
X151184837Y-105096895D02*
X151108647Y-105134990D01*
X151108647Y-105134990D02*
X151070552Y-105173085D01*
X151070552Y-105173085D02*
X151032456Y-105249276D01*
X151032456Y-105249276D02*
X151032456Y-105439752D01*
X151032456Y-105439752D02*
X151070552Y-105515942D01*
X151070552Y-105515942D02*
X151108647Y-105554038D01*
X151108647Y-105554038D02*
X151184837Y-105592133D01*
X151184837Y-105592133D02*
X151337218Y-105592133D01*
X151337218Y-105592133D02*
X151413409Y-105554038D01*
X151413409Y-105554038D02*
X151451504Y-105515942D01*
X151451504Y-105515942D02*
X151489599Y-105439752D01*
D12*
X137803333Y-74267319D02*
X137470000Y-73791128D01*
X137231905Y-74267319D02*
X137231905Y-73267319D01*
X137231905Y-73267319D02*
X137612857Y-73267319D01*
X137612857Y-73267319D02*
X137708095Y-73314938D01*
X137708095Y-73314938D02*
X137755714Y-73362557D01*
X137755714Y-73362557D02*
X137803333Y-73457795D01*
X137803333Y-73457795D02*
X137803333Y-73600652D01*
X137803333Y-73600652D02*
X137755714Y-73695890D01*
X137755714Y-73695890D02*
X137708095Y-73743509D01*
X137708095Y-73743509D02*
X137612857Y-73791128D01*
X137612857Y-73791128D02*
X137231905Y-73791128D01*
X138660476Y-73600652D02*
X138660476Y-74267319D01*
X138422381Y-73219700D02*
X138184286Y-73933985D01*
X138184286Y-73933985D02*
X138803333Y-73933985D01*
X160463333Y-81204819D02*
X159987143Y-81204819D01*
X159987143Y-81204819D02*
X159987143Y-80204819D01*
X161320476Y-81204819D02*
X160749048Y-81204819D01*
X161034762Y-81204819D02*
X161034762Y-80204819D01*
X161034762Y-80204819D02*
X160939524Y-80347676D01*
X160939524Y-80347676D02*
X160844286Y-80442914D01*
X160844286Y-80442914D02*
X160749048Y-80490533D01*
X150153095Y-87169819D02*
X150153095Y-87979342D01*
X150153095Y-87979342D02*
X150200714Y-88074580D01*
X150200714Y-88074580D02*
X150248333Y-88122200D01*
X150248333Y-88122200D02*
X150343571Y-88169819D01*
X150343571Y-88169819D02*
X150534047Y-88169819D01*
X150534047Y-88169819D02*
X150629285Y-88122200D01*
X150629285Y-88122200D02*
X150676904Y-88074580D01*
X150676904Y-88074580D02*
X150724523Y-87979342D01*
X150724523Y-87979342D02*
X150724523Y-87169819D01*
X151724523Y-88169819D02*
X151153095Y-88169819D01*
X151438809Y-88169819D02*
X151438809Y-87169819D01*
X151438809Y-87169819D02*
X151343571Y-87312676D01*
X151343571Y-87312676D02*
X151248333Y-87407914D01*
X151248333Y-87407914D02*
X151153095Y-87455533D01*
X164189819Y-85954166D02*
X163713628Y-86287499D01*
X164189819Y-86525594D02*
X163189819Y-86525594D01*
X163189819Y-86525594D02*
X163189819Y-86144642D01*
X163189819Y-86144642D02*
X163237438Y-86049404D01*
X163237438Y-86049404D02*
X163285057Y-86001785D01*
X163285057Y-86001785D02*
X163380295Y-85954166D01*
X163380295Y-85954166D02*
X163523152Y-85954166D01*
X163523152Y-85954166D02*
X163618390Y-86001785D01*
X163618390Y-86001785D02*
X163666009Y-86049404D01*
X163666009Y-86049404D02*
X163713628Y-86144642D01*
X163713628Y-86144642D02*
X163713628Y-86525594D01*
X164189819Y-85001785D02*
X164189819Y-85573213D01*
X164189819Y-85287499D02*
X163189819Y-85287499D01*
X163189819Y-85287499D02*
X163332676Y-85382737D01*
X163332676Y-85382737D02*
X163427914Y-85477975D01*
X163427914Y-85477975D02*
X163475533Y-85573213D01*
X157203333Y-87069580D02*
X157155714Y-87117200D01*
X157155714Y-87117200D02*
X157012857Y-87164819D01*
X157012857Y-87164819D02*
X156917619Y-87164819D01*
X156917619Y-87164819D02*
X156774762Y-87117200D01*
X156774762Y-87117200D02*
X156679524Y-87021961D01*
X156679524Y-87021961D02*
X156631905Y-86926723D01*
X156631905Y-86926723D02*
X156584286Y-86736247D01*
X156584286Y-86736247D02*
X156584286Y-86593390D01*
X156584286Y-86593390D02*
X156631905Y-86402914D01*
X156631905Y-86402914D02*
X156679524Y-86307676D01*
X156679524Y-86307676D02*
X156774762Y-86212438D01*
X156774762Y-86212438D02*
X156917619Y-86164819D01*
X156917619Y-86164819D02*
X157012857Y-86164819D01*
X157012857Y-86164819D02*
X157155714Y-86212438D01*
X157155714Y-86212438D02*
X157203333Y-86260057D01*
X158155714Y-87164819D02*
X157584286Y-87164819D01*
X157870000Y-87164819D02*
X157870000Y-86164819D01*
X157870000Y-86164819D02*
X157774762Y-86307676D01*
X157774762Y-86307676D02*
X157679524Y-86402914D01*
X157679524Y-86402914D02*
X157584286Y-86450533D01*
X144903333Y-86494580D02*
X144855714Y-86542200D01*
X144855714Y-86542200D02*
X144712857Y-86589819D01*
X144712857Y-86589819D02*
X144617619Y-86589819D01*
X144617619Y-86589819D02*
X144474762Y-86542200D01*
X144474762Y-86542200D02*
X144379524Y-86446961D01*
X144379524Y-86446961D02*
X144331905Y-86351723D01*
X144331905Y-86351723D02*
X144284286Y-86161247D01*
X144284286Y-86161247D02*
X144284286Y-86018390D01*
X144284286Y-86018390D02*
X144331905Y-85827914D01*
X144331905Y-85827914D02*
X144379524Y-85732676D01*
X144379524Y-85732676D02*
X144474762Y-85637438D01*
X144474762Y-85637438D02*
X144617619Y-85589819D01*
X144617619Y-85589819D02*
X144712857Y-85589819D01*
X144712857Y-85589819D02*
X144855714Y-85637438D01*
X144855714Y-85637438D02*
X144903333Y-85685057D01*
X145236667Y-85589819D02*
X145855714Y-85589819D01*
X145855714Y-85589819D02*
X145522381Y-85970771D01*
X145522381Y-85970771D02*
X145665238Y-85970771D01*
X145665238Y-85970771D02*
X145760476Y-86018390D01*
X145760476Y-86018390D02*
X145808095Y-86066009D01*
X145808095Y-86066009D02*
X145855714Y-86161247D01*
X145855714Y-86161247D02*
X145855714Y-86399342D01*
X145855714Y-86399342D02*
X145808095Y-86494580D01*
X145808095Y-86494580D02*
X145760476Y-86542200D01*
X145760476Y-86542200D02*
X145665238Y-86589819D01*
X145665238Y-86589819D02*
X145379524Y-86589819D01*
X145379524Y-86589819D02*
X145284286Y-86542200D01*
X145284286Y-86542200D02*
X145236667Y-86494580D01*
X164189819Y-90004166D02*
X163713628Y-90337499D01*
X164189819Y-90575594D02*
X163189819Y-90575594D01*
X163189819Y-90575594D02*
X163189819Y-90194642D01*
X163189819Y-90194642D02*
X163237438Y-90099404D01*
X163237438Y-90099404D02*
X163285057Y-90051785D01*
X163285057Y-90051785D02*
X163380295Y-90004166D01*
X163380295Y-90004166D02*
X163523152Y-90004166D01*
X163523152Y-90004166D02*
X163618390Y-90051785D01*
X163618390Y-90051785D02*
X163666009Y-90099404D01*
X163666009Y-90099404D02*
X163713628Y-90194642D01*
X163713628Y-90194642D02*
X163713628Y-90575594D01*
X163189819Y-89670832D02*
X163189819Y-89051785D01*
X163189819Y-89051785D02*
X163570771Y-89385118D01*
X163570771Y-89385118D02*
X163570771Y-89242261D01*
X163570771Y-89242261D02*
X163618390Y-89147023D01*
X163618390Y-89147023D02*
X163666009Y-89099404D01*
X163666009Y-89099404D02*
X163761247Y-89051785D01*
X163761247Y-89051785D02*
X163999342Y-89051785D01*
X163999342Y-89051785D02*
X164094580Y-89099404D01*
X164094580Y-89099404D02*
X164142200Y-89147023D01*
X164142200Y-89147023D02*
X164189819Y-89242261D01*
X164189819Y-89242261D02*
X164189819Y-89527975D01*
X164189819Y-89527975D02*
X164142200Y-89623213D01*
X164142200Y-89623213D02*
X164094580Y-89670832D01*
X156768333Y-89784580D02*
X156720714Y-89832200D01*
X156720714Y-89832200D02*
X156577857Y-89879819D01*
X156577857Y-89879819D02*
X156482619Y-89879819D01*
X156482619Y-89879819D02*
X156339762Y-89832200D01*
X156339762Y-89832200D02*
X156244524Y-89736961D01*
X156244524Y-89736961D02*
X156196905Y-89641723D01*
X156196905Y-89641723D02*
X156149286Y-89451247D01*
X156149286Y-89451247D02*
X156149286Y-89308390D01*
X156149286Y-89308390D02*
X156196905Y-89117914D01*
X156196905Y-89117914D02*
X156244524Y-89022676D01*
X156244524Y-89022676D02*
X156339762Y-88927438D01*
X156339762Y-88927438D02*
X156482619Y-88879819D01*
X156482619Y-88879819D02*
X156577857Y-88879819D01*
X156577857Y-88879819D02*
X156720714Y-88927438D01*
X156720714Y-88927438D02*
X156768333Y-88975057D01*
X157625476Y-89213152D02*
X157625476Y-89879819D01*
X157387381Y-88832200D02*
X157149286Y-89546485D01*
X157149286Y-89546485D02*
X157768333Y-89546485D01*
X151333333Y-78209580D02*
X151285714Y-78257200D01*
X151285714Y-78257200D02*
X151142857Y-78304819D01*
X151142857Y-78304819D02*
X151047619Y-78304819D01*
X151047619Y-78304819D02*
X150904762Y-78257200D01*
X150904762Y-78257200D02*
X150809524Y-78161961D01*
X150809524Y-78161961D02*
X150761905Y-78066723D01*
X150761905Y-78066723D02*
X150714286Y-77876247D01*
X150714286Y-77876247D02*
X150714286Y-77733390D01*
X150714286Y-77733390D02*
X150761905Y-77542914D01*
X150761905Y-77542914D02*
X150809524Y-77447676D01*
X150809524Y-77447676D02*
X150904762Y-77352438D01*
X150904762Y-77352438D02*
X151047619Y-77304819D01*
X151047619Y-77304819D02*
X151142857Y-77304819D01*
X151142857Y-77304819D02*
X151285714Y-77352438D01*
X151285714Y-77352438D02*
X151333333Y-77400057D01*
X151904762Y-77733390D02*
X151809524Y-77685771D01*
X151809524Y-77685771D02*
X151761905Y-77638152D01*
X151761905Y-77638152D02*
X151714286Y-77542914D01*
X151714286Y-77542914D02*
X151714286Y-77495295D01*
X151714286Y-77495295D02*
X151761905Y-77400057D01*
X151761905Y-77400057D02*
X151809524Y-77352438D01*
X151809524Y-77352438D02*
X151904762Y-77304819D01*
X151904762Y-77304819D02*
X152095238Y-77304819D01*
X152095238Y-77304819D02*
X152190476Y-77352438D01*
X152190476Y-77352438D02*
X152238095Y-77400057D01*
X152238095Y-77400057D02*
X152285714Y-77495295D01*
X152285714Y-77495295D02*
X152285714Y-77542914D01*
X152285714Y-77542914D02*
X152238095Y-77638152D01*
X152238095Y-77638152D02*
X152190476Y-77685771D01*
X152190476Y-77685771D02*
X152095238Y-77733390D01*
X152095238Y-77733390D02*
X151904762Y-77733390D01*
X151904762Y-77733390D02*
X151809524Y-77781009D01*
X151809524Y-77781009D02*
X151761905Y-77828628D01*
X151761905Y-77828628D02*
X151714286Y-77923866D01*
X151714286Y-77923866D02*
X151714286Y-78114342D01*
X151714286Y-78114342D02*
X151761905Y-78209580D01*
X151761905Y-78209580D02*
X151809524Y-78257200D01*
X151809524Y-78257200D02*
X151904762Y-78304819D01*
X151904762Y-78304819D02*
X152095238Y-78304819D01*
X152095238Y-78304819D02*
X152190476Y-78257200D01*
X152190476Y-78257200D02*
X152238095Y-78209580D01*
X152238095Y-78209580D02*
X152285714Y-78114342D01*
X152285714Y-78114342D02*
X152285714Y-77923866D01*
X152285714Y-77923866D02*
X152238095Y-77828628D01*
X152238095Y-77828628D02*
X152190476Y-77781009D01*
X152190476Y-77781009D02*
X152095238Y-77733390D01*
X143128333Y-74217319D02*
X142795000Y-73741128D01*
X142556905Y-74217319D02*
X142556905Y-73217319D01*
X142556905Y-73217319D02*
X142937857Y-73217319D01*
X142937857Y-73217319D02*
X143033095Y-73264938D01*
X143033095Y-73264938D02*
X143080714Y-73312557D01*
X143080714Y-73312557D02*
X143128333Y-73407795D01*
X143128333Y-73407795D02*
X143128333Y-73550652D01*
X143128333Y-73550652D02*
X143080714Y-73645890D01*
X143080714Y-73645890D02*
X143033095Y-73693509D01*
X143033095Y-73693509D02*
X142937857Y-73741128D01*
X142937857Y-73741128D02*
X142556905Y-73741128D01*
X144033095Y-73217319D02*
X143556905Y-73217319D01*
X143556905Y-73217319D02*
X143509286Y-73693509D01*
X143509286Y-73693509D02*
X143556905Y-73645890D01*
X143556905Y-73645890D02*
X143652143Y-73598271D01*
X143652143Y-73598271D02*
X143890238Y-73598271D01*
X143890238Y-73598271D02*
X143985476Y-73645890D01*
X143985476Y-73645890D02*
X144033095Y-73693509D01*
X144033095Y-73693509D02*
X144080714Y-73788747D01*
X144080714Y-73788747D02*
X144080714Y-74026842D01*
X144080714Y-74026842D02*
X144033095Y-74122080D01*
X144033095Y-74122080D02*
X143985476Y-74169700D01*
X143985476Y-74169700D02*
X143890238Y-74217319D01*
X143890238Y-74217319D02*
X143652143Y-74217319D01*
X143652143Y-74217319D02*
X143556905Y-74169700D01*
X143556905Y-74169700D02*
X143509286Y-74122080D01*
X143774580Y-94696666D02*
X143822200Y-94744285D01*
X143822200Y-94744285D02*
X143869819Y-94887142D01*
X143869819Y-94887142D02*
X143869819Y-94982380D01*
X143869819Y-94982380D02*
X143822200Y-95125237D01*
X143822200Y-95125237D02*
X143726961Y-95220475D01*
X143726961Y-95220475D02*
X143631723Y-95268094D01*
X143631723Y-95268094D02*
X143441247Y-95315713D01*
X143441247Y-95315713D02*
X143298390Y-95315713D01*
X143298390Y-95315713D02*
X143107914Y-95268094D01*
X143107914Y-95268094D02*
X143012676Y-95220475D01*
X143012676Y-95220475D02*
X142917438Y-95125237D01*
X142917438Y-95125237D02*
X142869819Y-94982380D01*
X142869819Y-94982380D02*
X142869819Y-94887142D01*
X142869819Y-94887142D02*
X142917438Y-94744285D01*
X142917438Y-94744285D02*
X142965057Y-94696666D01*
X142869819Y-93839523D02*
X142869819Y-94029999D01*
X142869819Y-94029999D02*
X142917438Y-94125237D01*
X142917438Y-94125237D02*
X142965057Y-94172856D01*
X142965057Y-94172856D02*
X143107914Y-94268094D01*
X143107914Y-94268094D02*
X143298390Y-94315713D01*
X143298390Y-94315713D02*
X143679342Y-94315713D01*
X143679342Y-94315713D02*
X143774580Y-94268094D01*
X143774580Y-94268094D02*
X143822200Y-94220475D01*
X143822200Y-94220475D02*
X143869819Y-94125237D01*
X143869819Y-94125237D02*
X143869819Y-93934761D01*
X143869819Y-93934761D02*
X143822200Y-93839523D01*
X143822200Y-93839523D02*
X143774580Y-93791904D01*
X143774580Y-93791904D02*
X143679342Y-93744285D01*
X143679342Y-93744285D02*
X143441247Y-93744285D01*
X143441247Y-93744285D02*
X143346009Y-93791904D01*
X143346009Y-93791904D02*
X143298390Y-93839523D01*
X143298390Y-93839523D02*
X143250771Y-93934761D01*
X143250771Y-93934761D02*
X143250771Y-94125237D01*
X143250771Y-94125237D02*
X143298390Y-94220475D01*
X143298390Y-94220475D02*
X143346009Y-94268094D01*
X143346009Y-94268094D02*
X143441247Y-94315713D01*
X158020833Y-96904819D02*
X157687500Y-96428628D01*
X157449405Y-96904819D02*
X157449405Y-95904819D01*
X157449405Y-95904819D02*
X157830357Y-95904819D01*
X157830357Y-95904819D02*
X157925595Y-95952438D01*
X157925595Y-95952438D02*
X157973214Y-96000057D01*
X157973214Y-96000057D02*
X158020833Y-96095295D01*
X158020833Y-96095295D02*
X158020833Y-96238152D01*
X158020833Y-96238152D02*
X157973214Y-96333390D01*
X157973214Y-96333390D02*
X157925595Y-96381009D01*
X157925595Y-96381009D02*
X157830357Y-96428628D01*
X157830357Y-96428628D02*
X157449405Y-96428628D01*
X158401786Y-96000057D02*
X158449405Y-95952438D01*
X158449405Y-95952438D02*
X158544643Y-95904819D01*
X158544643Y-95904819D02*
X158782738Y-95904819D01*
X158782738Y-95904819D02*
X158877976Y-95952438D01*
X158877976Y-95952438D02*
X158925595Y-96000057D01*
X158925595Y-96000057D02*
X158973214Y-96095295D01*
X158973214Y-96095295D02*
X158973214Y-96190533D01*
X158973214Y-96190533D02*
X158925595Y-96333390D01*
X158925595Y-96333390D02*
X158354167Y-96904819D01*
X158354167Y-96904819D02*
X158973214Y-96904819D01*
X149203333Y-78219580D02*
X149155714Y-78267200D01*
X149155714Y-78267200D02*
X149012857Y-78314819D01*
X149012857Y-78314819D02*
X148917619Y-78314819D01*
X148917619Y-78314819D02*
X148774762Y-78267200D01*
X148774762Y-78267200D02*
X148679524Y-78171961D01*
X148679524Y-78171961D02*
X148631905Y-78076723D01*
X148631905Y-78076723D02*
X148584286Y-77886247D01*
X148584286Y-77886247D02*
X148584286Y-77743390D01*
X148584286Y-77743390D02*
X148631905Y-77552914D01*
X148631905Y-77552914D02*
X148679524Y-77457676D01*
X148679524Y-77457676D02*
X148774762Y-77362438D01*
X148774762Y-77362438D02*
X148917619Y-77314819D01*
X148917619Y-77314819D02*
X149012857Y-77314819D01*
X149012857Y-77314819D02*
X149155714Y-77362438D01*
X149155714Y-77362438D02*
X149203333Y-77410057D01*
X149536667Y-77314819D02*
X150203333Y-77314819D01*
X150203333Y-77314819D02*
X149774762Y-78314819D01*
X145749819Y-68025594D02*
X144749819Y-68025594D01*
X144749819Y-68025594D02*
X144749819Y-67787499D01*
X144749819Y-67787499D02*
X144797438Y-67644642D01*
X144797438Y-67644642D02*
X144892676Y-67549404D01*
X144892676Y-67549404D02*
X144987914Y-67501785D01*
X144987914Y-67501785D02*
X145178390Y-67454166D01*
X145178390Y-67454166D02*
X145321247Y-67454166D01*
X145321247Y-67454166D02*
X145511723Y-67501785D01*
X145511723Y-67501785D02*
X145606961Y-67549404D01*
X145606961Y-67549404D02*
X145702200Y-67644642D01*
X145702200Y-67644642D02*
X145749819Y-67787499D01*
X145749819Y-67787499D02*
X145749819Y-68025594D01*
X144749819Y-67120832D02*
X144749819Y-66501785D01*
X144749819Y-66501785D02*
X145130771Y-66835118D01*
X145130771Y-66835118D02*
X145130771Y-66692261D01*
X145130771Y-66692261D02*
X145178390Y-66597023D01*
X145178390Y-66597023D02*
X145226009Y-66549404D01*
X145226009Y-66549404D02*
X145321247Y-66501785D01*
X145321247Y-66501785D02*
X145559342Y-66501785D01*
X145559342Y-66501785D02*
X145654580Y-66549404D01*
X145654580Y-66549404D02*
X145702200Y-66597023D01*
X145702200Y-66597023D02*
X145749819Y-66692261D01*
X145749819Y-66692261D02*
X145749819Y-66977975D01*
X145749819Y-66977975D02*
X145702200Y-67073213D01*
X145702200Y-67073213D02*
X145654580Y-67120832D01*
X140399819Y-67950594D02*
X139399819Y-67950594D01*
X139399819Y-67950594D02*
X139399819Y-67712499D01*
X139399819Y-67712499D02*
X139447438Y-67569642D01*
X139447438Y-67569642D02*
X139542676Y-67474404D01*
X139542676Y-67474404D02*
X139637914Y-67426785D01*
X139637914Y-67426785D02*
X139828390Y-67379166D01*
X139828390Y-67379166D02*
X139971247Y-67379166D01*
X139971247Y-67379166D02*
X140161723Y-67426785D01*
X140161723Y-67426785D02*
X140256961Y-67474404D01*
X140256961Y-67474404D02*
X140352200Y-67569642D01*
X140352200Y-67569642D02*
X140399819Y-67712499D01*
X140399819Y-67712499D02*
X140399819Y-67950594D01*
X139495057Y-66998213D02*
X139447438Y-66950594D01*
X139447438Y-66950594D02*
X139399819Y-66855356D01*
X139399819Y-66855356D02*
X139399819Y-66617261D01*
X139399819Y-66617261D02*
X139447438Y-66522023D01*
X139447438Y-66522023D02*
X139495057Y-66474404D01*
X139495057Y-66474404D02*
X139590295Y-66426785D01*
X139590295Y-66426785D02*
X139685533Y-66426785D01*
X139685533Y-66426785D02*
X139828390Y-66474404D01*
X139828390Y-66474404D02*
X140399819Y-67045832D01*
X140399819Y-67045832D02*
X140399819Y-66426785D01*
X135566666Y-90731009D02*
X135233333Y-90731009D01*
X135233333Y-91254819D02*
X135233333Y-90254819D01*
X135233333Y-90254819D02*
X135709523Y-90254819D01*
X136614285Y-91254819D02*
X136042857Y-91254819D01*
X136328571Y-91254819D02*
X136328571Y-90254819D01*
X136328571Y-90254819D02*
X136233333Y-90397676D01*
X136233333Y-90397676D02*
X136138095Y-90492914D01*
X136138095Y-90492914D02*
X136042857Y-90540533D01*
X159333333Y-89794580D02*
X159285714Y-89842200D01*
X159285714Y-89842200D02*
X159142857Y-89889819D01*
X159142857Y-89889819D02*
X159047619Y-89889819D01*
X159047619Y-89889819D02*
X158904762Y-89842200D01*
X158904762Y-89842200D02*
X158809524Y-89746961D01*
X158809524Y-89746961D02*
X158761905Y-89651723D01*
X158761905Y-89651723D02*
X158714286Y-89461247D01*
X158714286Y-89461247D02*
X158714286Y-89318390D01*
X158714286Y-89318390D02*
X158761905Y-89127914D01*
X158761905Y-89127914D02*
X158809524Y-89032676D01*
X158809524Y-89032676D02*
X158904762Y-88937438D01*
X158904762Y-88937438D02*
X159047619Y-88889819D01*
X159047619Y-88889819D02*
X159142857Y-88889819D01*
X159142857Y-88889819D02*
X159285714Y-88937438D01*
X159285714Y-88937438D02*
X159333333Y-88985057D01*
X160238095Y-88889819D02*
X159761905Y-88889819D01*
X159761905Y-88889819D02*
X159714286Y-89366009D01*
X159714286Y-89366009D02*
X159761905Y-89318390D01*
X159761905Y-89318390D02*
X159857143Y-89270771D01*
X159857143Y-89270771D02*
X160095238Y-89270771D01*
X160095238Y-89270771D02*
X160190476Y-89318390D01*
X160190476Y-89318390D02*
X160238095Y-89366009D01*
X160238095Y-89366009D02*
X160285714Y-89461247D01*
X160285714Y-89461247D02*
X160285714Y-89699342D01*
X160285714Y-89699342D02*
X160238095Y-89794580D01*
X160238095Y-89794580D02*
X160190476Y-89842200D01*
X160190476Y-89842200D02*
X160095238Y-89889819D01*
X160095238Y-89889819D02*
X159857143Y-89889819D01*
X159857143Y-89889819D02*
X159761905Y-89842200D01*
X159761905Y-89842200D02*
X159714286Y-89794580D01*
X153493333Y-78229580D02*
X153445714Y-78277200D01*
X153445714Y-78277200D02*
X153302857Y-78324819D01*
X153302857Y-78324819D02*
X153207619Y-78324819D01*
X153207619Y-78324819D02*
X153064762Y-78277200D01*
X153064762Y-78277200D02*
X152969524Y-78181961D01*
X152969524Y-78181961D02*
X152921905Y-78086723D01*
X152921905Y-78086723D02*
X152874286Y-77896247D01*
X152874286Y-77896247D02*
X152874286Y-77753390D01*
X152874286Y-77753390D02*
X152921905Y-77562914D01*
X152921905Y-77562914D02*
X152969524Y-77467676D01*
X152969524Y-77467676D02*
X153064762Y-77372438D01*
X153064762Y-77372438D02*
X153207619Y-77324819D01*
X153207619Y-77324819D02*
X153302857Y-77324819D01*
X153302857Y-77324819D02*
X153445714Y-77372438D01*
X153445714Y-77372438D02*
X153493333Y-77420057D01*
X153969524Y-78324819D02*
X154160000Y-78324819D01*
X154160000Y-78324819D02*
X154255238Y-78277200D01*
X154255238Y-78277200D02*
X154302857Y-78229580D01*
X154302857Y-78229580D02*
X154398095Y-78086723D01*
X154398095Y-78086723D02*
X154445714Y-77896247D01*
X154445714Y-77896247D02*
X154445714Y-77515295D01*
X154445714Y-77515295D02*
X154398095Y-77420057D01*
X154398095Y-77420057D02*
X154350476Y-77372438D01*
X154350476Y-77372438D02*
X154255238Y-77324819D01*
X154255238Y-77324819D02*
X154064762Y-77324819D01*
X154064762Y-77324819D02*
X153969524Y-77372438D01*
X153969524Y-77372438D02*
X153921905Y-77420057D01*
X153921905Y-77420057D02*
X153874286Y-77515295D01*
X153874286Y-77515295D02*
X153874286Y-77753390D01*
X153874286Y-77753390D02*
X153921905Y-77848628D01*
X153921905Y-77848628D02*
X153969524Y-77896247D01*
X153969524Y-77896247D02*
X154064762Y-77943866D01*
X154064762Y-77943866D02*
X154255238Y-77943866D01*
X154255238Y-77943866D02*
X154350476Y-77896247D01*
X154350476Y-77896247D02*
X154398095Y-77848628D01*
X154398095Y-77848628D02*
X154445714Y-77753390D01*
X156711905Y-84764819D02*
X156711905Y-83764819D01*
X156711905Y-83764819D02*
X156950000Y-83764819D01*
X156950000Y-83764819D02*
X157092857Y-83812438D01*
X157092857Y-83812438D02*
X157188095Y-83907676D01*
X157188095Y-83907676D02*
X157235714Y-84002914D01*
X157235714Y-84002914D02*
X157283333Y-84193390D01*
X157283333Y-84193390D02*
X157283333Y-84336247D01*
X157283333Y-84336247D02*
X157235714Y-84526723D01*
X157235714Y-84526723D02*
X157188095Y-84621961D01*
X157188095Y-84621961D02*
X157092857Y-84717200D01*
X157092857Y-84717200D02*
X156950000Y-84764819D01*
X156950000Y-84764819D02*
X156711905Y-84764819D01*
X158235714Y-84764819D02*
X157664286Y-84764819D01*
X157950000Y-84764819D02*
X157950000Y-83764819D01*
X157950000Y-83764819D02*
X157854762Y-83907676D01*
X157854762Y-83907676D02*
X157759524Y-84002914D01*
X157759524Y-84002914D02*
X157664286Y-84050533D01*
X142663333Y-86524580D02*
X142615714Y-86572200D01*
X142615714Y-86572200D02*
X142472857Y-86619819D01*
X142472857Y-86619819D02*
X142377619Y-86619819D01*
X142377619Y-86619819D02*
X142234762Y-86572200D01*
X142234762Y-86572200D02*
X142139524Y-86476961D01*
X142139524Y-86476961D02*
X142091905Y-86381723D01*
X142091905Y-86381723D02*
X142044286Y-86191247D01*
X142044286Y-86191247D02*
X142044286Y-86048390D01*
X142044286Y-86048390D02*
X142091905Y-85857914D01*
X142091905Y-85857914D02*
X142139524Y-85762676D01*
X142139524Y-85762676D02*
X142234762Y-85667438D01*
X142234762Y-85667438D02*
X142377619Y-85619819D01*
X142377619Y-85619819D02*
X142472857Y-85619819D01*
X142472857Y-85619819D02*
X142615714Y-85667438D01*
X142615714Y-85667438D02*
X142663333Y-85715057D01*
X143044286Y-85715057D02*
X143091905Y-85667438D01*
X143091905Y-85667438D02*
X143187143Y-85619819D01*
X143187143Y-85619819D02*
X143425238Y-85619819D01*
X143425238Y-85619819D02*
X143520476Y-85667438D01*
X143520476Y-85667438D02*
X143568095Y-85715057D01*
X143568095Y-85715057D02*
X143615714Y-85810295D01*
X143615714Y-85810295D02*
X143615714Y-85905533D01*
X143615714Y-85905533D02*
X143568095Y-86048390D01*
X143568095Y-86048390D02*
X142996667Y-86619819D01*
X142996667Y-86619819D02*
X143615714Y-86619819D01*
D13*
%TO.C,J2*%
X165850000Y-90650000D02*
X174150000Y-90650000D01*
X174150000Y-90650000D02*
X174150000Y-77800000D01*
X165850000Y-77800000D02*
X165850000Y-90650000D01*
X174150000Y-77800000D02*
X171600000Y-74950000D01*
X168450000Y-74950000D02*
X165850000Y-77800000D01*
X171600000Y-74950000D02*
X168450000Y-74950000D01*
%TO.C,J1*%
X125850000Y-90650000D02*
X134150000Y-90650000D01*
X134150000Y-90650000D02*
X134150000Y-77800000D01*
X125850000Y-77800000D02*
X125850000Y-90650000D01*
X134150000Y-77800000D02*
X131600000Y-74950000D01*
X128450000Y-74950000D02*
X125850000Y-77800000D01*
X131600000Y-74950000D02*
X128450000Y-74950000D01*
%TO.C,R4*%
X137422500Y-71849758D02*
X137422500Y-71375242D01*
X138467500Y-71849758D02*
X138467500Y-71375242D01*
%TO.C,L1*%
X155080000Y-78490000D02*
X155230000Y-78490000D01*
X155080000Y-83010000D02*
X155080000Y-78490000D01*
X155080000Y-83010000D02*
X155230000Y-83010000D01*
X159600000Y-78490000D02*
X159450000Y-78490000D01*
X159600000Y-83010000D02*
X159450000Y-83010000D01*
X159600000Y-83010000D02*
X159600000Y-78490000D01*
D14*
%TO.C,U1*%
X149040000Y-88825000D02*
X152940000Y-88825000D01*
X149040000Y-93875000D02*
X152940000Y-93875000D01*
D15*
X147020000Y-89445000D02*
G75*
G02*
X146820000Y-89445000I-100000J0D01*
G01*
X146820000Y-89445000D02*
G75*
G02*
X147020000Y-89445000I100000J0D01*
G01*
D13*
%TO.C,R1*%
X161350000Y-85560436D02*
X161350000Y-86014564D01*
X162820000Y-85560436D02*
X162820000Y-86014564D01*
%TO.C,C1*%
X154468748Y-85955000D02*
X154991252Y-85955000D01*
X154468748Y-87425000D02*
X154991252Y-87425000D01*
%TO.C,C3*%
X144330000Y-88691252D02*
X144330000Y-88168748D01*
X145800000Y-88691252D02*
X145800000Y-88168748D01*
D16*
%TO.C,G\u002A\u002A\u002A*%
G36*
X134686966Y-102752486D02*
G01*
X134742224Y-102752589D01*
X134793612Y-102752753D01*
X134840343Y-102752973D01*
X134881625Y-102753242D01*
X134916672Y-102753556D01*
X134944694Y-102753908D01*
X134964902Y-102754292D01*
X134976507Y-102754702D01*
X134979084Y-102755033D01*
X134973786Y-102757357D01*
X134960449Y-102762380D01*
X134940505Y-102769588D01*
X134915384Y-102778466D01*
X134886518Y-102788498D01*
X134877001Y-102791772D01*
X134708920Y-102852779D01*
X134546923Y-102918244D01*
X134392609Y-102987516D01*
X134370479Y-102998072D01*
X134344329Y-103010618D01*
X134321504Y-103021516D01*
X134303443Y-103030085D01*
X134291585Y-103035640D01*
X134287374Y-103037507D01*
X134286167Y-103033047D01*
X134284310Y-103021696D01*
X134283222Y-103013752D01*
X134281773Y-102999238D01*
X134280214Y-102978037D01*
X134278612Y-102951794D01*
X134277036Y-102922152D01*
X134275554Y-102890756D01*
X134274234Y-102859250D01*
X134273145Y-102829279D01*
X134272355Y-102802486D01*
X134271932Y-102780516D01*
X134271944Y-102765013D01*
X134272460Y-102757621D01*
X134272576Y-102757327D01*
X134278179Y-102756321D01*
X134293474Y-102755421D01*
X134318157Y-102754632D01*
X134351920Y-102753958D01*
X134394458Y-102753402D01*
X134445464Y-102752970D01*
X134504631Y-102752665D01*
X134571654Y-102752492D01*
X134628628Y-102752451D01*
X134686966Y-102752486D01*
G37*
G36*
X136029720Y-104944849D02*
G01*
X136043159Y-104950356D01*
X136047613Y-104953239D01*
X136051545Y-104956101D01*
X136054988Y-104959548D01*
X136057975Y-104964186D01*
X136060536Y-104970623D01*
X136062706Y-104979466D01*
X136064517Y-104991321D01*
X136066000Y-105006796D01*
X136067189Y-105026496D01*
X136068116Y-105051030D01*
X136068814Y-105081004D01*
X136069315Y-105117025D01*
X136069651Y-105159700D01*
X136069855Y-105209636D01*
X136069960Y-105267440D01*
X136069998Y-105333718D01*
X136070001Y-105409077D01*
X136070000Y-105451762D01*
X136070000Y-105910954D01*
X136081250Y-105933267D01*
X136094295Y-105952365D01*
X136112678Y-105965732D01*
X136114809Y-105966833D01*
X136137118Y-105978086D01*
X136423807Y-105978086D01*
X136486976Y-105978089D01*
X136540908Y-105978146D01*
X136586366Y-105978327D01*
X136624112Y-105978702D01*
X136654909Y-105979342D01*
X136679520Y-105980319D01*
X136698708Y-105981701D01*
X136713235Y-105983560D01*
X136723864Y-105985966D01*
X136731359Y-105988990D01*
X136736481Y-105992703D01*
X136739994Y-105997174D01*
X136742660Y-106002474D01*
X136744867Y-106007772D01*
X136748593Y-106025966D01*
X136746634Y-106044971D01*
X136739642Y-106060569D01*
X136736152Y-106064419D01*
X136731158Y-106068321D01*
X136725115Y-106071638D01*
X136717230Y-106074416D01*
X136706705Y-106076698D01*
X136692748Y-106078529D01*
X136674561Y-106079955D01*
X136651351Y-106081019D01*
X136622321Y-106081766D01*
X136586678Y-106082241D01*
X136543625Y-106082489D01*
X136492369Y-106082554D01*
X136432113Y-106082480D01*
X136415000Y-106082444D01*
X136362620Y-106082255D01*
X136312388Y-106081932D01*
X136265356Y-106081494D01*
X136222576Y-106080955D01*
X136185099Y-106080333D01*
X136153976Y-106079642D01*
X136130259Y-106078901D01*
X136115000Y-106078124D01*
X136111067Y-106077754D01*
X136068309Y-106067645D01*
X136030586Y-106049519D01*
X135998757Y-106024148D01*
X135973683Y-105992302D01*
X135956225Y-105954751D01*
X135950621Y-105934081D01*
X135949531Y-105924938D01*
X135948567Y-105908213D01*
X135947725Y-105883643D01*
X135947002Y-105850966D01*
X135946395Y-105809918D01*
X135945902Y-105760239D01*
X135945519Y-105701664D01*
X135945244Y-105633931D01*
X135945072Y-105556779D01*
X135945002Y-105469943D01*
X135945000Y-105450075D01*
X135944998Y-105369935D01*
X135945014Y-105299189D01*
X135945080Y-105237229D01*
X135945230Y-105183447D01*
X135945496Y-105137234D01*
X135945911Y-105097983D01*
X135946507Y-105065086D01*
X135947316Y-105037934D01*
X135948373Y-105015920D01*
X135949708Y-104998436D01*
X135951356Y-104984872D01*
X135953348Y-104974622D01*
X135955717Y-104967078D01*
X135958496Y-104961630D01*
X135961718Y-104957672D01*
X135965415Y-104954595D01*
X135969620Y-104951791D01*
X135971840Y-104950356D01*
X135988392Y-104944134D01*
X136009247Y-104942299D01*
X136029720Y-104944849D01*
G37*
G36*
X137471420Y-104945136D02*
G01*
X137536530Y-104955200D01*
X137595570Y-104972391D01*
X137649282Y-104996996D01*
X137698407Y-105029301D01*
X137743688Y-105069593D01*
X137751486Y-105077714D01*
X137788227Y-105123891D01*
X137818746Y-105177152D01*
X137842398Y-105236281D01*
X137850881Y-105265445D01*
X137862500Y-105310454D01*
X137862500Y-105686680D01*
X137862500Y-106062905D01*
X137846524Y-106078886D01*
X137834590Y-106089075D01*
X137822585Y-106093870D01*
X137805650Y-106095238D01*
X137779837Y-106091497D01*
X137759422Y-106079750D01*
X137746323Y-106062620D01*
X137744597Y-106056370D01*
X137743185Y-106044511D01*
X137742067Y-106026342D01*
X137741219Y-106001161D01*
X137740621Y-105968268D01*
X137740250Y-105926960D01*
X137740085Y-105876535D01*
X137740073Y-105861813D01*
X137740000Y-105673026D01*
X137400000Y-105673026D01*
X137060000Y-105673026D01*
X137060000Y-105865637D01*
X137060000Y-106058248D01*
X137043750Y-106075599D01*
X137023702Y-106090457D01*
X137000782Y-106096474D01*
X136977078Y-106093205D01*
X136971627Y-106091044D01*
X136957552Y-106081754D01*
X136946627Y-106069970D01*
X136944883Y-106066882D01*
X136943376Y-106062855D01*
X136942088Y-106057182D01*
X136941003Y-106049158D01*
X136940103Y-106038079D01*
X136939372Y-106023238D01*
X136938790Y-106003930D01*
X136938343Y-105979451D01*
X136938012Y-105949095D01*
X136937780Y-105912156D01*
X136937630Y-105867930D01*
X136937545Y-105815711D01*
X136937507Y-105754794D01*
X136937500Y-105695746D01*
X136937507Y-105624251D01*
X136937555Y-105568005D01*
X137058771Y-105568005D01*
X137399985Y-105568005D01*
X137741199Y-105568005D01*
X137738721Y-105441730D01*
X137737811Y-105400684D01*
X137736796Y-105368075D01*
X137735554Y-105342337D01*
X137733961Y-105321905D01*
X137731896Y-105305215D01*
X137729235Y-105290700D01*
X137725855Y-105276796D01*
X137725761Y-105276445D01*
X137706666Y-105222468D01*
X137680296Y-105175312D01*
X137646809Y-105135135D01*
X137606361Y-105102097D01*
X137559110Y-105076354D01*
X137510000Y-105059313D01*
X137486157Y-105054864D01*
X137455214Y-105051877D01*
X137419962Y-105050352D01*
X137383194Y-105050289D01*
X137347701Y-105051688D01*
X137316275Y-105054548D01*
X137291709Y-105058871D01*
X137290000Y-105059313D01*
X137236922Y-105078005D01*
X137190635Y-105103774D01*
X137151396Y-105136414D01*
X137119466Y-105175722D01*
X137100815Y-105208728D01*
X137090196Y-105232166D01*
X137081741Y-105254172D01*
X137075175Y-105276384D01*
X137070228Y-105300439D01*
X137066625Y-105327977D01*
X137064094Y-105360633D01*
X137062362Y-105400048D01*
X137061178Y-105446731D01*
X137058771Y-105568005D01*
X136937555Y-105568005D01*
X136937560Y-105561959D01*
X136937705Y-105508068D01*
X136937990Y-105461781D01*
X136938460Y-105422296D01*
X136939162Y-105388815D01*
X136940143Y-105360537D01*
X136941449Y-105336663D01*
X136943128Y-105316392D01*
X136945225Y-105298926D01*
X136947787Y-105283463D01*
X136950861Y-105269206D01*
X136954493Y-105255353D01*
X136958731Y-105241105D01*
X136963620Y-105225663D01*
X136965176Y-105220816D01*
X136983917Y-105172505D01*
X137007980Y-105129482D01*
X137039266Y-105088538D01*
X137051606Y-105074820D01*
X137096018Y-105033547D01*
X137145240Y-105000161D01*
X137199741Y-104974483D01*
X137259987Y-104956335D01*
X137326448Y-104945539D01*
X137399499Y-104941915D01*
X137471420Y-104945136D01*
G37*
G36*
X135286156Y-104943439D02*
G01*
X135287500Y-104943545D01*
X135344717Y-104950481D01*
X135395721Y-104962093D01*
X135443507Y-104979157D01*
X135467500Y-104990157D01*
X135522496Y-105022411D01*
X135570241Y-105061503D01*
X135610630Y-105107272D01*
X135643557Y-105159557D01*
X135668916Y-105218199D01*
X135686601Y-105283037D01*
X135694655Y-105334631D01*
X135695761Y-105349905D01*
X135696761Y-105374528D01*
X135697643Y-105407849D01*
X135698400Y-105449213D01*
X135699021Y-105497970D01*
X135699498Y-105553466D01*
X135699822Y-105615050D01*
X135699983Y-105682069D01*
X135700000Y-105712997D01*
X135699993Y-105781091D01*
X135699940Y-105839902D01*
X135699788Y-105890149D01*
X135699487Y-105932549D01*
X135698986Y-105967821D01*
X135698232Y-105996685D01*
X135697176Y-106019858D01*
X135695765Y-106038059D01*
X135693948Y-106052007D01*
X135691675Y-106062421D01*
X135688894Y-106070019D01*
X135685553Y-106075519D01*
X135681602Y-106079640D01*
X135676989Y-106083101D01*
X135673446Y-106085446D01*
X135650170Y-106095187D01*
X135625482Y-106095895D01*
X135607938Y-106090481D01*
X135599364Y-106086250D01*
X135592299Y-106081822D01*
X135586588Y-106076240D01*
X135582077Y-106068548D01*
X135578610Y-106057786D01*
X135576033Y-106042999D01*
X135574192Y-106023228D01*
X135572931Y-105997517D01*
X135572095Y-105964907D01*
X135571530Y-105924443D01*
X135571082Y-105875165D01*
X135570974Y-105861813D01*
X135569448Y-105673026D01*
X135232224Y-105673026D01*
X134895000Y-105673026D01*
X134895000Y-105858223D01*
X134894948Y-105909678D01*
X134894717Y-105952099D01*
X134894195Y-105986454D01*
X134893268Y-106013711D01*
X134891822Y-106034837D01*
X134889746Y-106050802D01*
X134886925Y-106062572D01*
X134883247Y-106071116D01*
X134878598Y-106077401D01*
X134872865Y-106082395D01*
X134868446Y-106085446D01*
X134850589Y-106092890D01*
X134828974Y-106096134D01*
X134811938Y-106094886D01*
X134801792Y-106089891D01*
X134789802Y-106080359D01*
X134786938Y-106077521D01*
X134772500Y-106062449D01*
X134771151Y-105710145D01*
X134770900Y-105636369D01*
X134770776Y-105571818D01*
X134770779Y-105568005D01*
X134894015Y-105568005D01*
X135232007Y-105568005D01*
X135570000Y-105568005D01*
X135570000Y-105450271D01*
X135569712Y-105402351D01*
X135568682Y-105362802D01*
X135566659Y-105330004D01*
X135563390Y-105302338D01*
X135558623Y-105278186D01*
X135552109Y-105255928D01*
X135543593Y-105233945D01*
X135532827Y-105210617D01*
X135532737Y-105210435D01*
X135505805Y-105165065D01*
X135472926Y-105127296D01*
X135433876Y-105097007D01*
X135388433Y-105074080D01*
X135336373Y-105058394D01*
X135277474Y-105049830D01*
X135230000Y-105048006D01*
X135168629Y-105051971D01*
X135112369Y-105063613D01*
X135061708Y-105082667D01*
X135017136Y-105108868D01*
X134979142Y-105141950D01*
X134948216Y-105181647D01*
X134932921Y-105209223D01*
X134923299Y-105230083D01*
X134915634Y-105249274D01*
X134909676Y-105268361D01*
X134905178Y-105288909D01*
X134901890Y-105312483D01*
X134899564Y-105340649D01*
X134897951Y-105374970D01*
X134896802Y-105417013D01*
X134896364Y-105439230D01*
X134894015Y-105568005D01*
X134770779Y-105568005D01*
X134770818Y-105515714D01*
X134771064Y-105467280D01*
X134771553Y-105425739D01*
X134772323Y-105390315D01*
X134773415Y-105360229D01*
X134774865Y-105334704D01*
X134776713Y-105312964D01*
X134778998Y-105294232D01*
X134781758Y-105277729D01*
X134785033Y-105262680D01*
X134788860Y-105248307D01*
X134793279Y-105233833D01*
X134795190Y-105227938D01*
X134819803Y-105167779D01*
X134852062Y-105113750D01*
X134891632Y-105066266D01*
X134938179Y-105025742D01*
X134980305Y-104998563D01*
X135031071Y-104975182D01*
X135088571Y-104957704D01*
X135151273Y-104946405D01*
X135217645Y-104941559D01*
X135286156Y-104943439D01*
G37*
G36*
X141120398Y-104969506D02*
G01*
X141142705Y-104986024D01*
X141156495Y-105007666D01*
X141162010Y-105034837D01*
X141162142Y-105040401D01*
X141158007Y-105068857D01*
X141145428Y-105092012D01*
X141124141Y-105110314D01*
X141119744Y-105112915D01*
X141097500Y-105125418D01*
X140835000Y-105127918D01*
X140784464Y-105128479D01*
X140736791Y-105129162D01*
X140692945Y-105129943D01*
X140653894Y-105130796D01*
X140620603Y-105131698D01*
X140594039Y-105132624D01*
X140575168Y-105133549D01*
X140564957Y-105134450D01*
X140563537Y-105134786D01*
X140555705Y-105141833D01*
X140547122Y-105154077D01*
X140544787Y-105158342D01*
X140541710Y-105165111D01*
X140539350Y-105172731D01*
X140537614Y-105182563D01*
X140536408Y-105195967D01*
X140535637Y-105214303D01*
X140535209Y-105238931D01*
X140535028Y-105271212D01*
X140535000Y-105300253D01*
X140535000Y-105422976D01*
X140751753Y-105422976D01*
X140813109Y-105423096D01*
X140864740Y-105423458D01*
X140906921Y-105424070D01*
X140939924Y-105424938D01*
X140964024Y-105426069D01*
X140979493Y-105427470D01*
X140985503Y-105428670D01*
X141010555Y-105441769D01*
X141028265Y-105461429D01*
X141038093Y-105486876D01*
X141040000Y-105506573D01*
X141036138Y-105534621D01*
X141024241Y-105556908D01*
X141003843Y-105574211D01*
X140997054Y-105578007D01*
X140972789Y-105590509D01*
X140753672Y-105591959D01*
X140534556Y-105593408D01*
X140536028Y-105731986D01*
X140536487Y-105772865D01*
X140536963Y-105804971D01*
X140537558Y-105829532D01*
X140538376Y-105847776D01*
X140539519Y-105860933D01*
X140541090Y-105870230D01*
X140543191Y-105876895D01*
X140545925Y-105882157D01*
X140548965Y-105886642D01*
X140564939Y-105901539D01*
X140578965Y-105907868D01*
X140588498Y-105909083D01*
X140607555Y-105910156D01*
X140635660Y-105911080D01*
X140672336Y-105911846D01*
X140717108Y-105912444D01*
X140769501Y-105912867D01*
X140829038Y-105913105D01*
X140865000Y-105913155D01*
X140923745Y-105913201D01*
X140973344Y-105913292D01*
X141014649Y-105913458D01*
X141048515Y-105913728D01*
X141075794Y-105914129D01*
X141097339Y-105914691D01*
X141114004Y-105915443D01*
X141126643Y-105916413D01*
X141136108Y-105917631D01*
X141143253Y-105919124D01*
X141148932Y-105920922D01*
X141153646Y-105922894D01*
X141175373Y-105937562D01*
X141189974Y-105957326D01*
X141197463Y-105980282D01*
X141197857Y-106004523D01*
X141191169Y-106028145D01*
X141177416Y-106049243D01*
X141156611Y-106065910D01*
X141152500Y-106068103D01*
X141127500Y-106080606D01*
X140845000Y-106081286D01*
X140791751Y-106081348D01*
X140740713Y-106081279D01*
X140692904Y-106081089D01*
X140649347Y-106080789D01*
X140611063Y-106080388D01*
X140579072Y-106079896D01*
X140554395Y-106079324D01*
X140538054Y-106078680D01*
X140532500Y-106078243D01*
X140480506Y-106067758D01*
X140435339Y-106050117D01*
X140397134Y-106025428D01*
X140366028Y-105993801D01*
X140342156Y-105955343D01*
X140326436Y-105913073D01*
X140324724Y-105906236D01*
X140323244Y-105898571D01*
X140321980Y-105889340D01*
X140320914Y-105877802D01*
X140320030Y-105863221D01*
X140319312Y-105844857D01*
X140318741Y-105821971D01*
X140318303Y-105793825D01*
X140317979Y-105759681D01*
X140317754Y-105718799D01*
X140317611Y-105670441D01*
X140317532Y-105613869D01*
X140317502Y-105548343D01*
X140317500Y-105517995D01*
X140317533Y-105445883D01*
X140317641Y-105383115D01*
X140317835Y-105329033D01*
X140318127Y-105282979D01*
X140318528Y-105244296D01*
X140319051Y-105212326D01*
X140319706Y-105186411D01*
X140320505Y-105165894D01*
X140321461Y-105150116D01*
X140322584Y-105138420D01*
X140323886Y-105130148D01*
X140324391Y-105127918D01*
X140340506Y-105082687D01*
X140364365Y-105043487D01*
X140395358Y-105010910D01*
X140432875Y-104985547D01*
X140476306Y-104967989D01*
X140493996Y-104963537D01*
X140505621Y-104962115D01*
X140526267Y-104960904D01*
X140556086Y-104959900D01*
X140595225Y-104959102D01*
X140643836Y-104958506D01*
X140702067Y-104958110D01*
X140770068Y-104957911D01*
X140809459Y-104957885D01*
X141098427Y-104957885D01*
X141120398Y-104969506D01*
G37*
G36*
X139691290Y-104942832D02*
G01*
X139733895Y-104945143D01*
X139771032Y-104949136D01*
X139777487Y-104950129D01*
X139813767Y-104957483D01*
X139853061Y-104967850D01*
X139892201Y-104980221D01*
X139928019Y-104993587D01*
X139957347Y-105006939D01*
X139959528Y-105008089D01*
X139997068Y-105030901D01*
X140031955Y-105057331D01*
X140062722Y-105085918D01*
X140087903Y-105115202D01*
X140106032Y-105143723D01*
X140113397Y-105161339D01*
X140117954Y-105177247D01*
X140119034Y-105188506D01*
X140116597Y-105199859D01*
X140112982Y-105209866D01*
X140097978Y-105236343D01*
X140076697Y-105255772D01*
X140050683Y-105267343D01*
X140021477Y-105270242D01*
X140003399Y-105267562D01*
X139990930Y-105263751D01*
X139979156Y-105257867D01*
X139966056Y-105248516D01*
X139949610Y-105234310D01*
X139934108Y-105219862D01*
X139889165Y-105182612D01*
X139841507Y-105153935D01*
X139789902Y-105133323D01*
X139733115Y-105120272D01*
X139677500Y-105114619D01*
X139624776Y-105114307D01*
X139575989Y-105118748D01*
X139532110Y-105127626D01*
X139494109Y-105140625D01*
X139462958Y-105157428D01*
X139439628Y-105177720D01*
X139427309Y-105196125D01*
X139420665Y-105217559D01*
X139418355Y-105242688D01*
X139420423Y-105267210D01*
X139426381Y-105285825D01*
X139439330Y-105305256D01*
X139457642Y-105323256D01*
X139482015Y-105340160D01*
X139513144Y-105356302D01*
X139551728Y-105372016D01*
X139598463Y-105387636D01*
X139654047Y-105403497D01*
X139692500Y-105413409D01*
X139776264Y-105435864D01*
X139850466Y-105459207D01*
X139915527Y-105483759D01*
X139971867Y-105509838D01*
X140019907Y-105537764D01*
X140060070Y-105567856D01*
X140092775Y-105600436D01*
X140118444Y-105635821D01*
X140137499Y-105674331D01*
X140150360Y-105716287D01*
X140157448Y-105762008D01*
X140157836Y-105766553D01*
X140157719Y-105816579D01*
X140148825Y-105862810D01*
X140130830Y-105906088D01*
X140103412Y-105947258D01*
X140077638Y-105976086D01*
X140055979Y-105996992D01*
X140036967Y-106012657D01*
X140017037Y-106025676D01*
X139992626Y-106038647D01*
X139990000Y-106039944D01*
X139933430Y-106063101D01*
X139870422Y-106080559D01*
X139802970Y-106091994D01*
X139733069Y-106097083D01*
X139662713Y-106095501D01*
X139652500Y-106094691D01*
X139568288Y-106083317D01*
X139486592Y-106064278D01*
X139409018Y-106038066D01*
X139337168Y-106005173D01*
X139308506Y-105989141D01*
X139282399Y-105972468D01*
X139255505Y-105953246D01*
X139229465Y-105932857D01*
X139205918Y-105912686D01*
X139186504Y-105894114D01*
X139172865Y-105878524D01*
X139167828Y-105870551D01*
X139161362Y-105846089D01*
X139163372Y-105820623D01*
X139172756Y-105796032D01*
X139188415Y-105774192D01*
X139209247Y-105756981D01*
X139234153Y-105746276D01*
X139241599Y-105744717D01*
X139257823Y-105744787D01*
X139276439Y-105750371D01*
X139298578Y-105762026D01*
X139325371Y-105780311D01*
X139346520Y-105796575D01*
X139408730Y-105839741D01*
X139475507Y-105874123D01*
X139546315Y-105899538D01*
X139620618Y-105915802D01*
X139697880Y-105922734D01*
X139717131Y-105922988D01*
X139772385Y-105920201D01*
X139820182Y-105912135D01*
X139860279Y-105898953D01*
X139892433Y-105880821D01*
X139916400Y-105857901D01*
X139931938Y-105830359D01*
X139938803Y-105798358D01*
X139938339Y-105773600D01*
X139930674Y-105742475D01*
X139914224Y-105714461D01*
X139888738Y-105689306D01*
X139853966Y-105666759D01*
X139812831Y-105647815D01*
X139796778Y-105642173D01*
X139772886Y-105634727D01*
X139743036Y-105626018D01*
X139709112Y-105616585D01*
X139672995Y-105606967D01*
X139647831Y-105600518D01*
X139587429Y-105584836D01*
X139535555Y-105570263D01*
X139490866Y-105556300D01*
X139452020Y-105542444D01*
X139417675Y-105528195D01*
X139386490Y-105513052D01*
X139357122Y-105496513D01*
X139339170Y-105485295D01*
X139293400Y-105450853D01*
X139256859Y-105412644D01*
X139229436Y-105370473D01*
X139211018Y-105324143D01*
X139201493Y-105273460D01*
X139200000Y-105241733D01*
X139204682Y-105192580D01*
X139218535Y-105146919D01*
X139241264Y-105105013D01*
X139272576Y-105067121D01*
X139312175Y-105033507D01*
X139359768Y-105004431D01*
X139415061Y-104980155D01*
X139477760Y-104960940D01*
X139527500Y-104950356D01*
X139561321Y-104945965D01*
X139601937Y-104943246D01*
X139646282Y-104942201D01*
X139691290Y-104942832D01*
G37*
G36*
X141905394Y-104943580D02*
G01*
X141951554Y-104947634D01*
X141993966Y-104954961D01*
X142035619Y-104966025D01*
X142062748Y-104975100D01*
X142124485Y-105002040D01*
X142179309Y-105036196D01*
X142227102Y-105077444D01*
X142267745Y-105125658D01*
X142301117Y-105180714D01*
X142327101Y-105242487D01*
X142331339Y-105255443D01*
X142336379Y-105271796D01*
X142340727Y-105286878D01*
X142344433Y-105301544D01*
X142347549Y-105316649D01*
X142350126Y-105333049D01*
X142352216Y-105351600D01*
X142353868Y-105373156D01*
X142355135Y-105398572D01*
X142356067Y-105428705D01*
X142356715Y-105464410D01*
X142357132Y-105506541D01*
X142357367Y-105555955D01*
X142357473Y-105613506D01*
X142357499Y-105680049D01*
X142357500Y-105693030D01*
X142357442Y-105749271D01*
X142357278Y-105802807D01*
X142357016Y-105852758D01*
X142356666Y-105898243D01*
X142356238Y-105938381D01*
X142355741Y-105972292D01*
X142355187Y-105999097D01*
X142354584Y-106017914D01*
X142353942Y-106027863D01*
X142353751Y-106028960D01*
X142344202Y-106048172D01*
X142327939Y-106066613D01*
X142307945Y-106081083D01*
X142302706Y-106083708D01*
X142275669Y-106091624D01*
X142245878Y-106093208D01*
X142216174Y-106088906D01*
X142189395Y-106079160D01*
X142168382Y-106064413D01*
X142166488Y-106062444D01*
X142159065Y-106053801D01*
X142153170Y-106044993D01*
X142148627Y-106034788D01*
X142145263Y-106021955D01*
X142142901Y-106005265D01*
X142141369Y-105983486D01*
X142140491Y-105955387D01*
X142140093Y-105919739D01*
X142140000Y-105875726D01*
X142140000Y-105738038D01*
X141852500Y-105738038D01*
X141565000Y-105738038D01*
X141565000Y-105878988D01*
X141564896Y-105924798D01*
X141564422Y-105961778D01*
X141563336Y-105991101D01*
X141561393Y-106013937D01*
X141558351Y-106031458D01*
X141553965Y-106044835D01*
X141547993Y-106055240D01*
X141540190Y-106063845D01*
X141530315Y-106071821D01*
X141524008Y-106076297D01*
X141511921Y-106083780D01*
X141500090Y-106088307D01*
X141485128Y-106090748D01*
X141463651Y-106091975D01*
X141462933Y-106092000D01*
X141438691Y-106092110D01*
X141420940Y-106090167D01*
X141406302Y-106085722D01*
X141402107Y-106083876D01*
X141377692Y-106067347D01*
X141360731Y-106044186D01*
X141354677Y-106028669D01*
X141353482Y-106019789D01*
X141352504Y-106001921D01*
X141351741Y-105974927D01*
X141351193Y-105938667D01*
X141350857Y-105893004D01*
X141350733Y-105837799D01*
X141350818Y-105772914D01*
X141351113Y-105698210D01*
X141351247Y-105673026D01*
X141351639Y-105603771D01*
X141351872Y-105568005D01*
X141563612Y-105568005D01*
X141852395Y-105568005D01*
X142141177Y-105568005D01*
X142138687Y-105454233D01*
X142137727Y-105415598D01*
X142136645Y-105385278D01*
X142135291Y-105361586D01*
X142133516Y-105342833D01*
X142131169Y-105327332D01*
X142128100Y-105313397D01*
X142125244Y-105302988D01*
X142106995Y-105253798D01*
X142083074Y-105212617D01*
X142052901Y-105178848D01*
X142015895Y-105151893D01*
X141971476Y-105131153D01*
X141952286Y-105124701D01*
X141928872Y-105119772D01*
X141898559Y-105116583D01*
X141864294Y-105115133D01*
X141829027Y-105115424D01*
X141795706Y-105117454D01*
X141767278Y-105121224D01*
X141752500Y-105124704D01*
X141706025Y-105142803D01*
X141666939Y-105166935D01*
X141634701Y-105197685D01*
X141608771Y-105235638D01*
X141588606Y-105281379D01*
X141579283Y-105311920D01*
X141575581Y-105327799D01*
X141572693Y-105345148D01*
X141570467Y-105365713D01*
X141568750Y-105391236D01*
X141567387Y-105423463D01*
X141566348Y-105459234D01*
X141563612Y-105568005D01*
X141351872Y-105568005D01*
X141352030Y-105543693D01*
X141352481Y-105491970D01*
X141353055Y-105447777D01*
X141353814Y-105410290D01*
X141354820Y-105378685D01*
X141356137Y-105352139D01*
X141357826Y-105329827D01*
X141359950Y-105310926D01*
X141362572Y-105294611D01*
X141365753Y-105280059D01*
X141369556Y-105266446D01*
X141374044Y-105252948D01*
X141379279Y-105238741D01*
X141385324Y-105223001D01*
X141385349Y-105222937D01*
X141404260Y-105179868D01*
X141426317Y-105142137D01*
X141453651Y-105106510D01*
X141482577Y-105075517D01*
X141527778Y-105035585D01*
X141576427Y-105003191D01*
X141629387Y-104978024D01*
X141687521Y-104959774D01*
X141751695Y-104948129D01*
X141822770Y-104942779D01*
X141852500Y-104942332D01*
X141905394Y-104943580D01*
G37*
G36*
X134118369Y-104942451D02*
G01*
X134133994Y-104943452D01*
X134202461Y-104951960D01*
X134268087Y-104966879D01*
X134329724Y-104987702D01*
X134386225Y-105013922D01*
X134436444Y-105045031D01*
X134479232Y-105080521D01*
X134503460Y-105106851D01*
X134519119Y-105130295D01*
X134525460Y-105151251D01*
X134522579Y-105170608D01*
X134512198Y-105187376D01*
X134494676Y-105201283D01*
X134473962Y-105206767D01*
X134451944Y-105204021D01*
X134430509Y-105193238D01*
X134413690Y-105177328D01*
X134385250Y-105148679D01*
X134348862Y-105121653D01*
X134306571Y-105097421D01*
X134260419Y-105077150D01*
X134212447Y-105062009D01*
X134211884Y-105061868D01*
X134193782Y-105057665D01*
X134176682Y-105054662D01*
X134158339Y-105052677D01*
X134136507Y-105051529D01*
X134108941Y-105051037D01*
X134077500Y-105051004D01*
X134042851Y-105051289D01*
X134016053Y-105052017D01*
X133994963Y-105053371D01*
X133977433Y-105055536D01*
X133961320Y-105058697D01*
X133947500Y-105062205D01*
X133886389Y-105083614D01*
X133831654Y-105112648D01*
X133783459Y-105149095D01*
X133741965Y-105192742D01*
X133707339Y-105243374D01*
X133679743Y-105300781D01*
X133659342Y-105364747D01*
X133646299Y-105435061D01*
X133643885Y-105456944D01*
X133641219Y-105512332D01*
X133642983Y-105570390D01*
X133648902Y-105627283D01*
X133658701Y-105679179D01*
X133660290Y-105685528D01*
X133680154Y-105744215D01*
X133707946Y-105798694D01*
X133742836Y-105847898D01*
X133783993Y-105890761D01*
X133830588Y-105926216D01*
X133860983Y-105943576D01*
X133898369Y-105960208D01*
X133936666Y-105972347D01*
X133978347Y-105980543D01*
X134025885Y-105985346D01*
X134055000Y-105986727D01*
X134118235Y-105986473D01*
X134174262Y-105981072D01*
X134224666Y-105970147D01*
X134271028Y-105953318D01*
X134314934Y-105930207D01*
X134329129Y-105921153D01*
X134366909Y-105891388D01*
X134396878Y-105856922D01*
X134420894Y-105815613D01*
X134421255Y-105814853D01*
X134427622Y-105800969D01*
X134432116Y-105789187D01*
X134435116Y-105777231D01*
X134437003Y-105762826D01*
X134438155Y-105743695D01*
X134438954Y-105717564D01*
X134439196Y-105707397D01*
X134439557Y-105672989D01*
X134438593Y-105647024D01*
X134435956Y-105627992D01*
X134431296Y-105614381D01*
X134424265Y-105604682D01*
X134414515Y-105597383D01*
X134413698Y-105596909D01*
X134407107Y-105594905D01*
X134394417Y-105593187D01*
X134374918Y-105591718D01*
X134347899Y-105590461D01*
X134312650Y-105589378D01*
X134268460Y-105588433D01*
X134243308Y-105588009D01*
X134084117Y-105585508D01*
X134072058Y-105571477D01*
X134062360Y-105553748D01*
X134059452Y-105533364D01*
X134063342Y-105513838D01*
X134071872Y-105500665D01*
X134077485Y-105495817D01*
X134084330Y-105491892D01*
X134093419Y-105488811D01*
X134105766Y-105486495D01*
X134122384Y-105484866D01*
X134144286Y-105483843D01*
X134172485Y-105483348D01*
X134207995Y-105483302D01*
X134251827Y-105483626D01*
X134285374Y-105483999D01*
X134329680Y-105484570D01*
X134365220Y-105485164D01*
X134393230Y-105485863D01*
X134414942Y-105486751D01*
X134431593Y-105487910D01*
X134444415Y-105489425D01*
X134454643Y-105491379D01*
X134463512Y-105493855D01*
X134471214Y-105496547D01*
X134498782Y-105508821D01*
X134519596Y-105523478D01*
X134536901Y-105542958D01*
X134541266Y-105549173D01*
X134550977Y-105565215D01*
X134558022Y-105581584D01*
X134562793Y-105600277D01*
X134565677Y-105623294D01*
X134567066Y-105652634D01*
X134567362Y-105683028D01*
X134566844Y-105720933D01*
X134564938Y-105751587D01*
X134561086Y-105777706D01*
X134554731Y-105802005D01*
X134545315Y-105827202D01*
X134532281Y-105856013D01*
X134531545Y-105857554D01*
X134519854Y-105880616D01*
X134508401Y-105899383D01*
X134494954Y-105916921D01*
X134477283Y-105936301D01*
X134465777Y-105948033D01*
X134416608Y-105991454D01*
X134363130Y-106026916D01*
X134304280Y-106054976D01*
X134238994Y-106076192D01*
X134207500Y-106083599D01*
X134176953Y-106088608D01*
X134140208Y-106092433D01*
X134100513Y-106094924D01*
X134061119Y-106095934D01*
X134025276Y-106095315D01*
X133998043Y-106093154D01*
X133924097Y-106079718D01*
X133854260Y-106058832D01*
X133790044Y-106030993D01*
X133763104Y-106016163D01*
X133722190Y-105987679D01*
X133681598Y-105951559D01*
X133643304Y-105910032D01*
X133609289Y-105865323D01*
X133581529Y-105819663D01*
X133572645Y-105801687D01*
X133546646Y-105733911D01*
X133528379Y-105661714D01*
X133517821Y-105586657D01*
X133514953Y-105510300D01*
X133519755Y-105434202D01*
X133532205Y-105359924D01*
X133552283Y-105289026D01*
X133579969Y-105223067D01*
X133580308Y-105222389D01*
X133615864Y-105162254D01*
X133658577Y-105108822D01*
X133707976Y-105062331D01*
X133763590Y-105023018D01*
X133824947Y-104991122D01*
X133891575Y-104966879D01*
X133963003Y-104950528D01*
X134038758Y-104942306D01*
X134118369Y-104942451D01*
G37*
G36*
X138128371Y-104945408D02*
G01*
X138131839Y-104946862D01*
X138135098Y-104948464D01*
X138138633Y-104950784D01*
X138142923Y-104954391D01*
X138148453Y-104959856D01*
X138155703Y-104967747D01*
X138165157Y-104978635D01*
X138177296Y-104993090D01*
X138192603Y-105011680D01*
X138211560Y-105034976D01*
X138234649Y-105063548D01*
X138262353Y-105097965D01*
X138295153Y-105138796D01*
X138333532Y-105186612D01*
X138351588Y-105209111D01*
X138519099Y-105417829D01*
X138706946Y-105183026D01*
X138746842Y-105133224D01*
X138781028Y-105090719D01*
X138809985Y-105054950D01*
X138834190Y-105025354D01*
X138854123Y-105001373D01*
X138870262Y-104982444D01*
X138883087Y-104968007D01*
X138893075Y-104957502D01*
X138900707Y-104950366D01*
X138906461Y-104946040D01*
X138910815Y-104943962D01*
X138911146Y-104943869D01*
X138932670Y-104942607D01*
X138951726Y-104949452D01*
X138966865Y-104962563D01*
X138976636Y-104980097D01*
X138979589Y-105000211D01*
X138974273Y-105021064D01*
X138973348Y-105022898D01*
X138969079Y-105028991D01*
X138959102Y-105042139D01*
X138943993Y-105061615D01*
X138924326Y-105086691D01*
X138900675Y-105116639D01*
X138873614Y-105150732D01*
X138843718Y-105188243D01*
X138811561Y-105228443D01*
X138781866Y-105265445D01*
X138748333Y-105307191D01*
X138716640Y-105346695D01*
X138687346Y-105383253D01*
X138661012Y-105416165D01*
X138638200Y-105444728D01*
X138619470Y-105468241D01*
X138605382Y-105486000D01*
X138596498Y-105497305D01*
X138593413Y-105501384D01*
X138595784Y-105506412D01*
X138604169Y-105518732D01*
X138618233Y-105537909D01*
X138637639Y-105563507D01*
X138662052Y-105595091D01*
X138691138Y-105632227D01*
X138724560Y-105674478D01*
X138761982Y-105721410D01*
X138788064Y-105753933D01*
X138822909Y-105797285D01*
X138856031Y-105838471D01*
X138886876Y-105876804D01*
X138914891Y-105911600D01*
X138939522Y-105942170D01*
X138960218Y-105967829D01*
X138976425Y-105987891D01*
X138987589Y-106001670D01*
X138993159Y-106008479D01*
X138993561Y-106008954D01*
X138999027Y-106019345D01*
X139003040Y-106034073D01*
X139003447Y-106036703D01*
X139001628Y-106056686D01*
X138991991Y-106073944D01*
X138976646Y-106086945D01*
X138957703Y-106094157D01*
X138937272Y-106094049D01*
X138928290Y-106091261D01*
X138923312Y-106088171D01*
X138916187Y-106081948D01*
X138906484Y-106072081D01*
X138893770Y-106058059D01*
X138877613Y-106039371D01*
X138857581Y-106015508D01*
X138833240Y-105985958D01*
X138804159Y-105950212D01*
X138769905Y-105907759D01*
X138730047Y-105858088D01*
X138717342Y-105842215D01*
X138683098Y-105799518D01*
X138650624Y-105759227D01*
X138620467Y-105722010D01*
X138593175Y-105688532D01*
X138569297Y-105659461D01*
X138549380Y-105635463D01*
X138533973Y-105617205D01*
X138523623Y-105605355D01*
X138518878Y-105600578D01*
X138518701Y-105600511D01*
X138514716Y-105604308D01*
X138505045Y-105615249D01*
X138490243Y-105632665D01*
X138470864Y-105655884D01*
X138447461Y-105684235D01*
X138420588Y-105717047D01*
X138390799Y-105753648D01*
X138358649Y-105793368D01*
X138324690Y-105835535D01*
X138322663Y-105838058D01*
X138288236Y-105880771D01*
X138255261Y-105921386D01*
X138224336Y-105959187D01*
X138196056Y-105993459D01*
X138171018Y-106023487D01*
X138149819Y-106048554D01*
X138133055Y-106067947D01*
X138121323Y-106080949D01*
X138115219Y-106086846D01*
X138115202Y-106086857D01*
X138096225Y-106096120D01*
X138078038Y-106096624D01*
X138066940Y-106093208D01*
X138050987Y-106081818D01*
X138040106Y-106064385D01*
X138035311Y-106044007D01*
X138037615Y-106023780D01*
X138041427Y-106015227D01*
X138045557Y-106009591D01*
X138055407Y-105996854D01*
X138070429Y-105977706D01*
X138090074Y-105952841D01*
X138113794Y-105922947D01*
X138141039Y-105888718D01*
X138171261Y-105850844D01*
X138203911Y-105810017D01*
X138238440Y-105766927D01*
X138246250Y-105757193D01*
X138280921Y-105713929D01*
X138313670Y-105672946D01*
X138343971Y-105634913D01*
X138371295Y-105600497D01*
X138395115Y-105570365D01*
X138414904Y-105545185D01*
X138430134Y-105525625D01*
X138440277Y-105512353D01*
X138444806Y-105506037D01*
X138445000Y-105505623D01*
X138441959Y-105501122D01*
X138433199Y-105489511D01*
X138419262Y-105471482D01*
X138400691Y-105447722D01*
X138378028Y-105418923D01*
X138351816Y-105385772D01*
X138322597Y-105348961D01*
X138290914Y-105309177D01*
X138258096Y-105268096D01*
X138224332Y-105225836D01*
X138192345Y-105185689D01*
X138162697Y-105148370D01*
X138135954Y-105114596D01*
X138112679Y-105085081D01*
X138093438Y-105060541D01*
X138078793Y-105041691D01*
X138069309Y-105029247D01*
X138065596Y-105024013D01*
X138061917Y-105012161D01*
X138060055Y-104996430D01*
X138060000Y-104993499D01*
X138064253Y-104972602D01*
X138075620Y-104956021D01*
X138092014Y-104945225D01*
X138111344Y-104941683D01*
X138128371Y-104945408D01*
G37*
G36*
X138110169Y-99139272D02*
G01*
X138172239Y-99142023D01*
X138227413Y-99146511D01*
X138274526Y-99152672D01*
X138296846Y-99156808D01*
X138371408Y-99176216D01*
X138447512Y-99202947D01*
X138521747Y-99235638D01*
X138590699Y-99272925D01*
X138597057Y-99276784D01*
X138638556Y-99302237D01*
X138738028Y-99301480D01*
X138766295Y-99301270D01*
X138789751Y-99301299D01*
X138809886Y-99301846D01*
X138828190Y-99303188D01*
X138846154Y-99305604D01*
X138865266Y-99309371D01*
X138887017Y-99314768D01*
X138912897Y-99322074D01*
X138944395Y-99331565D01*
X138983003Y-99343520D01*
X139012500Y-99352708D01*
X139053384Y-99365956D01*
X139098803Y-99381568D01*
X139147173Y-99398928D01*
X139196908Y-99417420D01*
X139246426Y-99436428D01*
X139294142Y-99455335D01*
X139338472Y-99473524D01*
X139377832Y-99490379D01*
X139410638Y-99505285D01*
X139432500Y-99516126D01*
X139457500Y-99529316D01*
X139176250Y-99530608D01*
X139124256Y-99530919D01*
X139075377Y-99531351D01*
X139030505Y-99531887D01*
X138990534Y-99532510D01*
X138956354Y-99533201D01*
X138928860Y-99533944D01*
X138908943Y-99534722D01*
X138897496Y-99535516D01*
X138895000Y-99536084D01*
X138898344Y-99542205D01*
X138905185Y-99549488D01*
X138911736Y-99556571D01*
X138923023Y-99569966D01*
X138937708Y-99588037D01*
X138954453Y-99609151D01*
X138963132Y-99620277D01*
X139010894Y-99681846D01*
X139379702Y-99681846D01*
X139748510Y-99681846D01*
X139770587Y-99693587D01*
X139788789Y-99703934D01*
X139813602Y-99719005D01*
X139843454Y-99737777D01*
X139876775Y-99759227D01*
X139911991Y-99782331D01*
X139947531Y-99806064D01*
X139981822Y-99829404D01*
X140013294Y-99851327D01*
X140018737Y-99855185D01*
X140094974Y-99909391D01*
X139632694Y-99911892D01*
X139170415Y-99914392D01*
X139218342Y-99990657D01*
X139266268Y-100066922D01*
X139777658Y-100066922D01*
X140289047Y-100066922D01*
X140338269Y-100110681D01*
X140358201Y-100128761D01*
X140382967Y-100151781D01*
X140410320Y-100177619D01*
X140438010Y-100204153D01*
X140459996Y-100225535D01*
X140532500Y-100296631D01*
X140476207Y-100296799D01*
X140419914Y-100296967D01*
X140434600Y-100323223D01*
X140444055Y-100343114D01*
X140452894Y-100366613D01*
X140457445Y-100381984D01*
X140462561Y-100402249D01*
X140467492Y-100421600D01*
X140470495Y-100433244D01*
X140475385Y-100451998D01*
X140573942Y-100452049D01*
X140672500Y-100452101D01*
X140720465Y-100510811D01*
X140742143Y-100537650D01*
X140766102Y-100567809D01*
X140789487Y-100597668D01*
X140809446Y-100623608D01*
X140810147Y-100624532D01*
X140851864Y-100679543D01*
X140826312Y-100681041D01*
X140800759Y-100682540D01*
X140821749Y-100703546D01*
X140846284Y-100734998D01*
X140862298Y-100771231D01*
X140868832Y-100805818D01*
X140871369Y-100837074D01*
X140915265Y-100837074D01*
X140959161Y-100837074D01*
X140994423Y-100894339D01*
X141012091Y-100923368D01*
X141029641Y-100952805D01*
X141046309Y-100981308D01*
X141061331Y-101007533D01*
X141073945Y-101030137D01*
X141083386Y-101047778D01*
X141088892Y-101059112D01*
X141090000Y-101062493D01*
X141085101Y-101063470D01*
X141070809Y-101064354D01*
X141047732Y-101065136D01*
X141016476Y-101065805D01*
X140977648Y-101066351D01*
X140931854Y-101066764D01*
X140879703Y-101067033D01*
X140821800Y-101067149D01*
X140811250Y-101067153D01*
X140532500Y-101067187D01*
X140521522Y-101083406D01*
X140510088Y-101102860D01*
X140497573Y-101128198D01*
X140485656Y-101155694D01*
X140476016Y-101181618D01*
X140473121Y-101190893D01*
X140465539Y-101217148D01*
X140817697Y-101217148D01*
X141169856Y-101217148D01*
X141184341Y-101245904D01*
X141191237Y-101260253D01*
X141200649Y-101280747D01*
X141211747Y-101305478D01*
X141223699Y-101332538D01*
X141235673Y-101360018D01*
X141246838Y-101386011D01*
X141256363Y-101408607D01*
X141263415Y-101425899D01*
X141267151Y-101435942D01*
X141268443Y-101441415D01*
X141266894Y-101444744D01*
X141260685Y-101446462D01*
X141247995Y-101447100D01*
X141228708Y-101447194D01*
X141207751Y-101447445D01*
X141194148Y-101448621D01*
X141185261Y-101451354D01*
X141178447Y-101456276D01*
X141174621Y-101460151D01*
X141166012Y-101467899D01*
X141151160Y-101479802D01*
X141132045Y-101494323D01*
X141110648Y-101509927D01*
X141107500Y-101512171D01*
X141083448Y-101529481D01*
X141058943Y-101547505D01*
X141036899Y-101564078D01*
X141020612Y-101576729D01*
X140988725Y-101602224D01*
X141159183Y-101602224D01*
X141329641Y-101602224D01*
X141352026Y-101673488D01*
X141361235Y-101703097D01*
X141370551Y-101733559D01*
X141378987Y-101761612D01*
X141385556Y-101783999D01*
X141386488Y-101787261D01*
X141398566Y-101829769D01*
X141067174Y-101831055D01*
X140735783Y-101832340D01*
X140663064Y-101908570D01*
X140590344Y-101984800D01*
X141013856Y-101987300D01*
X141437367Y-101989801D01*
X141453462Y-102072317D01*
X141459199Y-102102577D01*
X141464485Y-102131998D01*
X141468886Y-102158062D01*
X141471972Y-102178256D01*
X141472968Y-102186089D01*
X141476380Y-102217345D01*
X140931918Y-102217345D01*
X140387456Y-102217345D01*
X140326617Y-102293610D01*
X140265778Y-102369875D01*
X140882171Y-102371145D01*
X141498565Y-102372415D01*
X141501652Y-102411153D01*
X141503549Y-102435496D01*
X141505724Y-102464169D01*
X141507748Y-102491525D01*
X141508011Y-102495151D01*
X141511283Y-102540411D01*
X141461891Y-102570166D01*
X141412500Y-102599921D01*
X140752500Y-102601365D01*
X140092500Y-102602809D01*
X140045000Y-102672944D01*
X140029197Y-102696403D01*
X140015421Y-102717093D01*
X140004631Y-102733550D01*
X139997792Y-102744311D01*
X139995833Y-102747765D01*
X140000505Y-102748504D01*
X140014841Y-102749189D01*
X140038507Y-102749816D01*
X140071166Y-102750384D01*
X140112484Y-102750889D01*
X140162125Y-102751328D01*
X140219754Y-102751699D01*
X140285035Y-102752000D01*
X140357633Y-102752226D01*
X140437213Y-102752375D01*
X140523440Y-102752445D01*
X140555583Y-102752451D01*
X140646770Y-102752492D01*
X140730626Y-102752616D01*
X140806887Y-102752818D01*
X140875294Y-102753098D01*
X140935583Y-102753453D01*
X140987494Y-102753881D01*
X141030765Y-102754380D01*
X141065134Y-102754946D01*
X141090339Y-102755579D01*
X141106120Y-102756276D01*
X141112214Y-102757034D01*
X141112250Y-102757191D01*
X141105330Y-102761534D01*
X141090430Y-102769177D01*
X141068796Y-102779564D01*
X141041675Y-102792140D01*
X141010314Y-102806350D01*
X140975961Y-102821639D01*
X140939862Y-102837452D01*
X140903263Y-102853234D01*
X140867413Y-102868429D01*
X140833558Y-102882484D01*
X140803676Y-102894552D01*
X140638662Y-102956425D01*
X140476389Y-103009831D01*
X140315026Y-103055202D01*
X140152746Y-103092969D01*
X139987719Y-103123562D01*
X139818115Y-103147411D01*
X139662500Y-103163259D01*
X139632184Y-103165246D01*
X139593624Y-103166856D01*
X139548568Y-103168088D01*
X139498765Y-103168943D01*
X139445963Y-103169418D01*
X139391912Y-103169515D01*
X139338359Y-103169232D01*
X139287053Y-103168568D01*
X139239744Y-103167524D01*
X139198178Y-103166098D01*
X139164106Y-103164290D01*
X139152500Y-103163421D01*
X139042831Y-103152949D01*
X138935657Y-103140038D01*
X138829446Y-103124391D01*
X138722667Y-103105710D01*
X138613790Y-103083698D01*
X138501282Y-103058057D01*
X138383614Y-103028491D01*
X138259255Y-102994700D01*
X138205434Y-102979400D01*
X138093369Y-102947163D01*
X137760434Y-102946971D01*
X137702515Y-102946999D01*
X137646700Y-102947145D01*
X137593932Y-102947399D01*
X137545155Y-102947750D01*
X137501314Y-102948189D01*
X137463351Y-102948706D01*
X137432212Y-102949290D01*
X137408839Y-102949932D01*
X137394178Y-102950622D01*
X137391178Y-102950884D01*
X137354857Y-102954991D01*
X137468678Y-102988935D01*
X137504584Y-102999745D01*
X137547377Y-103012794D01*
X137594423Y-103027270D01*
X137643086Y-103042357D01*
X137690732Y-103057243D01*
X137732500Y-103070407D01*
X137832590Y-103102004D01*
X137924067Y-103130617D01*
X138007783Y-103156489D01*
X138084591Y-103179864D01*
X138155343Y-103200983D01*
X138220891Y-103220089D01*
X138282089Y-103237424D01*
X138339789Y-103253232D01*
X138394842Y-103267755D01*
X138448102Y-103281235D01*
X138500421Y-103293915D01*
X138552652Y-103306037D01*
X138590000Y-103314405D01*
X138776843Y-103351563D01*
X138960446Y-103379632D01*
X139141663Y-103398649D01*
X139321350Y-103408650D01*
X139500360Y-103409671D01*
X139679551Y-103401748D01*
X139859776Y-103384918D01*
X139957500Y-103372186D01*
X140145314Y-103340406D01*
X140333573Y-103298737D01*
X140522035Y-103247269D01*
X140710460Y-103186091D01*
X140898607Y-103115293D01*
X141086236Y-103034963D01*
X141273107Y-102945193D01*
X141458977Y-102846070D01*
X141613872Y-102755820D01*
X141638092Y-102741073D01*
X141659549Y-102727853D01*
X141676671Y-102717140D01*
X141687886Y-102709915D01*
X141691372Y-102707464D01*
X141697400Y-102703021D01*
X141710174Y-102694002D01*
X141728178Y-102681466D01*
X141749894Y-102666472D01*
X141766613Y-102654996D01*
X141818638Y-102618733D01*
X141867571Y-102583374D01*
X141912803Y-102549427D01*
X141953728Y-102517405D01*
X141989738Y-102487817D01*
X142020225Y-102461173D01*
X142044582Y-102437984D01*
X142062201Y-102418759D01*
X142072475Y-102404011D01*
X142075000Y-102395931D01*
X142072176Y-102392410D01*
X142063418Y-102391417D01*
X142048295Y-102393061D01*
X142026377Y-102397448D01*
X141997232Y-102404687D01*
X141960429Y-102414884D01*
X141915539Y-102428147D01*
X141862130Y-102444584D01*
X141799771Y-102464301D01*
X141795693Y-102465604D01*
X141763387Y-102475857D01*
X141734388Y-102484910D01*
X141710001Y-102492369D01*
X141691535Y-102497838D01*
X141680296Y-102500920D01*
X141677397Y-102501428D01*
X141676382Y-102496105D01*
X141674904Y-102483112D01*
X141673210Y-102464757D01*
X141672357Y-102454254D01*
X141668805Y-102408608D01*
X141723152Y-102390712D01*
X141817469Y-102360494D01*
X141902951Y-102334864D01*
X141979593Y-102313821D01*
X142047391Y-102297367D01*
X142106338Y-102285503D01*
X142156432Y-102278229D01*
X142197666Y-102275546D01*
X142230035Y-102277454D01*
X142253535Y-102283956D01*
X142268161Y-102295050D01*
X142273037Y-102305225D01*
X142274335Y-102327247D01*
X142268174Y-102353708D01*
X142254429Y-102384815D01*
X142232976Y-102420774D01*
X142203689Y-102461792D01*
X142166445Y-102508076D01*
X142121118Y-102559833D01*
X142116504Y-102564914D01*
X142020549Y-102664360D01*
X141920505Y-102756218D01*
X141815165Y-102841437D01*
X141703323Y-102920967D01*
X141583775Y-102995759D01*
X141532500Y-103025137D01*
X141367973Y-103112516D01*
X141195594Y-103195327D01*
X141016624Y-103273116D01*
X140832325Y-103345428D01*
X140643961Y-103411808D01*
X140452792Y-103471802D01*
X140260082Y-103524953D01*
X140067094Y-103570808D01*
X139952500Y-103594472D01*
X139868520Y-103610083D01*
X139791755Y-103622655D01*
X139719957Y-103632384D01*
X139650881Y-103639466D01*
X139582277Y-103644098D01*
X139511899Y-103646476D01*
X139437499Y-103646796D01*
X139367500Y-103645546D01*
X139230839Y-103639836D01*
X139098949Y-103629834D01*
X138969196Y-103615200D01*
X138838945Y-103595594D01*
X138705561Y-103570676D01*
X138585905Y-103544639D01*
X138535830Y-103532877D01*
X138486339Y-103520780D01*
X138436452Y-103508069D01*
X138385192Y-103494462D01*
X138331580Y-103479681D01*
X138274638Y-103463444D01*
X138213386Y-103445471D01*
X138146846Y-103425483D01*
X138074039Y-103403198D01*
X137993988Y-103378338D01*
X137905713Y-103350621D01*
X137880010Y-103342506D01*
X137779486Y-103310860D01*
X137687578Y-103282202D01*
X137603435Y-103256293D01*
X137526208Y-103232895D01*
X137455046Y-103211770D01*
X137389100Y-103192679D01*
X137327520Y-103175383D01*
X137269455Y-103159646D01*
X137214056Y-103145227D01*
X137160472Y-103131889D01*
X137107854Y-103119393D01*
X137055352Y-103107501D01*
X137002115Y-103095975D01*
X136997500Y-103094998D01*
X136948370Y-103084984D01*
X136896679Y-103075106D01*
X136843796Y-103065576D01*
X136791090Y-103056606D01*
X136739932Y-103048409D01*
X136691691Y-103041197D01*
X136647737Y-103035182D01*
X136609439Y-103030577D01*
X136578168Y-103027593D01*
X136555293Y-103026443D01*
X136555000Y-103026440D01*
X136541819Y-103027160D01*
X136519930Y-103029333D01*
X136490493Y-103032796D01*
X136454667Y-103037384D01*
X136413613Y-103042936D01*
X136368491Y-103049288D01*
X136320460Y-103056277D01*
X136270681Y-103063739D01*
X136220315Y-103071513D01*
X136170520Y-103079433D01*
X136125000Y-103086913D01*
X136012500Y-103105722D01*
X136202500Y-103108763D01*
X136321381Y-103111947D01*
X136433171Y-103117743D01*
X136540506Y-103126438D01*
X136646020Y-103138319D01*
X136752348Y-103153672D01*
X136862125Y-103172785D01*
X136950000Y-103190107D01*
X137002568Y-103201158D01*
X137054077Y-103212475D01*
X137105348Y-103224287D01*
X137157198Y-103236822D01*
X137210447Y-103250310D01*
X137265914Y-103264978D01*
X137324418Y-103281055D01*
X137386779Y-103298770D01*
X137453815Y-103318351D01*
X137526346Y-103340026D01*
X137605191Y-103364024D01*
X137691169Y-103390574D01*
X137785099Y-103419903D01*
X137872500Y-103447409D01*
X137993454Y-103485199D01*
X138106023Y-103519512D01*
X138211117Y-103550556D01*
X138309647Y-103578538D01*
X138402525Y-103603667D01*
X138490660Y-103626150D01*
X138574964Y-103646195D01*
X138656347Y-103664010D01*
X138735722Y-103679802D01*
X138813998Y-103693780D01*
X138892086Y-103706151D01*
X138970897Y-103717123D01*
X139051343Y-103726905D01*
X139134334Y-103735703D01*
X139137500Y-103736015D01*
X139163300Y-103738344D01*
X139189753Y-103740248D01*
X139218140Y-103741764D01*
X139249743Y-103742927D01*
X139285842Y-103743773D01*
X139327720Y-103744336D01*
X139376657Y-103744653D01*
X139433936Y-103744760D01*
X139452500Y-103744756D01*
X139506072Y-103744710D01*
X139550864Y-103744602D01*
X139588097Y-103744378D01*
X139618991Y-103743984D01*
X139644766Y-103743366D01*
X139666642Y-103742471D01*
X139685840Y-103741244D01*
X139703581Y-103739631D01*
X139721083Y-103737579D01*
X139739568Y-103735034D01*
X139760256Y-103731941D01*
X139767500Y-103730833D01*
X139939826Y-103701126D01*
X140114792Y-103664585D01*
X140291210Y-103621625D01*
X140467893Y-103572663D01*
X140643655Y-103518113D01*
X140817308Y-103458393D01*
X140987667Y-103393916D01*
X141153544Y-103325100D01*
X141313752Y-103252361D01*
X141467105Y-103176113D01*
X141612415Y-103096773D01*
X141665000Y-103066065D01*
X141782540Y-102990783D01*
X141898470Y-102905802D01*
X142012856Y-102811065D01*
X142125764Y-102706520D01*
X142221840Y-102608609D01*
X142284704Y-102539919D01*
X142339162Y-102476376D01*
X142385294Y-102417836D01*
X142423180Y-102364156D01*
X142452901Y-102315190D01*
X142474535Y-102270794D01*
X142488163Y-102230824D01*
X142493866Y-102195136D01*
X142491721Y-102163584D01*
X142482547Y-102137422D01*
X142470547Y-102120875D01*
X142452777Y-102103890D01*
X142432839Y-102089527D01*
X142416903Y-102081672D01*
X142401545Y-102078400D01*
X142378277Y-102076145D01*
X142349135Y-102074886D01*
X142316154Y-102074600D01*
X142281370Y-102075266D01*
X142246819Y-102076861D01*
X142214536Y-102079363D01*
X142186558Y-102082752D01*
X142177500Y-102084263D01*
X142113063Y-102097448D01*
X142040641Y-102114750D01*
X141961235Y-102135898D01*
X141875846Y-102160619D01*
X141785474Y-102188644D01*
X141749462Y-102200290D01*
X141719741Y-102209936D01*
X141693179Y-102218421D01*
X141671265Y-102225277D01*
X141655490Y-102230042D01*
X141647345Y-102232250D01*
X141646673Y-102232348D01*
X141644151Y-102227705D01*
X141640442Y-102214939D01*
X141635979Y-102195800D01*
X141631190Y-102172036D01*
X141629325Y-102161882D01*
X141616730Y-102091415D01*
X141628911Y-102086783D01*
X141639363Y-102083509D01*
X141658232Y-102078315D01*
X141684188Y-102071524D01*
X141715902Y-102063458D01*
X141752046Y-102054441D01*
X141791290Y-102044796D01*
X141832306Y-102034845D01*
X141873764Y-102024912D01*
X141914336Y-102015319D01*
X141952692Y-102006389D01*
X141987503Y-101998445D01*
X142017442Y-101991811D01*
X142035792Y-101987911D01*
X142118981Y-101971247D01*
X142194076Y-101957421D01*
X142262513Y-101946235D01*
X142325724Y-101937493D01*
X142385145Y-101930995D01*
X142442210Y-101926543D01*
X142498353Y-101923942D01*
X142500000Y-101923891D01*
X142564163Y-101923639D01*
X142619503Y-101927139D01*
X142666528Y-101934549D01*
X142705747Y-101946029D01*
X142737668Y-101961738D01*
X142762801Y-101981836D01*
X142781654Y-102006481D01*
X142785350Y-102013185D01*
X142795761Y-102044044D01*
X142798353Y-102080733D01*
X142793231Y-102122982D01*
X142780502Y-102170521D01*
X142760271Y-102223081D01*
X142732646Y-102280392D01*
X142697732Y-102342184D01*
X142655635Y-102408188D01*
X142606461Y-102478135D01*
X142597776Y-102489899D01*
X142512458Y-102597899D01*
X142417737Y-102705084D01*
X142314203Y-102810928D01*
X142202449Y-102914901D01*
X142083067Y-103016475D01*
X141956649Y-103115122D01*
X141823787Y-103210313D01*
X141697500Y-103293665D01*
X141563409Y-103374493D01*
X141420642Y-103452536D01*
X141270229Y-103527418D01*
X141113202Y-103598758D01*
X140950590Y-103666178D01*
X140783424Y-103729301D01*
X140612735Y-103787747D01*
X140439552Y-103841138D01*
X140264907Y-103889096D01*
X140089830Y-103931242D01*
X139915352Y-103967198D01*
X139815062Y-103985028D01*
X139756557Y-103994034D01*
X139699672Y-104001084D01*
X139642473Y-104006291D01*
X139583023Y-104009771D01*
X139519386Y-104011638D01*
X139449628Y-104012006D01*
X139375000Y-104011054D01*
X139283805Y-104008462D01*
X139199223Y-104004268D01*
X139118262Y-103998192D01*
X139037931Y-103989951D01*
X138955238Y-103979264D01*
X138867192Y-103965849D01*
X138831076Y-103959871D01*
X138773410Y-103949787D01*
X138716507Y-103939071D01*
X138659554Y-103927506D01*
X138601736Y-103914877D01*
X138542242Y-103900967D01*
X138480257Y-103885560D01*
X138414968Y-103868441D01*
X138345562Y-103849393D01*
X138271224Y-103828201D01*
X138191143Y-103804648D01*
X138104503Y-103778518D01*
X138010493Y-103749595D01*
X137908297Y-103717664D01*
X137850897Y-103699560D01*
X137703536Y-103653440D01*
X137564771Y-103611080D01*
X137433969Y-103572384D01*
X137310499Y-103537255D01*
X137193727Y-103505599D01*
X137083024Y-103477319D01*
X136977756Y-103452318D01*
X136877292Y-103430501D01*
X136781000Y-103411772D01*
X136688248Y-103396034D01*
X136598404Y-103383191D01*
X136510837Y-103373148D01*
X136424914Y-103365808D01*
X136340004Y-103361075D01*
X136255475Y-103358854D01*
X136170695Y-103359048D01*
X136085031Y-103361560D01*
X135997853Y-103366296D01*
X135908529Y-103373158D01*
X135816425Y-103382051D01*
X135785000Y-103385450D01*
X135601743Y-103409415D01*
X135419755Y-103440656D01*
X135237116Y-103479559D01*
X135051910Y-103526504D01*
X134985000Y-103545229D01*
X134883140Y-103575487D01*
X134783828Y-103607251D01*
X134685409Y-103641142D01*
X134586230Y-103677783D01*
X134484637Y-103717796D01*
X134378977Y-103761804D01*
X134267596Y-103810429D01*
X134202500Y-103839729D01*
X134158370Y-103859835D01*
X134122269Y-103876426D01*
X134093090Y-103890059D01*
X134069727Y-103901287D01*
X134051075Y-103910668D01*
X134036026Y-103918756D01*
X134023475Y-103926107D01*
X134012316Y-103933276D01*
X134002023Y-103940407D01*
X133980288Y-103957408D01*
X133958440Y-103977197D01*
X133937608Y-103998419D01*
X133918921Y-104019720D01*
X133903507Y-104039745D01*
X133892497Y-104057139D01*
X133887018Y-104070548D01*
X133887534Y-104077767D01*
X133895728Y-104082021D01*
X133911344Y-104082092D01*
X133932803Y-104078159D01*
X133958528Y-104070399D01*
X133960952Y-104069535D01*
X133974998Y-104063921D01*
X133996490Y-104054620D01*
X134023887Y-104042332D01*
X134055647Y-104027759D01*
X134090229Y-104011600D01*
X134126094Y-103994558D01*
X134131383Y-103992020D01*
X134165178Y-103975808D01*
X134195960Y-103961095D01*
X134222605Y-103948414D01*
X134243985Y-103938300D01*
X134258974Y-103931287D01*
X134266447Y-103927908D01*
X134267070Y-103927682D01*
X134272036Y-103925683D01*
X134284169Y-103920251D01*
X134301599Y-103912237D01*
X134320687Y-103903322D01*
X134437816Y-103850771D01*
X134562311Y-103799588D01*
X134691545Y-103750700D01*
X134822895Y-103705036D01*
X134953733Y-103663525D01*
X135081436Y-103627096D01*
X135155727Y-103607998D01*
X135326663Y-103569280D01*
X135493488Y-103538256D01*
X135658175Y-103514682D01*
X135822698Y-103498313D01*
X135989030Y-103488906D01*
X136142500Y-103486191D01*
X136260311Y-103487581D01*
X136372778Y-103491964D01*
X136482278Y-103499583D01*
X136591187Y-103510682D01*
X136701884Y-103525503D01*
X136816744Y-103544288D01*
X136938146Y-103567281D01*
X136940000Y-103567653D01*
X137000498Y-103580167D01*
X137060718Y-103593376D01*
X137121573Y-103607533D01*
X137183979Y-103622889D01*
X137248850Y-103639694D01*
X137317101Y-103658201D01*
X137389645Y-103678659D01*
X137467398Y-103701320D01*
X137551275Y-103726435D01*
X137642189Y-103754256D01*
X137741055Y-103785033D01*
X137805000Y-103805158D01*
X137887694Y-103831220D01*
X137961868Y-103854463D01*
X138028505Y-103875178D01*
X138088590Y-103893654D01*
X138143105Y-103910179D01*
X138193036Y-103925044D01*
X138239367Y-103938537D01*
X138283081Y-103950948D01*
X138325163Y-103962567D01*
X138366596Y-103973682D01*
X138408366Y-103984584D01*
X138451456Y-103995561D01*
X138458926Y-103997441D01*
X138646588Y-104040740D01*
X138830290Y-104075239D01*
X139010743Y-104100984D01*
X139188662Y-104118018D01*
X139364757Y-104126384D01*
X139539742Y-104126127D01*
X139714330Y-104117290D01*
X139889232Y-104099917D01*
X139963642Y-104089987D01*
X140153007Y-104057868D01*
X140342545Y-104015865D01*
X140531953Y-103964083D01*
X140720929Y-103902628D01*
X140909167Y-103831608D01*
X141096364Y-103751127D01*
X141282218Y-103661292D01*
X141455000Y-103568652D01*
X141477293Y-103556463D01*
X141496302Y-103546723D01*
X141510452Y-103540187D01*
X141518167Y-103537613D01*
X141519102Y-103537869D01*
X141518892Y-103545064D01*
X141516559Y-103560732D01*
X141512353Y-103583632D01*
X141506529Y-103612524D01*
X141499338Y-103646165D01*
X141491034Y-103683314D01*
X141481868Y-103722729D01*
X141479339Y-103733342D01*
X141459414Y-103816556D01*
X141385957Y-103857368D01*
X141345392Y-103879385D01*
X141298318Y-103904064D01*
X141246717Y-103930430D01*
X141192574Y-103957506D01*
X141137872Y-103984317D01*
X141084597Y-104009889D01*
X141034731Y-104033245D01*
X140990259Y-104053410D01*
X140963686Y-104064983D01*
X140775193Y-104140461D01*
X140587544Y-104206005D01*
X140400570Y-104261633D01*
X140214103Y-104307360D01*
X140027977Y-104343203D01*
X139842024Y-104369180D01*
X139656076Y-104385308D01*
X139469965Y-104391602D01*
X139283524Y-104388081D01*
X139096586Y-104374761D01*
X138908982Y-104351658D01*
X138720546Y-104318790D01*
X138630037Y-104299613D01*
X138576600Y-104287428D01*
X138524313Y-104275021D01*
X138472188Y-104262112D01*
X138419239Y-104248421D01*
X138364475Y-104233670D01*
X138306911Y-104217577D01*
X138245557Y-104199864D01*
X138179426Y-104180250D01*
X138107529Y-104158456D01*
X138028880Y-104134203D01*
X137942489Y-104107210D01*
X137872500Y-104085151D01*
X137754493Y-104048079D01*
X137645117Y-104014241D01*
X137543608Y-103983446D01*
X137449200Y-103955504D01*
X137361129Y-103930225D01*
X137278629Y-103907418D01*
X137200937Y-103886893D01*
X137127287Y-103868459D01*
X137056914Y-103851926D01*
X136989055Y-103837103D01*
X136922943Y-103823800D01*
X136857814Y-103811827D01*
X136792905Y-103800992D01*
X136727448Y-103791107D01*
X136660681Y-103781980D01*
X136648797Y-103780445D01*
X136586843Y-103772800D01*
X136530269Y-103766513D01*
X136477081Y-103761468D01*
X136425288Y-103757549D01*
X136372897Y-103754639D01*
X136317913Y-103752622D01*
X136258345Y-103751382D01*
X136192200Y-103750802D01*
X136140000Y-103750727D01*
X136062301Y-103751075D01*
X135992953Y-103752086D01*
X135930321Y-103753929D01*
X135872767Y-103756775D01*
X135818655Y-103760793D01*
X135766349Y-103766154D01*
X135714212Y-103773028D01*
X135660607Y-103781585D01*
X135603899Y-103791995D01*
X135542450Y-103804428D01*
X135474625Y-103819054D01*
X135467500Y-103820629D01*
X135394959Y-103837115D01*
X135317068Y-103855607D01*
X135235064Y-103875767D01*
X135150184Y-103897256D01*
X135063665Y-103919737D01*
X134976744Y-103942872D01*
X134890659Y-103966323D01*
X134806648Y-103989752D01*
X134725947Y-104012821D01*
X134649793Y-104035192D01*
X134579425Y-104056527D01*
X134516079Y-104076489D01*
X134460993Y-104094739D01*
X134450000Y-104098527D01*
X134371206Y-104125802D01*
X134300964Y-104149841D01*
X134238434Y-104170847D01*
X134182777Y-104189023D01*
X134133155Y-104204570D01*
X134088727Y-104217690D01*
X134048655Y-104228587D01*
X134012100Y-104237461D01*
X133978221Y-104244516D01*
X133946181Y-104249953D01*
X133915139Y-104253974D01*
X133884257Y-104256783D01*
X133852696Y-104258581D01*
X133819615Y-104259570D01*
X133784176Y-104259952D01*
X133780000Y-104259966D01*
X133734933Y-104259658D01*
X133698485Y-104258285D01*
X133669310Y-104255588D01*
X133646059Y-104251306D01*
X133627383Y-104245179D01*
X133611936Y-104236947D01*
X133598368Y-104226348D01*
X133596370Y-104224499D01*
X133585984Y-104213886D01*
X133581147Y-104204957D01*
X133580306Y-104193363D01*
X133581196Y-104182036D01*
X133585623Y-104162357D01*
X133595183Y-104136634D01*
X133608919Y-104106757D01*
X133625873Y-104074613D01*
X133645087Y-104042091D01*
X133665603Y-104011080D01*
X133673457Y-104000196D01*
X133699210Y-103968092D01*
X133731414Y-103932123D01*
X133768258Y-103894056D01*
X133807929Y-103855658D01*
X133848616Y-103818696D01*
X133888506Y-103784937D01*
X133917500Y-103762265D01*
X133999429Y-103704242D01*
X134089947Y-103646275D01*
X134187667Y-103589097D01*
X134291200Y-103533440D01*
X134399158Y-103480037D01*
X134510155Y-103429621D01*
X134622800Y-103382924D01*
X134672500Y-103363755D01*
X134710489Y-103349803D01*
X134753531Y-103334600D01*
X134799385Y-103318888D01*
X134845813Y-103303408D01*
X134890576Y-103288902D01*
X134931435Y-103276114D01*
X134966152Y-103265784D01*
X134978802Y-103262238D01*
X134998612Y-103256613D01*
X135010215Y-103252513D01*
X135015115Y-103249082D01*
X135014819Y-103245466D01*
X135012827Y-103242909D01*
X135002494Y-103227348D01*
X134993247Y-103206502D01*
X134987501Y-103187109D01*
X135121083Y-103187109D01*
X135127379Y-103186051D01*
X135128750Y-103185662D01*
X135135889Y-103183892D01*
X135151355Y-103180259D01*
X135173717Y-103175092D01*
X135201544Y-103168719D01*
X135233407Y-103161471D01*
X135260000Y-103155453D01*
X135527880Y-103097384D01*
X135790937Y-103045216D01*
X136048812Y-102999000D01*
X136301146Y-102958785D01*
X136547579Y-102924618D01*
X136787753Y-102896550D01*
X137021309Y-102874629D01*
X137247888Y-102858905D01*
X137467130Y-102849426D01*
X137508322Y-102848325D01*
X137540239Y-102847738D01*
X137580252Y-102847293D01*
X137627457Y-102846984D01*
X137680945Y-102846805D01*
X137739811Y-102846747D01*
X137803148Y-102846806D01*
X137870048Y-102846974D01*
X137939606Y-102847244D01*
X138010915Y-102847609D01*
X138083068Y-102848063D01*
X138155159Y-102848600D01*
X138226280Y-102849212D01*
X138295526Y-102849892D01*
X138361989Y-102850635D01*
X138424763Y-102851433D01*
X138482941Y-102852279D01*
X138535617Y-102853167D01*
X138581884Y-102854090D01*
X138620835Y-102855042D01*
X138651564Y-102856014D01*
X138672500Y-102856963D01*
X138795805Y-102864887D01*
X138910461Y-102873935D01*
X139017773Y-102884289D01*
X139119045Y-102896130D01*
X139215583Y-102909642D01*
X139308694Y-102925006D01*
X139399682Y-102942405D01*
X139489852Y-102962020D01*
X139577128Y-102983173D01*
X139607835Y-102991027D01*
X139635718Y-102998264D01*
X139659141Y-103004451D01*
X139676471Y-103009155D01*
X139686073Y-103011945D01*
X139686943Y-103012242D01*
X139690797Y-103012688D01*
X139695192Y-103010529D01*
X139700861Y-103004769D01*
X139708537Y-102994412D01*
X139718954Y-102978461D01*
X139732844Y-102955921D01*
X139750940Y-102925795D01*
X139752614Y-102922989D01*
X139863167Y-102745244D01*
X139981377Y-102569597D01*
X140106243Y-102397335D01*
X140236760Y-102229744D01*
X140371925Y-102068111D01*
X140510733Y-101913723D01*
X140652181Y-101767866D01*
X140658335Y-101761778D01*
X140710281Y-101710881D01*
X140757027Y-101666061D01*
X140800106Y-101626004D01*
X140841055Y-101589394D01*
X140881407Y-101554916D01*
X140922698Y-101521254D01*
X140966461Y-101487093D01*
X141014232Y-101451118D01*
X141060000Y-101417500D01*
X141082500Y-101401118D01*
X141040000Y-101404381D01*
X140957355Y-101411181D01*
X140866317Y-101419498D01*
X140768348Y-101429165D01*
X140664912Y-101440015D01*
X140557471Y-101451879D01*
X140447489Y-101464593D01*
X140336429Y-101477987D01*
X140225755Y-101491895D01*
X140116929Y-101506149D01*
X140011415Y-101520583D01*
X139962500Y-101527508D01*
X139688374Y-101568880D01*
X139422702Y-101613341D01*
X139164337Y-101661188D01*
X138912130Y-101712712D01*
X138664933Y-101768209D01*
X138421601Y-101827971D01*
X138180984Y-101892294D01*
X137941935Y-101961471D01*
X137703307Y-102035796D01*
X137463953Y-102115562D01*
X137222724Y-102201064D01*
X136984750Y-102290184D01*
X136756446Y-102380488D01*
X136527263Y-102476299D01*
X136298705Y-102576900D01*
X136072273Y-102681578D01*
X135849470Y-102789616D01*
X135631798Y-102900299D01*
X135420761Y-103012910D01*
X135217861Y-103126736D01*
X135171250Y-103153743D01*
X135146552Y-103168366D01*
X135130243Y-103178587D01*
X135121895Y-103184728D01*
X135121083Y-103187109D01*
X134987501Y-103187109D01*
X134986894Y-103185062D01*
X134985109Y-103170946D01*
X134984278Y-103158620D01*
X134981192Y-103154057D01*
X134976250Y-103154548D01*
X134968589Y-103156861D01*
X134953229Y-103161467D01*
X134932052Y-103167802D01*
X134906943Y-103175303D01*
X134892500Y-103179612D01*
X134771228Y-103217801D01*
X134654941Y-103258710D01*
X134540991Y-103303400D01*
X134426733Y-103352934D01*
X134309520Y-103408371D01*
X134258693Y-103433711D01*
X134143815Y-103494234D01*
X134038600Y-103554820D01*
X133942713Y-103615738D01*
X133855819Y-103677255D01*
X133777585Y-103739642D01*
X133707674Y-103803166D01*
X133645752Y-103868098D01*
X133591485Y-103934706D01*
X133544537Y-104003258D01*
X133539563Y-104011325D01*
X133510218Y-104064971D01*
X133489861Y-104114766D01*
X133478461Y-104160585D01*
X133475982Y-104202304D01*
X133482391Y-104239798D01*
X133497654Y-104272942D01*
X133521739Y-104301611D01*
X133554610Y-104325682D01*
X133596235Y-104345028D01*
X133632823Y-104356274D01*
X133653568Y-104359897D01*
X133682340Y-104362606D01*
X133717209Y-104364403D01*
X133756244Y-104365287D01*
X133797515Y-104365259D01*
X133839090Y-104364319D01*
X133879038Y-104362469D01*
X133915430Y-104359707D01*
X133945291Y-104356191D01*
X134000968Y-104346504D01*
X134061741Y-104333023D01*
X134128292Y-104315553D01*
X134201305Y-104293897D01*
X134281461Y-104267861D01*
X134369445Y-104237248D01*
X134402500Y-104225313D01*
X134465918Y-104203015D01*
X134537489Y-104179269D01*
X134616001Y-104154399D01*
X134700242Y-104128729D01*
X134788999Y-104102585D01*
X134881060Y-104076289D01*
X134975212Y-104050167D01*
X135070244Y-104024544D01*
X135164944Y-103999743D01*
X135258098Y-103976089D01*
X135348495Y-103953906D01*
X135434922Y-103933519D01*
X135516167Y-103915253D01*
X135591018Y-103899431D01*
X135658263Y-103886378D01*
X135690000Y-103880762D01*
X135726738Y-103874859D01*
X135762527Y-103869889D01*
X135798626Y-103865781D01*
X135836292Y-103862464D01*
X135876783Y-103859866D01*
X135921358Y-103857917D01*
X135971275Y-103856545D01*
X136027791Y-103855679D01*
X136092165Y-103855249D01*
X136142500Y-103855168D01*
X136207893Y-103855284D01*
X136264906Y-103855691D01*
X136315153Y-103856474D01*
X136360251Y-103857720D01*
X136401816Y-103859513D01*
X136441465Y-103861941D01*
X136480813Y-103865089D01*
X136521478Y-103869043D01*
X136565076Y-103873889D01*
X136613222Y-103879713D01*
X136620000Y-103880559D01*
X136705257Y-103892052D01*
X136790137Y-103905212D01*
X136875579Y-103920264D01*
X136962522Y-103937433D01*
X137051905Y-103956945D01*
X137144668Y-103979023D01*
X137241750Y-104003894D01*
X137344091Y-104031783D01*
X137452630Y-104062915D01*
X137568307Y-104097514D01*
X137692060Y-104135807D01*
X137715000Y-104143025D01*
X137813577Y-104174043D01*
X137903424Y-104202143D01*
X137985307Y-104227547D01*
X138059990Y-104250473D01*
X138128238Y-104271141D01*
X138190818Y-104289770D01*
X138248494Y-104306581D01*
X138302032Y-104321792D01*
X138352197Y-104335623D01*
X138399755Y-104348294D01*
X138445471Y-104360025D01*
X138490111Y-104371033D01*
X138534438Y-104381541D01*
X138579221Y-104391766D01*
X138592500Y-104394731D01*
X138779729Y-104432292D01*
X138963385Y-104460864D01*
X139144183Y-104480495D01*
X139322837Y-104491232D01*
X139500064Y-104493123D01*
X139676580Y-104486213D01*
X139812500Y-104474922D01*
X140000234Y-104450853D01*
X140188609Y-104416932D01*
X140377248Y-104373259D01*
X140565779Y-104319931D01*
X140753824Y-104257049D01*
X140941011Y-104184710D01*
X140987500Y-104165214D01*
X141029514Y-104146847D01*
X141076572Y-104125461D01*
X141127180Y-104101795D01*
X141179845Y-104076592D01*
X141233072Y-104050591D01*
X141285369Y-104024533D01*
X141335242Y-103999159D01*
X141381197Y-103975208D01*
X141421741Y-103953422D01*
X141455380Y-103934541D01*
X141469330Y-103926309D01*
X141486160Y-103916147D01*
X141482739Y-103928166D01*
X141475746Y-103951702D01*
X141466263Y-103982177D01*
X141455109Y-104017087D01*
X141443100Y-104053933D01*
X141431056Y-104090212D01*
X141419794Y-104123424D01*
X141410132Y-104151067D01*
X141407113Y-104159419D01*
X141384469Y-104221269D01*
X141290984Y-104266667D01*
X141188325Y-104313760D01*
X141076967Y-104359738D01*
X140958183Y-104404252D01*
X140833244Y-104446955D01*
X140703424Y-104487501D01*
X140569995Y-104525541D01*
X140434227Y-104560728D01*
X140297394Y-104592715D01*
X140160768Y-104621155D01*
X140025621Y-104645699D01*
X139893224Y-104666002D01*
X139775000Y-104680628D01*
X139752381Y-104682531D01*
X139721453Y-104684336D01*
X139683904Y-104686008D01*
X139641425Y-104687511D01*
X139595706Y-104688810D01*
X139548436Y-104689871D01*
X139501305Y-104690657D01*
X139456003Y-104691134D01*
X139414219Y-104691266D01*
X139377645Y-104691019D01*
X139347968Y-104690357D01*
X139335000Y-104689792D01*
X139239572Y-104683682D01*
X139145996Y-104675925D01*
X139053417Y-104666350D01*
X138960984Y-104654785D01*
X138867842Y-104641058D01*
X138773139Y-104624997D01*
X138676022Y-104606432D01*
X138575639Y-104585189D01*
X138471136Y-104561097D01*
X138361661Y-104533985D01*
X138246360Y-104503681D01*
X138124381Y-104470012D01*
X137994871Y-104432809D01*
X137860000Y-104392806D01*
X137737317Y-104356134D01*
X137623394Y-104322539D01*
X137517531Y-104291853D01*
X137419029Y-104263908D01*
X137327188Y-104238537D01*
X137241310Y-104215570D01*
X137160694Y-104194841D01*
X137084642Y-104176181D01*
X137012454Y-104159421D01*
X136943431Y-104144395D01*
X136876873Y-104130933D01*
X136812081Y-104118868D01*
X136748356Y-104108032D01*
X136684998Y-104098257D01*
X136621308Y-104089374D01*
X136570000Y-104082841D01*
X136497575Y-104075078D01*
X136418810Y-104068604D01*
X136335833Y-104063483D01*
X136250771Y-104059777D01*
X136165752Y-104057551D01*
X136082903Y-104056866D01*
X136004350Y-104057786D01*
X135932222Y-104060373D01*
X135892500Y-104062782D01*
X135738650Y-104076772D01*
X135586701Y-104096598D01*
X135435639Y-104122517D01*
X135284451Y-104154789D01*
X135132123Y-104193670D01*
X134977643Y-104239418D01*
X134819996Y-104292290D01*
X134658170Y-104352544D01*
X134500000Y-104416707D01*
X134376489Y-104465214D01*
X134256126Y-104505302D01*
X134137372Y-104537388D01*
X134018692Y-104561888D01*
X133902500Y-104578763D01*
X133874376Y-104581235D01*
X133838682Y-104583133D01*
X133797180Y-104584468D01*
X133751634Y-104585250D01*
X133703809Y-104585490D01*
X133655468Y-104585197D01*
X133608376Y-104584382D01*
X133564297Y-104583054D01*
X133524994Y-104581226D01*
X133492232Y-104578905D01*
X133468677Y-104576241D01*
X133398945Y-104563053D01*
X133337644Y-104545651D01*
X133284926Y-104524115D01*
X133240942Y-104498526D01*
X133205845Y-104468963D01*
X133179788Y-104435507D01*
X133171108Y-104419324D01*
X133164952Y-104405184D01*
X133160980Y-104392453D01*
X133158725Y-104378247D01*
X133157721Y-104359680D01*
X133157500Y-104335262D01*
X133157884Y-104308122D01*
X133159405Y-104287244D01*
X133162610Y-104268904D01*
X133168046Y-104249381D01*
X133171864Y-104237743D01*
X133188779Y-104193739D01*
X133211160Y-104145971D01*
X133239420Y-104093688D01*
X133273970Y-104036138D01*
X133315222Y-103972569D01*
X133325247Y-103957688D01*
X133355729Y-103914520D01*
X133387751Y-103872961D01*
X133422068Y-103832297D01*
X133459437Y-103791811D01*
X133500613Y-103750790D01*
X133546354Y-103708517D01*
X133597414Y-103664278D01*
X133654551Y-103617357D01*
X133718520Y-103567040D01*
X133790077Y-103512611D01*
X133817500Y-103492126D01*
X133895322Y-103435327D01*
X133969544Y-103383349D01*
X134039501Y-103336624D01*
X134104524Y-103295581D01*
X134163948Y-103260652D01*
X134217106Y-103232267D01*
X134227688Y-103227043D01*
X134424394Y-103136585D01*
X134621602Y-103056033D01*
X134819253Y-102985408D01*
X135017288Y-102924730D01*
X135215650Y-102874018D01*
X135339280Y-102847490D01*
X135373268Y-102840669D01*
X135399449Y-102835107D01*
X135419833Y-102830152D01*
X135436430Y-102825155D01*
X135451248Y-102819464D01*
X135466296Y-102812429D01*
X135483586Y-102803399D01*
X135495735Y-102796827D01*
X135512859Y-102787693D01*
X135537580Y-102774747D01*
X135568563Y-102758676D01*
X135604474Y-102740166D01*
X135643979Y-102719906D01*
X135685743Y-102698582D01*
X135728433Y-102676882D01*
X135740000Y-102671020D01*
X135927500Y-102576053D01*
X135877500Y-102579584D01*
X135849643Y-102581981D01*
X135817218Y-102585421D01*
X135785521Y-102589322D01*
X135772500Y-102591132D01*
X135763860Y-102592256D01*
X135753747Y-102593278D01*
X135741654Y-102594204D01*
X135727074Y-102595041D01*
X135709501Y-102595796D01*
X135688427Y-102596474D01*
X135663347Y-102597083D01*
X135633753Y-102597628D01*
X135599139Y-102598116D01*
X135558999Y-102598554D01*
X135512826Y-102598948D01*
X135460113Y-102599304D01*
X135400353Y-102599628D01*
X135333041Y-102599928D01*
X135257668Y-102600209D01*
X135173730Y-102600479D01*
X135080719Y-102600742D01*
X134996250Y-102600962D01*
X134275000Y-102602773D01*
X134275012Y-102578842D01*
X134275119Y-102574916D01*
X135930000Y-102574916D01*
X135932500Y-102577416D01*
X135935000Y-102574916D01*
X135932500Y-102572415D01*
X135930000Y-102574916D01*
X134275119Y-102574916D01*
X134275444Y-102563005D01*
X134276610Y-102539788D01*
X134278326Y-102511773D01*
X134280410Y-102481541D01*
X134282681Y-102451673D01*
X134284957Y-102424749D01*
X134286086Y-102413225D01*
X136346019Y-102413225D01*
X136349972Y-102412226D01*
X136361920Y-102407708D01*
X136380693Y-102400151D01*
X136405119Y-102390034D01*
X136434028Y-102377835D01*
X136465969Y-102364153D01*
X136499064Y-102350043D01*
X136539500Y-102333068D01*
X136585320Y-102314034D01*
X136634563Y-102293749D01*
X136685271Y-102273020D01*
X136735485Y-102252654D01*
X136781860Y-102234012D01*
X136831994Y-102213886D01*
X136873995Y-102196817D01*
X136909059Y-102182262D01*
X136938382Y-102169679D01*
X136963160Y-102158526D01*
X136984592Y-102148261D01*
X137003872Y-102138341D01*
X137022197Y-102128223D01*
X137040764Y-102117366D01*
X137045574Y-102114479D01*
X137200959Y-102025001D01*
X137354957Y-101944877D01*
X137508539Y-101873742D01*
X137662673Y-101811229D01*
X137818329Y-101756974D01*
X137976478Y-101710611D01*
X138138088Y-101671772D01*
X138302500Y-101640367D01*
X138429161Y-101620186D01*
X138549378Y-101603342D01*
X138666011Y-101589505D01*
X138781919Y-101578343D01*
X138899961Y-101569526D01*
X138932500Y-101567509D01*
X138978169Y-101563838D01*
X139023644Y-101558450D01*
X139064644Y-101551877D01*
X139075000Y-101549843D01*
X139108316Y-101543142D01*
X139149766Y-101535094D01*
X139197623Y-101526015D01*
X139250160Y-101516221D01*
X139305651Y-101506028D01*
X139362368Y-101495750D01*
X139418584Y-101485705D01*
X139472573Y-101476207D01*
X139522608Y-101467572D01*
X139554825Y-101462131D01*
X139588546Y-101456430D01*
X139618884Y-101451166D01*
X139644481Y-101446585D01*
X139663978Y-101442934D01*
X139676015Y-101440460D01*
X139679348Y-101439510D01*
X139679199Y-101433624D01*
X139676364Y-101419301D01*
X139671160Y-101397644D01*
X139663905Y-101369758D01*
X139654914Y-101336745D01*
X139644507Y-101299709D01*
X139633000Y-101259753D01*
X139620710Y-101217981D01*
X139607955Y-101175496D01*
X139595052Y-101133402D01*
X139582318Y-101092802D01*
X139576142Y-101073640D01*
X139720883Y-101073640D01*
X139722811Y-101080597D01*
X139726998Y-101095227D01*
X139732888Y-101115609D01*
X139739928Y-101139817D01*
X139742500Y-101148627D01*
X139762500Y-101217094D01*
X139948291Y-101217121D01*
X140134083Y-101217148D01*
X140125179Y-101187735D01*
X140114550Y-101157079D01*
X140101756Y-101127064D01*
X140088267Y-101100871D01*
X140077046Y-101083583D01*
X140064491Y-101067119D01*
X139891878Y-101067119D01*
X139844421Y-101067183D01*
X139806115Y-101067398D01*
X139776109Y-101067795D01*
X139753556Y-101068407D01*
X139737606Y-101069267D01*
X139727410Y-101070406D01*
X139722120Y-101071857D01*
X139720883Y-101073640D01*
X139576142Y-101073640D01*
X139570070Y-101054800D01*
X139560231Y-101025222D01*
X139495258Y-100846982D01*
X139428883Y-100687978D01*
X139581322Y-100687978D01*
X139581413Y-100688294D01*
X139597207Y-100728097D01*
X139610822Y-100762500D01*
X139621924Y-100790649D01*
X139630177Y-100811694D01*
X139635245Y-100824781D01*
X139636568Y-100828322D01*
X139639447Y-100832556D01*
X139645726Y-100835183D01*
X139657379Y-100836561D01*
X139676380Y-100837048D01*
X139684843Y-100837074D01*
X139730000Y-100837074D01*
X139730000Y-100816652D01*
X139860000Y-100816652D01*
X139861752Y-100827609D01*
X139867957Y-100836302D01*
X139880038Y-100843643D01*
X139899417Y-100850545D01*
X139922500Y-100856699D01*
X139984904Y-100875076D01*
X140041449Y-100897909D01*
X140091125Y-100924670D01*
X140132920Y-100954831D01*
X140159880Y-100980915D01*
X140184056Y-101013056D01*
X140207287Y-101053649D01*
X140228876Y-101101147D01*
X140248127Y-101154003D01*
X140264340Y-101210671D01*
X140265438Y-101215127D01*
X140272827Y-101237508D01*
X140282355Y-101251037D01*
X140294902Y-101256784D01*
X140300000Y-101257156D01*
X140313008Y-101254018D01*
X140321008Y-101248405D01*
X140325530Y-101239791D01*
X140331229Y-101224155D01*
X140337152Y-101204249D01*
X140339633Y-101194644D01*
X140346622Y-101169345D01*
X140355960Y-101139726D01*
X140366071Y-101110669D01*
X140370475Y-101099026D01*
X140392082Y-101050885D01*
X140417197Y-101009230D01*
X140446798Y-100973265D01*
X140481863Y-100942195D01*
X140523371Y-100915225D01*
X140572300Y-100891560D01*
X140629629Y-100870404D01*
X140665225Y-100859513D01*
X140689081Y-100852377D01*
X140709725Y-100845702D01*
X140725086Y-100840193D01*
X140733090Y-100836554D01*
X140733417Y-100836312D01*
X140738424Y-100826885D01*
X140739773Y-100813231D01*
X140737108Y-100800567D01*
X140735998Y-100798510D01*
X140729954Y-100794897D01*
X140716224Y-100789396D01*
X140696775Y-100782724D01*
X140673577Y-100775596D01*
X140670844Y-100774804D01*
X140609223Y-100755107D01*
X140556631Y-100733935D01*
X140512146Y-100710783D01*
X140474844Y-100685148D01*
X140443802Y-100656523D01*
X140433861Y-100645245D01*
X140411181Y-100613341D01*
X140389176Y-100573444D01*
X140368782Y-100527563D01*
X140350936Y-100477704D01*
X140342663Y-100449743D01*
X140335665Y-100425539D01*
X140328992Y-100404840D01*
X140323314Y-100389569D01*
X140319302Y-100381647D01*
X140318716Y-100381085D01*
X140309595Y-100378287D01*
X140296307Y-100377061D01*
X140296142Y-100377060D01*
X140289397Y-100377133D01*
X140284162Y-100378300D01*
X140279765Y-100381872D01*
X140275532Y-100389161D01*
X140270790Y-100401479D01*
X140264865Y-100420138D01*
X140257084Y-100446450D01*
X140252546Y-100462000D01*
X140232222Y-100523572D01*
X140209379Y-100576281D01*
X140183117Y-100621134D01*
X140152535Y-100659137D01*
X140116734Y-100691297D01*
X140074815Y-100718621D01*
X140025877Y-100742116D01*
X139990000Y-100755769D01*
X139964935Y-100764039D01*
X139937818Y-100772218D01*
X139913961Y-100778716D01*
X139911009Y-100779443D01*
X139887273Y-100786081D01*
X139871933Y-100793008D01*
X139863425Y-100801365D01*
X139860181Y-100812295D01*
X139860000Y-100816652D01*
X139730000Y-100816652D01*
X139730000Y-100812256D01*
X139734727Y-100777299D01*
X139748133Y-100743289D01*
X139769054Y-100712945D01*
X139775478Y-100706093D01*
X139799523Y-100682043D01*
X139689226Y-100682043D01*
X139651894Y-100682161D01*
X139623591Y-100682553D01*
X139603350Y-100683274D01*
X139590204Y-100684382D01*
X139583184Y-100685931D01*
X139581322Y-100687978D01*
X139428883Y-100687978D01*
X139421582Y-100670488D01*
X139338963Y-100495268D01*
X139247161Y-100320847D01*
X139234430Y-100298951D01*
X139401350Y-100298951D01*
X139402860Y-100303831D01*
X139408328Y-100316070D01*
X139417041Y-100334182D01*
X139428290Y-100356679D01*
X139438402Y-100376385D01*
X139477500Y-100451773D01*
X139801250Y-100451885D01*
X139857135Y-100451869D01*
X139909967Y-100451782D01*
X139958913Y-100451632D01*
X140003140Y-100451425D01*
X140041818Y-100451165D01*
X140074115Y-100450860D01*
X140099198Y-100450515D01*
X140116235Y-100450136D01*
X140124395Y-100449729D01*
X140125000Y-100449581D01*
X140126642Y-100439197D01*
X140131025Y-100421982D01*
X140137334Y-100400456D01*
X140144754Y-100377136D01*
X140152470Y-100354540D01*
X140159667Y-100335186D01*
X140165529Y-100321593D01*
X140167643Y-100317835D01*
X140180122Y-100299468D01*
X139791758Y-100298187D01*
X139730357Y-100298010D01*
X139671894Y-100297892D01*
X139617132Y-100297831D01*
X139566836Y-100297825D01*
X139521773Y-100297874D01*
X139482706Y-100297975D01*
X139450400Y-100298127D01*
X139425620Y-100298329D01*
X139409132Y-100298579D01*
X139401699Y-100298875D01*
X139401350Y-100298951D01*
X139234430Y-100298951D01*
X139145937Y-100146754D01*
X139035050Y-99972515D01*
X139001054Y-99921894D01*
X138945249Y-99841404D01*
X138892803Y-99769313D01*
X138843031Y-99704872D01*
X138795248Y-99647331D01*
X138748770Y-99595940D01*
X138702912Y-99549951D01*
X138656990Y-99508614D01*
X138610319Y-99471180D01*
X138562215Y-99436900D01*
X138551561Y-99429830D01*
X138478892Y-99387100D01*
X138403321Y-99352545D01*
X138322966Y-99325386D01*
X138265000Y-99310823D01*
X138250958Y-99307830D01*
X138237979Y-99305407D01*
X138224834Y-99303498D01*
X138210293Y-99302045D01*
X138193126Y-99300991D01*
X138172104Y-99300281D01*
X138145998Y-99299856D01*
X138113577Y-99299660D01*
X138073613Y-99299636D01*
X138025000Y-99299728D01*
X137896338Y-99301387D01*
X137775652Y-99305821D01*
X137661265Y-99313184D01*
X137551503Y-99323633D01*
X137444689Y-99337324D01*
X137339148Y-99354413D01*
X137247500Y-99372074D01*
X137215309Y-99378984D01*
X137180871Y-99386835D01*
X137145643Y-99395248D01*
X137111080Y-99403844D01*
X137078641Y-99412243D01*
X137049780Y-99420066D01*
X137025956Y-99426935D01*
X137008624Y-99432470D01*
X136999242Y-99436292D01*
X136998329Y-99436918D01*
X136998034Y-99442934D01*
X137000529Y-99456244D01*
X137005340Y-99474686D01*
X137009987Y-99489979D01*
X137036172Y-99585164D01*
X137056170Y-99688185D01*
X137069983Y-99799018D01*
X137077608Y-99917640D01*
X137079046Y-100044027D01*
X137074296Y-100178156D01*
X137063356Y-100320003D01*
X137046227Y-100469545D01*
X137039368Y-100519511D01*
X137031189Y-100575304D01*
X137023580Y-100623475D01*
X137016105Y-100666355D01*
X137008326Y-100706275D01*
X136999809Y-100745564D01*
X136990116Y-100786553D01*
X136986904Y-100799566D01*
X136957395Y-100910667D01*
X136922484Y-101028874D01*
X136882574Y-101153148D01*
X136838066Y-101282450D01*
X136789361Y-101415741D01*
X136736861Y-101551982D01*
X136680968Y-101690133D01*
X136622084Y-101829155D01*
X136560609Y-101968010D01*
X136496947Y-102105657D01*
X136431498Y-102241058D01*
X136423421Y-102257353D01*
X136405465Y-102293480D01*
X136388935Y-102326746D01*
X136374356Y-102356094D01*
X136362253Y-102380468D01*
X136353152Y-102398810D01*
X136347577Y-102410062D01*
X136346019Y-102413225D01*
X134286086Y-102413225D01*
X134287054Y-102403351D01*
X134287902Y-102396131D01*
X134290928Y-102372457D01*
X135622919Y-102372457D01*
X135915056Y-102371166D01*
X136207194Y-102369875D01*
X136246097Y-102295295D01*
X136258952Y-102270554D01*
X136270015Y-102249075D01*
X136278527Y-102232348D01*
X136283728Y-102221864D01*
X136285000Y-102218990D01*
X136280147Y-102218695D01*
X136266180Y-102218460D01*
X136243983Y-102218287D01*
X136214440Y-102218176D01*
X136178438Y-102218129D01*
X136136861Y-102218147D01*
X136090594Y-102218232D01*
X136040521Y-102218385D01*
X135998922Y-102218555D01*
X135712845Y-102219846D01*
X135701323Y-102261361D01*
X135689241Y-102297098D01*
X135674608Y-102324891D01*
X135656239Y-102346704D01*
X135643222Y-102357523D01*
X135622919Y-102372457D01*
X134290928Y-102372457D01*
X134290938Y-102372376D01*
X134888719Y-102372376D01*
X135486500Y-102372376D01*
X135465846Y-102357411D01*
X135443607Y-102337167D01*
X135426223Y-102311516D01*
X135412626Y-102278693D01*
X135407357Y-102260728D01*
X135396541Y-102219846D01*
X134853270Y-102218573D01*
X134780475Y-102218368D01*
X134710544Y-102218103D01*
X134644120Y-102217785D01*
X134581845Y-102217419D01*
X134524360Y-102217011D01*
X134472309Y-102216568D01*
X134426333Y-102216095D01*
X134387075Y-102215600D01*
X134355176Y-102215087D01*
X134331280Y-102214562D01*
X134316027Y-102214033D01*
X134310061Y-102213505D01*
X134310000Y-102213446D01*
X134310863Y-102206399D01*
X134313226Y-102191442D01*
X134316747Y-102170497D01*
X134321087Y-102145485D01*
X134325903Y-102118328D01*
X134330855Y-102090948D01*
X134335601Y-102065265D01*
X134339802Y-102043202D01*
X134343116Y-102026679D01*
X134343247Y-102026058D01*
X134351446Y-101987300D01*
X134740051Y-101987300D01*
X135128656Y-101987300D01*
X135130466Y-101961999D01*
X135260000Y-101961999D01*
X135260749Y-101970592D01*
X135264527Y-101976131D01*
X135273626Y-101980443D01*
X135288750Y-101984922D01*
X135341508Y-102001319D01*
X135385261Y-102019199D01*
X135420959Y-102039081D01*
X135449551Y-102061487D01*
X135469951Y-102084185D01*
X135482411Y-102102089D01*
X135493174Y-102121102D01*
X135503202Y-102143371D01*
X135513457Y-102171038D01*
X135524902Y-102206248D01*
X135525327Y-102207616D01*
X135532545Y-102230117D01*
X135538007Y-102244659D01*
X135542624Y-102252924D01*
X135547307Y-102256592D01*
X135552276Y-102257353D01*
X135563344Y-102254846D01*
X135568451Y-102251102D01*
X135571797Y-102243819D01*
X135576982Y-102229330D01*
X135583169Y-102210066D01*
X135586980Y-102197341D01*
X135604115Y-102147809D01*
X135624755Y-102106554D01*
X135650019Y-102072483D01*
X135681026Y-102044500D01*
X135718895Y-102021508D01*
X135764745Y-102002413D01*
X135796281Y-101992448D01*
X135824229Y-101982981D01*
X135842289Y-101973532D01*
X135850442Y-101964185D01*
X135848669Y-101955023D01*
X135836949Y-101946130D01*
X135815263Y-101937591D01*
X135809543Y-101935879D01*
X135759272Y-101919718D01*
X135717373Y-101901899D01*
X135682685Y-101881222D01*
X135654047Y-101856487D01*
X135634874Y-101832270D01*
X135908611Y-101832270D01*
X135931606Y-101853688D01*
X135955835Y-101882870D01*
X135971623Y-101917404D01*
X135978836Y-101955738D01*
X135981369Y-101987300D01*
X136190149Y-101987300D01*
X136243819Y-101987236D01*
X136288222Y-101987030D01*
X136324091Y-101986660D01*
X136352159Y-101986104D01*
X136373158Y-101985341D01*
X136387821Y-101984348D01*
X136396880Y-101983106D01*
X136401068Y-101981590D01*
X136401497Y-101981049D01*
X136404385Y-101974528D01*
X136410667Y-101960640D01*
X136419560Y-101941107D01*
X136430283Y-101917649D01*
X136436751Y-101903534D01*
X136469438Y-101832270D01*
X136189024Y-101832270D01*
X135908611Y-101832270D01*
X135634874Y-101832270D01*
X135630300Y-101826492D01*
X135610281Y-101790038D01*
X135592832Y-101745924D01*
X135577622Y-101695993D01*
X135572818Y-101679935D01*
X135568477Y-101671320D01*
X135562771Y-101667852D01*
X135554703Y-101667237D01*
X135543502Y-101669090D01*
X135537816Y-101673488D01*
X135535632Y-101680807D01*
X135531339Y-101695212D01*
X135525680Y-101714204D01*
X135522539Y-101724748D01*
X135505394Y-101774365D01*
X135485508Y-101815345D01*
X135461629Y-101848939D01*
X135432504Y-101876401D01*
X135396880Y-101898983D01*
X135353505Y-101917939D01*
X135317500Y-101929828D01*
X135297145Y-101935894D01*
X135280114Y-101940972D01*
X135268905Y-101944315D01*
X135266250Y-101945108D01*
X135261818Y-101950887D01*
X135260000Y-101961999D01*
X135130466Y-101961999D01*
X135131106Y-101953045D01*
X135138450Y-101915146D01*
X135154361Y-101881194D01*
X135178105Y-101852682D01*
X135181990Y-101849229D01*
X135201799Y-101832270D01*
X134795899Y-101832270D01*
X134733159Y-101832232D01*
X134673384Y-101832121D01*
X134617317Y-101831945D01*
X134565702Y-101831708D01*
X134519280Y-101831416D01*
X134478795Y-101831075D01*
X134444990Y-101830691D01*
X134418608Y-101830270D01*
X134400392Y-101829817D01*
X134391085Y-101829338D01*
X134390000Y-101829106D01*
X134391389Y-101822910D01*
X134395198Y-101808960D01*
X134400891Y-101789057D01*
X134407931Y-101765002D01*
X134415781Y-101738595D01*
X134423903Y-101711638D01*
X134431761Y-101685931D01*
X134438818Y-101663275D01*
X134444538Y-101645470D01*
X134446460Y-101639732D01*
X134458426Y-101604725D01*
X134943344Y-101603450D01*
X135428262Y-101602175D01*
X135451160Y-101580231D01*
X135481253Y-101557752D01*
X135514710Y-101543724D01*
X135549892Y-101538146D01*
X135585164Y-101541017D01*
X135618886Y-101552336D01*
X135649422Y-101572102D01*
X135658415Y-101580373D01*
X135680263Y-101602224D01*
X136123966Y-101602224D01*
X136567670Y-101602224D01*
X136598383Y-101525959D01*
X136629095Y-101449694D01*
X135572479Y-101447194D01*
X134515863Y-101444693D01*
X134556987Y-101349253D01*
X134569989Y-101319367D01*
X134582305Y-101291592D01*
X134593165Y-101267623D01*
X134601798Y-101249156D01*
X134607435Y-101237888D01*
X134608085Y-101236731D01*
X134618060Y-101219649D01*
X135667149Y-101217148D01*
X136716239Y-101214648D01*
X136740619Y-101145401D01*
X136749242Y-101120617D01*
X136756525Y-101099123D01*
X136761877Y-101082710D01*
X136764706Y-101073169D01*
X136765000Y-101071636D01*
X136760057Y-101071142D01*
X136745460Y-101070668D01*
X136721553Y-101070218D01*
X136688682Y-101069791D01*
X136647192Y-101069391D01*
X136597428Y-101069017D01*
X136539736Y-101068673D01*
X136474460Y-101068359D01*
X136401947Y-101068077D01*
X136322540Y-101067828D01*
X136236586Y-101067614D01*
X136144429Y-101067436D01*
X136046415Y-101067296D01*
X135942890Y-101067196D01*
X135834197Y-101067136D01*
X135732795Y-101067119D01*
X135631930Y-101067101D01*
X135533735Y-101067049D01*
X135438677Y-101066963D01*
X135347223Y-101066846D01*
X135259840Y-101066700D01*
X135176995Y-101066526D01*
X135099156Y-101066325D01*
X135026790Y-101066100D01*
X134960363Y-101065852D01*
X134900344Y-101065584D01*
X134847199Y-101065295D01*
X134801396Y-101064989D01*
X134763401Y-101064667D01*
X134733682Y-101064331D01*
X134712706Y-101063982D01*
X134700941Y-101063622D01*
X134698437Y-101063368D01*
X134700087Y-101057864D01*
X134706214Y-101045149D01*
X134716075Y-101026544D01*
X134728922Y-101003365D01*
X134744012Y-100976933D01*
X134760598Y-100948567D01*
X134777935Y-100919584D01*
X134795278Y-100891305D01*
X134799475Y-100884583D01*
X134827688Y-100839574D01*
X135326344Y-100838300D01*
X135396030Y-100838105D01*
X135462824Y-100837886D01*
X135526055Y-100837647D01*
X135585053Y-100837391D01*
X135639147Y-100837123D01*
X135687668Y-100836847D01*
X135729944Y-100836566D01*
X135765307Y-100836285D01*
X135793084Y-100836008D01*
X135812607Y-100835738D01*
X135823204Y-100835480D01*
X135824999Y-100835332D01*
X135823504Y-100830087D01*
X135819621Y-100818184D01*
X135815225Y-100805224D01*
X135802434Y-100773301D01*
X135786884Y-100742662D01*
X135770243Y-100716307D01*
X135756621Y-100699657D01*
X135739518Y-100682043D01*
X135339759Y-100682043D01*
X135277505Y-100682003D01*
X135218223Y-100681886D01*
X135162660Y-100681698D01*
X135111565Y-100681446D01*
X135065686Y-100681136D01*
X135025774Y-100680774D01*
X134992575Y-100680366D01*
X134966839Y-100679919D01*
X134949314Y-100679439D01*
X134940749Y-100678932D01*
X134940000Y-100678728D01*
X134942959Y-100673304D01*
X134951200Y-100661322D01*
X134963766Y-100644041D01*
X134979701Y-100622721D01*
X134998049Y-100598623D01*
X135017855Y-100573005D01*
X135038162Y-100547128D01*
X135058015Y-100522251D01*
X135069368Y-100508259D01*
X135115358Y-100451998D01*
X135269540Y-100451998D01*
X135423721Y-100451998D01*
X135423747Y-100451835D01*
X135555000Y-100451835D01*
X135556669Y-100462472D01*
X135562609Y-100471073D01*
X135574212Y-100478527D01*
X135592872Y-100485722D01*
X135619985Y-100493546D01*
X135620777Y-100493756D01*
X135685463Y-100513337D01*
X135741273Y-100535861D01*
X135789084Y-100562057D01*
X135829771Y-100592653D01*
X135864212Y-100628378D01*
X135893283Y-100669960D01*
X135917859Y-100718129D01*
X135931382Y-100752057D01*
X135940229Y-100777755D01*
X135948882Y-100805194D01*
X135955891Y-100829705D01*
X135957772Y-100837074D01*
X135964561Y-100861808D01*
X135971369Y-100878072D01*
X135979339Y-100887331D01*
X135989609Y-100891054D01*
X135999744Y-100891077D01*
X136009635Y-100889669D01*
X136015947Y-100885960D01*
X136020680Y-100877610D01*
X136025833Y-100862279D01*
X136026661Y-100859578D01*
X136035856Y-100829686D01*
X136170000Y-100829686D01*
X136170973Y-100831165D01*
X136174347Y-100832436D01*
X136180802Y-100833515D01*
X136191017Y-100834416D01*
X136205672Y-100835156D01*
X136225447Y-100835750D01*
X136251022Y-100836211D01*
X136283077Y-100836556D01*
X136322292Y-100836800D01*
X136369346Y-100836957D01*
X136424920Y-100837043D01*
X136489693Y-100837073D01*
X136502204Y-100837074D01*
X136569484Y-100837003D01*
X136630323Y-100836795D01*
X136684259Y-100836456D01*
X136730832Y-100835992D01*
X136769583Y-100835411D01*
X136800049Y-100834719D01*
X136821771Y-100833922D01*
X136834289Y-100833026D01*
X136837348Y-100832319D01*
X136839451Y-100826180D01*
X136843368Y-100812477D01*
X136848542Y-100793366D01*
X136854421Y-100771001D01*
X136860451Y-100747537D01*
X136866078Y-100725127D01*
X136870747Y-100705927D01*
X136873904Y-100692092D01*
X136875000Y-100685875D01*
X136870141Y-100685201D01*
X136856130Y-100684565D01*
X136833814Y-100683978D01*
X136804040Y-100683449D01*
X136767657Y-100682988D01*
X136725511Y-100682607D01*
X136678450Y-100682316D01*
X136627323Y-100682125D01*
X136572975Y-100682045D01*
X136563081Y-100682043D01*
X136251163Y-100682043D01*
X136234245Y-100700797D01*
X136221391Y-100716272D01*
X136209450Y-100732581D01*
X136206226Y-100737544D01*
X136198876Y-100751294D01*
X136190560Y-100769595D01*
X136182403Y-100789582D01*
X136175534Y-100808385D01*
X136171079Y-100823139D01*
X136170000Y-100829686D01*
X136035856Y-100829686D01*
X136038985Y-100819513D01*
X136049101Y-100787459D01*
X136057575Y-100761818D01*
X136064974Y-100740990D01*
X136071866Y-100723378D01*
X136078816Y-100707384D01*
X136086081Y-100692045D01*
X136098016Y-100669516D01*
X136110810Y-100650084D01*
X136126732Y-100630705D01*
X136148054Y-100608330D01*
X136149676Y-100606705D01*
X136172345Y-100584951D01*
X136191823Y-100568744D01*
X136211154Y-100555813D01*
X136233387Y-100543889D01*
X136235000Y-100543098D01*
X136250943Y-100535554D01*
X136266967Y-100528615D01*
X136284670Y-100521713D01*
X136305649Y-100514282D01*
X136331504Y-100505753D01*
X136363832Y-100495560D01*
X136402500Y-100483665D01*
X136418930Y-100478310D01*
X136428073Y-100473644D01*
X136432266Y-100467654D01*
X136433850Y-100458328D01*
X136434002Y-100456571D01*
X136433148Y-100441775D01*
X136428669Y-100432965D01*
X136421408Y-100429438D01*
X136406632Y-100423987D01*
X136386465Y-100417346D01*
X136363033Y-100410248D01*
X136362167Y-100409997D01*
X136298354Y-100389251D01*
X136243463Y-100366131D01*
X136196570Y-100339678D01*
X136156749Y-100308936D01*
X136146039Y-100297489D01*
X136442500Y-100297489D01*
X136468927Y-100307646D01*
X136496022Y-100322401D01*
X136520742Y-100343876D01*
X136541450Y-100369866D01*
X136556511Y-100398166D01*
X136564292Y-100426571D01*
X136565000Y-100437183D01*
X136565000Y-100451998D01*
X136739602Y-100451998D01*
X136914205Y-100451998D01*
X136916865Y-100438245D01*
X136918596Y-100427252D01*
X136920995Y-100409383D01*
X136923659Y-100387706D01*
X136924899Y-100376983D01*
X136927557Y-100354176D01*
X136930125Y-100333332D01*
X136932197Y-100317704D01*
X136932863Y-100313221D01*
X136935453Y-100296967D01*
X136688976Y-100297228D01*
X136442500Y-100297489D01*
X136146039Y-100297489D01*
X136123077Y-100272946D01*
X136094629Y-100230751D01*
X136070481Y-100181391D01*
X136049709Y-100123911D01*
X136034703Y-100070663D01*
X136027256Y-100044665D01*
X136019930Y-100027277D01*
X136011760Y-100017163D01*
X136001780Y-100012991D01*
X135992911Y-100012919D01*
X135985471Y-100014275D01*
X135979372Y-100017586D01*
X135973936Y-100024185D01*
X135968480Y-100035407D01*
X135962328Y-100052586D01*
X135954797Y-100077057D01*
X135947568Y-100101929D01*
X135929917Y-100156727D01*
X135910626Y-100203123D01*
X135888876Y-100242682D01*
X135863847Y-100276971D01*
X135845164Y-100297443D01*
X135815258Y-100324536D01*
X135782397Y-100347971D01*
X135745065Y-100368513D01*
X135701746Y-100386930D01*
X135650925Y-100403987D01*
X135613302Y-100414667D01*
X135588343Y-100421766D01*
X135571608Y-100427868D01*
X135561525Y-100433976D01*
X135556520Y-100441094D01*
X135555020Y-100450225D01*
X135555000Y-100451835D01*
X135423747Y-100451835D01*
X135427037Y-100431261D01*
X135436592Y-100397987D01*
X135453443Y-100366458D01*
X135475904Y-100338816D01*
X135502287Y-100317205D01*
X135526166Y-100305308D01*
X135531767Y-100303133D01*
X135534288Y-100301415D01*
X135532836Y-100300094D01*
X135526520Y-100299116D01*
X135514446Y-100298421D01*
X135495722Y-100297952D01*
X135469454Y-100297652D01*
X135434750Y-100297465D01*
X135402575Y-100297362D01*
X135257650Y-100296967D01*
X135320075Y-100234116D01*
X135345996Y-100208429D01*
X135374966Y-100180392D01*
X135404043Y-100152814D01*
X135430284Y-100128500D01*
X135439300Y-100120343D01*
X135496100Y-100069423D01*
X135661311Y-100066922D01*
X135826522Y-100064422D01*
X135838344Y-100019868D01*
X135847198Y-99989921D01*
X135856379Y-99967252D01*
X135867264Y-99949194D01*
X135881228Y-99933078D01*
X135884989Y-99929395D01*
X135900679Y-99914392D01*
X135797070Y-99911892D01*
X136094330Y-99911892D01*
X136111542Y-99933146D01*
X136129723Y-99958261D01*
X136141982Y-99982508D01*
X136149812Y-100006910D01*
X136154701Y-100025709D01*
X136159521Y-100044278D01*
X136160529Y-100048168D01*
X136165385Y-100066922D01*
X136557692Y-100066922D01*
X136950000Y-100066922D01*
X136950000Y-99989407D01*
X136950000Y-99911892D01*
X136522165Y-99911892D01*
X136094330Y-99911892D01*
X135797070Y-99911892D01*
X135693460Y-99909391D01*
X135767980Y-99856143D01*
X135853320Y-99796763D01*
X135933212Y-99744510D01*
X135992243Y-99708366D01*
X136036986Y-99681846D01*
X136483493Y-99681846D01*
X136549363Y-99681829D01*
X136612302Y-99681779D01*
X136671602Y-99681698D01*
X136726555Y-99681590D01*
X136776452Y-99681456D01*
X136820585Y-99681299D01*
X136858246Y-99681122D01*
X136888726Y-99680927D01*
X136911317Y-99680716D01*
X136925310Y-99680493D01*
X136929999Y-99680264D01*
X136929009Y-99672719D01*
X136926358Y-99657831D01*
X136922528Y-99638030D01*
X136917998Y-99615743D01*
X136913252Y-99593399D01*
X136909266Y-99575575D01*
X136899166Y-99531817D01*
X136613583Y-99531817D01*
X136552982Y-99531738D01*
X136498626Y-99531509D01*
X136451034Y-99531136D01*
X136410727Y-99530630D01*
X136378226Y-99529998D01*
X136354050Y-99529249D01*
X136338720Y-99528391D01*
X136332755Y-99527434D01*
X136332749Y-99527213D01*
X136339495Y-99523158D01*
X136354071Y-99515970D01*
X136375042Y-99506278D01*
X136400972Y-99494708D01*
X136430427Y-99481889D01*
X136461971Y-99468448D01*
X136494167Y-99455014D01*
X136525582Y-99442214D01*
X136542500Y-99435477D01*
X136597375Y-99414536D01*
X136658119Y-99392555D01*
X136720936Y-99370846D01*
X136782030Y-99350723D01*
X136834738Y-99334355D01*
X136861042Y-99325952D01*
X136886397Y-99316909D01*
X136907884Y-99308322D01*
X136922371Y-99301409D01*
X136941425Y-99292546D01*
X136969071Y-99282360D01*
X137004036Y-99271180D01*
X137045050Y-99259333D01*
X137090841Y-99247150D01*
X137140138Y-99234959D01*
X137191670Y-99223088D01*
X137244164Y-99211867D01*
X137296350Y-99201624D01*
X137335000Y-99194700D01*
X137423157Y-99180757D01*
X137512329Y-99168993D01*
X137604129Y-99159268D01*
X137700174Y-99151440D01*
X137802075Y-99145368D01*
X137911449Y-99140911D01*
X137970000Y-99139231D01*
X138042367Y-99138320D01*
X138110169Y-99139272D01*
G37*
D13*
%TO.C,R3*%
X161350000Y-89610436D02*
X161350000Y-90064564D01*
X162820000Y-89610436D02*
X162820000Y-90064564D01*
%TO.C,C4*%
X156180000Y-91956252D02*
X156180000Y-91433748D01*
X157650000Y-91956252D02*
X157650000Y-91433748D01*
%TO.C,TP2*%
X171750000Y-72000000D02*
G75*
G02*
X168250000Y-72000000I-1750000J0D01*
G01*
X168250000Y-72000000D02*
G75*
G02*
X171750000Y-72000000I1750000J0D01*
G01*
%TO.C,C8*%
X150755000Y-79888748D02*
X150755000Y-80411252D01*
X152225000Y-79888748D02*
X152225000Y-80411252D01*
%TO.C,R5*%
X142772500Y-71774758D02*
X142772500Y-71300242D01*
X143817500Y-71774758D02*
X143817500Y-71300242D01*
%TO.C,C6*%
X144330000Y-94268748D02*
X144330000Y-94791252D01*
X145800000Y-94268748D02*
X145800000Y-94791252D01*
%TO.C,R2*%
X158414564Y-94065000D02*
X157960436Y-94065000D01*
X158414564Y-95535000D02*
X157960436Y-95535000D01*
%TO.C,TP3*%
X155450000Y-62000000D02*
G75*
G02*
X151950000Y-62000000I-1750000J0D01*
G01*
X151950000Y-62000000D02*
G75*
G02*
X155450000Y-62000000I1750000J0D01*
G01*
%TO.C,TP1*%
X131750000Y-72000000D02*
G75*
G02*
X128250000Y-72000000I-1750000J0D01*
G01*
X128250000Y-72000000D02*
G75*
G02*
X131750000Y-72000000I1750000J0D01*
G01*
%TO.C,C7*%
X148615000Y-79888748D02*
X148615000Y-80411252D01*
X150085000Y-79888748D02*
X150085000Y-80411252D01*
%TO.C,D3*%
X142165000Y-64977500D02*
X142165000Y-68862500D01*
X144435000Y-64977500D02*
X142165000Y-64977500D01*
X144435000Y-68862500D02*
X144435000Y-64977500D01*
%TO.C,D2*%
X136810000Y-64977500D02*
X136810000Y-68862500D01*
X139080000Y-64977500D02*
X136810000Y-64977500D01*
X139080000Y-68862500D02*
X139080000Y-64977500D01*
%TO.C,F1*%
X134097936Y-91590000D02*
X135302064Y-91590000D01*
X134097936Y-93410000D02*
X135302064Y-93410000D01*
%TO.C,C5*%
X158765000Y-91956252D02*
X158765000Y-91433748D01*
X160235000Y-91956252D02*
X160235000Y-91433748D01*
%TO.C,C9*%
X152915000Y-79888748D02*
X152915000Y-80411252D01*
X154385000Y-79888748D02*
X154385000Y-80411252D01*
%TO.C,D1*%
X153750000Y-85260000D02*
X156435000Y-85260000D01*
X156435000Y-83340000D02*
X153750000Y-83340000D01*
X156435000Y-85260000D02*
X156435000Y-83340000D01*
%TO.C,C2*%
X141930000Y-88711252D02*
X141930000Y-88188748D01*
X143400000Y-88711252D02*
X143400000Y-88188748D01*
%TD*%
M02*
